0
SECTION
2
HEADER
9
$INSUNITS
70
4
9
$ACADVER
1
AC1014
9
$HANDSEED
5
FFFF
0
ENDSEC
0
SECTION
2
TABLES
0
TABLE
2
VPORT
5
8
100
AcDbSymbolTable
0
ENDTAB
0
TABLE
2
LTYPE
5
5
100
AcDbSymbolTable
0
LTYPE
5
14
100
AcDbSymbolTableRecord
100
AcDbLinetypeTableRecord
2
BYBLOCK
70
0
0
LTYPE
5
15
100
AcDbSymbolTableRecord
100
AcDbLinetypeTableRecord
2
BYLAYER
70
0
0
ENDTAB
0
TABLE
2
LAYER
5
2
100
AcDbSymbolTable
70
2
0
LAYER
5
50
100
AcDbSymbolTableRecord
100
AcDbLayerTableRecord
2
0
70
0
6
CONTINUOUS
0
ENDTAB
0
TABLE
2
STYLE
5
3
100
AcDbSymbolTable
70
1
0
STYLE
5
11
100
AcDbSymbolTableRecord
100
AcDbTextStyleTableRecord
2
STANDARD
70
0
0
ENDTAB
0
TABLE
2
VIEW
5
6
100
AcDbSymbolTable
70
0
0
ENDTAB
0
TABLE
2
UCS
5
7
100
AcDbSymbolTable
70
0
0
ENDTAB
0
TABLE
2
APPID
5
9
100
AcDbSymbolTable
70
2
0
APPID
5
12
100
AcDbSymbolTableRecord
100
AcDbRegAppTableRecord
2
ACAD
70
0
0
ENDTAB
0
TABLE
2
DIMSTYLE
5
A
100
AcDbSymbolTable
70
1
0
ENDTAB
0
TABLE
2
BLOCK_RECORD
5
1
100
AcDbSymbolTable
70
1
0
BLOCK_RECORD
5
1F
100
AcDbSymbolTableRecord
100
AcDbBlockTableRecord
2
*MODEL_SPACE
0
BLOCK_RECORD
5
1B
100
AcDbSymbolTableRecord
100
AcDbBlockTableRecord
2
*PAPER_SPACE
0
ENDTAB
0
ENDSEC
0
SECTION
2
BLOCKS
0
BLOCK
5
20
100
AcDbEntity
100
AcDbBlockBegin
2
*MODEL_SPACE
0
ENDBLK
5
21
100
AcDbEntity
100
AcDbBlockEnd
0
BLOCK
5
1C
100
AcDbEntity
100
AcDbBlockBegin
2
*PAPER_SPACE
0
ENDBLK
5
1D
100
AcDbEntity
100
AcDbBlockEnd
0
ENDSEC
0
SECTION
2
ENTITIES
0
LINE
5
100
100
AcDbEntity
8
0
100
AcDbLine
10
2.0623588453252717
20
90.913557591298101
30
0
11
8.3484665968044283
21
90.913557591298101
31
0
0
LINE
5
101
100
AcDbEntity
8
0
100
AcDbLine
10
8.3484665968044283
20
90.913557591298101
30
0
11
20.606185783379487
21
73.623654080038506
31
0
0
LINE
5
102
100
AcDbEntity
8
0
100
AcDbLine
10
2.0623588453252717
20
90.913557591298101
30
0
11
8.5680694566871338
21
68.202710670514563
31
0
0
LINE
5
103
100
AcDbEntity
8
0
100
AcDbLine
10
8.5680694566871338
20
68.202710670514563
30
0
11
3.130392485756671
21
66.645042966869113
31
0
0
LINE
5
104
100
AcDbEntity
8
0
100
AcDbLine
10
69.022199219401244
20
82.694551705831827
30
0
11
69.022199219401244
21
71.718482756005727
31
0
0
LINE
5
105
100
AcDbEntity
8
0
100
AcDbLine
10
69.022199219401244
20
71.718482756005727
30
0
11
35.8367407539114
21
71.718482756005727
31
0
0
LINE
5
106
100
AcDbEntity
8
0
100
AcDbLine
10
69.022199219401244
20
86.296074329993502
30
0
11
68.002354449803278
21
93.386590089581148
31
0
0
LINE
5
107
100
AcDbEntity
8
0
100
AcDbLine
10
64.799745658051847
20
104.86260492669045
30
0
11
67.001539202380954
21
96.856082947311847
31
0
0
LINE
5
108
100
AcDbEntity
8
0
100
AcDbLine
10
56.659781645683637
20
128.61528679884688
30
0
11
59.595506371455784
21
126.88054036998152
31
0
0
LINE
5
109
100
AcDbEntity
8
0
100
AcDbLine
10
58.127644008569703
20
129.42637582459116
30
0
11
66.601213103412036
21
126.88054036998152
31
0
0
LINE
5
110
100
AcDbEntity
8
0
100
AcDbLine
10
66.601213103412036
20
126.88054036998152
30
0
11
87.151286183817049
21
88.916281984428096
31
0
0
LINE
5
111
100
AcDbEntity
8
0
100
AcDbLine
10
87.151286183817049
20
88.916281984428096
30
0
11
90.051164552574477
21
89.601707780679831
31
0
0
LINE
5
112
100
AcDbEntity
8
0
100
AcDbLine
10
90.051164552574477
20
89.601707780679831
30
0
11
89.802498568904809
21
90.653756173128457
31
0
0
LINE
5
113
100
AcDbEntity
8
0
100
AcDbLine
10
89.802498568904809
20
90.653756173128457
30
0
11
95.301041921812839
21
91.300746421243261
31
0
0
LINE
5
114
100
AcDbEntity
8
0
100
AcDbLine
10
95.301041921812839
20
91.300746421243261
30
0
11
103.16915275769681
21
90.400019928246437
31
0
0
LINE
5
115
100
AcDbEntity
8
0
100
AcDbLine
10
103.16915275769681
20
90.400019928246437
30
0
11
103.16915275769681
21
81.657674555042021
31
0
0
LINE
5
116
100
AcDbEntity
8
0
100
AcDbLine
10
103.16915275769681
20
81.657674555042021
30
0
11
95.301041921812839
21
80.731867362995246
31
0
0
LINE
5
117
100
AcDbEntity
8
0
100
AcDbLine
10
95.301041921812839
20
80.731867362995246
30
0
11
91.675068209495848
21
81.194770959018641
31
0
0
LINE
5
118
100
AcDbEntity
8
0
100
AcDbLine
10
91.675068209495848
20
81.194770959018641
30
0
11
96.153927987384975
21
72.971911617392863
31
0
0
LINE
5
119
100
AcDbEntity
8
0
100
AcDbLine
10
96.153927987384975
20
72.971911617392863
30
0
11
99.235097339754816
21
71.665577515508545
31
0
0
LINE
5
120
100
AcDbEntity
8
0
100
AcDbLine
10
99.235097339754816
20
71.665577515508545
30
0
11
139.47273125923437
21
71.665577515508545
31
0
0
LINE
5
121
100
AcDbEntity
8
0
100
AcDbLine
10
69.022199219401244
20
86.296074329993502
30
0
11
65.638417533071717
21
85.809377427924233
31
0
0
LINE
5
122
100
AcDbEntity
8
0
100
AcDbLine
10
65.638417533071717
20
85.809377427924233
30
0
11
62.896881930112713
21
84.510293790583205
31
0
0
LINE
5
123
100
AcDbEntity
8
0
100
AcDbLine
10
69.022199219401244
20
82.694551705831827
30
0
11
65.638417533071717
21
83.300334831644719
31
0
0
LINE
5
124
100
AcDbEntity
8
0
100
AcDbLine
10
65.638417533071717
20
83.300334831644719
30
0
11
62.896881930112713
21
84.510293790583205
31
0
0
LINE
5
125
100
AcDbEntity
8
0
100
AcDbLine
10
67.001539202380954
20
96.856082947311847
30
0
11
64.267649731592215
21
96.462861498833604
31
0
0
LINE
5
126
100
AcDbEntity
8
0
100
AcDbLine
10
64.267649731592215
20
96.462861498833604
30
0
11
61.960139510289366
21
95.321862552710925
31
0
0
LINE
5
127
100
AcDbEntity
8
0
100
AcDbLine
10
61.960139510289366
20
95.321862552710925
30
0
11
64.267649731592215
21
94.303457881221689
31
0
0
LINE
5
128
100
AcDbEntity
8
0
100
AcDbLine
10
64.267649731592215
20
94.303457881221689
30
0
11
68.002354449803278
21
93.386590089581148
31
0
0
LINE
5
129
100
AcDbEntity
8
0
100
AcDbLine
10
64.09760642485638
20
107.83319399020976
30
0
11
61.087189241111801
21
106.34462730810736
31
0
0
LINE
5
130
100
AcDbEntity
8
0
100
AcDbLine
10
61.087189241111801
20
106.34462730810736
30
0
11
64.799745658051847
21
104.86260492669045
31
0
0
LINE
5
131
100
AcDbEntity
8
0
100
AcDbLine
10
59.595506371455784
20
126.88054036998152
30
0
11
64.09760642485638
21
107.83319399020976
31
0
0
LINE
5
132
100
AcDbEntity
8
0
100
AcDbLine
10
3.130392485756671
20
66.645042966869113
30
0
11
1.5345807371129341
21
65.979332720869067
31
0
0
LINE
5
133
100
AcDbEntity
8
0
100
AcDbLine
10
1.5345807371129341
20
65.979332720869067
30
0
11
0.94488438120881579
21
65.52339507265134
31
0
0
SPLINE
5
134
100
AcDbEntity
8
0
100
AcDbSpline
70
4
71
5
72
36
73
30
74
0
42
0.000000001
43
0.0000000001
44
0.0000000001
40
0
40
0
40
0
40
0
40
0
40
0
40
0.040000000000000001
40
0.080000000000000002
40
0.12
40
0.16
40
0.20000000000000001
40
0.24000000000000002
40
0.28000000000000003
40
0.32000000000000001
40
0.35999999999999999
40
0.39999999999999997
40
0.43999999999999995
40
0.47999999999999993
40
0.51999999999999991
40
0.55999999999999994
40
0.59999999999999998
40
0.64000000000000001
40
0.68000000000000005
40
0.72000000000000008
40
0.76000000000000012
40
0.80000000000000016
40
0.84000000000000019
40
0.88000000000000023
40
0.92000000000000026
40
0.9600000000000003
40
1
40
1
40
1
40
1
40
1
40
1
41
1
41
1
41
1
41
1
41
1
41
1
41
1
41
1
41
1
41
1
41
1
41
1
41
1
41
1
41
1
41
1
41
1
41
1
41
1
41
1
41
1
41
1
41
1
41
1
41
1
41
1
41
1
41
1
41
1
41
1
10
20.606185783379487
20
73.623654080038506
30
0
10
20.798262633432437
20
73.45262173973471
30
0
10
21.158464880393915
20
73.127072026130776
30
0
10
21.626721229022895
20
72.688337737802215
30
0
10
22.108263681087053
20
72.202404535533361
30
0
10
22.485063926900377
20
71.755917785281767
30
0
10
22.710440944039188
20
71.447900622786776
30
0
10
22.880597775817112
20
71.244110803559494
30
0
10
23.277365783264216
20
71.05750015297879
30
0
10
24.02187021854165
20
70.826956637451474
30
0
10
24.760190076308888
20
70.609650573887365
30
0
10
25.213704005904916
20
70.478545725816844
30
0
10
25.333445686754203
20
70.496024407978126
30
0
10
25.875341335911706
20
70.634889393037099
30
0
10
26.929588577972403
20
70.844841243509677
30
0
10
28.269565299850285
20
71.067455679150669
30
0
10
29.492596462180099
20
71.247954506571546
30
0
10
30.285528663004683
20
71.354334118574911
30
0
10
30.51155992661382
20
71.380780209260109
30
0
10
30.685518105284121
20
71.3894930443563
30
0
10
31.137537421619257
20
71.419927905902711
30
0
10
31.89440715219547
20
71.478026000246786
30
0
10
32.85756414139405
20
71.554984524339559
30
0
10
33.845960376580443
20
71.632452232192506
30
0
10
34.708379021758617
20
71.694803157011364
30
0
10
35.361375470969769
20
71.733475859437689
30
0
10
35.682898878726547
20
71.742047188015533
30
0
10
35.805736708952637
20
71.735356797471269
30
0
10
35.835151002789893
20
71.725077178355704
30
0
10
35.8367407539114
20
71.718482756005727
30
0
0
SPLINE
5
135
100
AcDbEntity
8
0
100
AcDbSpline
70
4
71
5
72
51
73
45
74
0
42
0.000000001
43
0.0000000001
44
0.0000000001
40
0
40
0
40
0
40
0
40
0
40
0
40
0.025000000000000001
40
0.050000000000000003
40
0.075000000000000011
40
0.10000000000000001
40
0.125
40
0.14999999999999999
40
0.17499999999999999
40
0.19999999999999998
40
0.22499999999999998
40
0.24999999999999997
40
0.27499999999999997
40
0.29999999999999999
40
0.32500000000000001
40
0.35000000000000003
40
0.37500000000000006
40
0.40000000000000008
40
0.4250000000000001
40
0.45000000000000012
40
0.47500000000000014
40
0.50000000000000011
40
0.52500000000000013
40
0.55000000000000016
40
0.57500000000000018
40
0.6000000000000002
40
0.62500000000000022
40
0.65000000000000024
40
0.67500000000000027
40
0.70000000000000029
40
0.72500000000000031
40
0.75000000000000033
40
0.77500000000000036
40
0.80000000000000038
40
0.8250000000000004
40
0.85000000000000042
40
0.87500000000000044
40
0.90000000000000047
40
0.92500000000000049
40
0.95000000000000051
40
0.97500000000000053
40
1
40
1
40
1
40
1
40
1
40
1
41
1
41
1
41
1
41
1
41
1
41
1
41
1
41
1
41
1
41
1
41
1
41
1
41
1
41
1
41
1
41
1
41
1
41
1
41
1
41
1
41
1
41
1
41
1
41
1
41
1
41
1
41
1
41
1
41
1
41
1
41
1
41
1
41
1
41
1
41
1
41
1
41
1
41
1
41
1
41
1
41
1
41
1
41
1
41
1
41
1
10
139.47273125923437
20
71.665577515508545
30
0
10
139.60582358267422
20
71.66590403703006
30
0
10
139.87159293880075
20
71.665181205418861
30
0
10
140.26900110554882
20
71.659969331158749
30
0
10
140.79638434888147
20
71.644756532848518
30
0
10
141.45136301294644
20
71.611968063722898
30
0
10
142.10183623730526
20
71.565493220978752
30
0
10
142.74731392670705
20
71.505567966251306
30
0
10
143.38699243729587
20
71.43264674963369
30
0
10
144.01968645627574
20
71.347464413751524
30
0
10
144.6437336614901
20
71.25111868766281
30
0
10
145.25697393241026
20
71.145099478931769
30
0
10
145.85711663509318
20
71.03103632572838
30
0
10
146.44206360897934
20
70.910479926999642
30
0
10
147.01024116545051
20
70.784676190118532
30
0
10
147.56095260953194
20
70.654331011860307
30
0
10
148.0946759732752
20
70.519405339729246
30
0
10
148.61352327064881
20
70.378821419394214
30
0
10
149.12055929255041
20
70.230802181829773
30
0
10
149.61888104836243
20
70.073345069708054
30
0
10
150.11076679093523
20
69.904654290292683
30
0
10
150.59682685555919
20
69.723578881690884
30
0
10
151.07507026854461
20
69.530081115783887
30
0
10
151.54022483276174
20
69.325610108588393
30
0
10
151.98548693031231
20
69.11256052651872
30
0
10
152.40402323435939
20
68.893820544029168
30
0
10
152.79063070434964
20
68.672277626643009
30
0
10
153.1431884176275
20
68.450369250502192
30
0
10
153.46460092952731
20
68.229545223584495
30
0
10
153.76114317041447
20
68.01034857338324
30
0
10
154.0399455408367
20
67.792628512684786
30
0
10
154.30700999560693
20
67.575691545234505
30
0
10
154.56446435902404
20
67.358507349110695
30
0
10
154.81019600515444
20
67.139766157714405
30
0
10
155.04019515384417
20
66.917759611528282
30
0
10
155.25002424068424
20
66.690337643643772
30
0
10
155.43700635455588
20
66.454759418149365
30
0
10
155.60058709207644
20
66.207896050112382
30
0
10
155.74131553421245
20
65.946733689467948
30
0
10
155.86024546613737
20
65.668766476335009
30
0
10
155.95809744422519
20
65.37250173722181
30
0
10
156.01983494051134
20
65.12030088374091
30
0
10
156.05691214294094
20
64.922518966622278
30
0
10
156.0775338511402
20
64.786832363087058
30
0
10
156.08682060936383
20
64.71803105006714
30
0
0
LINE
5
136
100
AcDbEntity
8
0
100
AcDbLine
10
2.0623588453252717
20
38.522504508836178
30
0
11
8.5680694566871338
21
61.233351429619709
31
0
0
LINE
5
137
100
AcDbEntity
8
0
100
AcDbLine
10
61.960139510289366
20
34.114199547423354
30
0
11
64.267649731592215
21
35.13260421891259
31
0
0
LINE
5
138
100
AcDbEntity
8
0
100
AcDbLine
10
67.001539202380954
20
32.579979152822425
30
0
11
64.267649731592215
21
32.973200601300675
31
0
0
LINE
5
139
100
AcDbEntity
8
0
100
AcDbLine
10
8.3484665968044283
20
38.522504508836178
30
0
11
20.606185783379487
21
55.812408020095781
31
0
0
LINE
5
140
100
AcDbEntity
8
0
100
AcDbLine
10
69.022199219401244
20
43.139987770140777
30
0
11
68.002354449803278
21
36.049472010553139
31
0
0
LINE
5
141
100
AcDbEntity
8
0
100
AcDbLine
10
69.022199219401244
20
46.741510394302459
30
0
11
69.022199219401244
21
57.717579344128545
31
0
0
LINE
5
142
100
AcDbEntity
8
0
100
AcDbLine
10
2.0623588453252717
20
38.522504508836178
30
0
11
8.3484665968044283
21
38.522504508836178
31
0
0
LINE
5
143
100
AcDbEntity
8
0
100
AcDbLine
10
61.087189241111801
20
23.091434792026924
30
0
11
64.799745658051847
21
24.573457173443831
31
0
0
LINE
5
144
100
AcDbEntity
8
0
100
AcDbLine
10
64.267649731592215
20
32.973200601300675
30
0
11
61.960139510289366
21
34.114199547423354
31
0
0
LINE
5
145
100
AcDbEntity
8
0
100
AcDbLine
10
58.127644008569703
20
0.0096862755431281755
30
0
11
66.601213103412036
21
2.5555217301527655
31
0
0
LINE
5
146
100
AcDbEntity
8
0
100
AcDbLine
10
69.022199219401244
20
43.139987770140777
30
0
11
65.638417533071717
21
43.626684672210047
31
0
0
LINE
5
147
100
AcDbEntity
8
0
100
AcDbLine
10
69.022199219401244
20
46.741510394302459
30
0
11
65.638417533071717
21
46.135727268489561
31
0
0
LINE
5
148
100
AcDbEntity
8
0
100
AcDbLine
10
64.09760642485638
20
21.602868109924511
30
0
11
61.087189241111801
21
23.091434792026924
31
0
0
LWPOLYLINE
5
149
100
AcDbEntity
8
0
100
AcDbPolyline
90
2
70
1
43
0.0
10
24.6711477321739
20
58.964827490589364
10
25.898932157524047
20
58.898460764894764
0
SPLINE
5
150
100
AcDbEntity
8
0
100
AcDbSpline
70
4
71
5
72
36
73
30
74
0
42
0.000000001
43
0.0000000001
44
0.0000000001
40
0
40
0
40
0
40
0
40
0
40
0
40
0.040000000000000001
40
0.080000000000000002
40
0.12
40
0.16
40
0.20000000000000001
40
0.24000000000000002
40
0.28000000000000003
40
0.32000000000000001
40
0.35999999999999999
40
0.39999999999999997
40
0.43999999999999995
40
0.47999999999999993
40
0.51999999999999991
40
0.55999999999999994
40
0.59999999999999998
40
0.64000000000000001
40
0.68000000000000005
40
0.72000000000000008
40
0.76000000000000012
40
0.80000000000000016
40
0.84000000000000019
40
0.88000000000000023
40
0.92000000000000026
40
0.9600000000000003
40
1
40
1
40
1
40
1
40
1
40
1
41
1
41
1
41
1
41
1
41
1
41
1
41
1
41
1
41
1
41
1
41
1
41
1
41
1
41
1
41
1
41
1
41
1
41
1
41
1
41
1
41
1
41
1
41
1
41
1
41
1
41
1
41
1
41
1
41
1
41
1
10
20.606185783379487
20
55.812408020095781
30
0
10
20.798262633432437
20
55.98344036039957
30
0
10
21.158464880393915
20
56.308990074003511
30
0
10
21.626721229022895
20
56.747724362332058
30
0
10
22.108263681087053
20
57.233657564600918
30
0
10
22.485063926900377
20
57.680144314852512
30
0
10
22.710440944039188
20
57.988161477347504
30
0
10
22.880597775817112
20
58.191951296574793
30
0
10
23.277365783264216
20
58.37856194715549
30
0
10
24.02187021854165
20
58.609105462682798
30
0
10
24.760190076308888
20
58.826411526246915
30
0
10
25.213704005904916
20
58.957516374317436
30
0
10
25.333445686754203
20
58.940037692156153
30
0
10
25.875341335911706
20
58.80117270709718
30
0
10
26.929588577972403
20
58.591220856624602
30
0
10
28.269565299850285
20
58.36860642098361
30
0
10
29.492596462180099
20
58.188107593562734
30
0
10
30.285528663004683
20
58.081727981559368
30
0
10
30.51155992661382
20
58.055281890874177
30
0
10
30.685518105284121
20
58.046569055777972
30
0
10
31.137537421619257
20
58.016134194231569
30
0
10
31.89440715219547
20
57.958036099887487
30
0
10
32.85756414139405
20
57.88107757579472
30
0
10
33.845960376580443
20
57.80360986794178
30
0
10
34.708379021758617
20
57.741258943122915
30
0
10
35.361375470969769
20
57.70258624069659
30
0
10
35.682898878726547
20
57.694014912118746
30
0
10
35.805736708952637
20
57.70070530266301
30
0
10
35.835151002789893
20
57.710984921778575
30
0
10
35.8367407539114
20
57.717579344128545
30
0
0
LWPOLYLINE
5
151
100
AcDbEntity
8
0
100
AcDbPolyline
90
2
70
1
43
0.0
10
22.121920362204182
20
57.680156521910774
10
23.808380298144062
20
58.732543950658282
0
LWPOLYLINE
5
152
100
AcDbEntity
8
0
100
AcDbPolyline
90
2
70
1
43
0.0
10
29.83625330836249
20
58.130570385348236
10
31.025761717432104
20
58.002509968017655
0
LINE
5
153
100
AcDbEntity
8
0
100
AcDbLine
10
90.051164552574477
20
39.834354319454448
30
0
11
89.802498568904809
21
38.782305927005822
31
0
0
LINE
5
154
100
AcDbEntity
8
0
100
AcDbLine
10
95.301041921812839
20
38.135315678891018
30
0
11
103.16915275769681
21
39.036042171887843
31
0
0
LINE
5
155
100
AcDbEntity
8
0
100
AcDbLine
10
91.675068209495848
20
48.241291141115639
30
0
11
96.153927987384975
21
56.464150482741417
31
0
0
LINE
5
156
100
AcDbEntity
8
0
100
AcDbLine
10
103.16915275769681
20
47.778387545092258
30
0
11
95.301041921812839
21
48.704194737139034
31
0
0
LINE
5
157
100
AcDbEntity
8
0
100
AcDbLine
10
87.151286183817049
20
40.519780115706183
30
0
11
90.051164552574477
21
39.834354319454448
31
0
0
LINE
5
158
100
AcDbEntity
8
0
100
AcDbLine
10
103.16915275769681
20
39.036042171887843
30
0
11
103.16915275769681
21
47.778387545092258
31
0
0
LINE
5
159
100
AcDbEntity
8
0
100
AcDbLine
10
96.153927987384975
20
56.464150482741417
30
0
11
99.235097339754816
21
57.770484584625734
31
0
0
LINE
5
160
100
AcDbEntity
8
0
100
AcDbLine
10
89.802498568904809
20
38.782305927005822
30
0
11
95.301041921812839
21
38.135315678891018
31
0
0
LINE
5
161
100
AcDbEntity
8
0
100
AcDbLine
10
66.601213103412036
20
2.5555217301527655
30
0
11
87.151286183817049
21
40.519780115706183
31
0
0
LINE
5
162
100
AcDbEntity
8
0
100
AcDbLine
10
8.5680694566871338
20
61.233351429619709
30
0
11
3.1774151033381433
21
62.777549114148705
31
0
0
LINE
5
163
100
AcDbEntity
8
0
100
AcDbLine
10
69.022199219401244
20
57.717579344128545
30
0
11
35.8367407539114
21
57.717579344128545
31
0
0
LINE
5
164
100
AcDbEntity
8
0
100
AcDbLine
10
56.659781645683637
20
0.82077530128740861
30
0
11
59.595506371455784
21
2.5555217301527655
31
0
0
LINE
5
165
100
AcDbEntity
8
0
100
AcDbLine
10
95.301041921812839
20
48.704194737139034
30
0
11
91.675068209495848
21
48.241291141115639
31
0
0
LINE
5
166
100
AcDbEntity
8
0
100
AcDbLine
10
65.638417533071717
20
43.626684672210047
30
0
11
62.896881930112713
21
44.925768309551074
31
0
0
LINE
5
167
100
AcDbEntity
8
0
100
AcDbLine
10
65.638417533071717
20
46.135727268489561
30
0
11
62.896881930112713
21
44.925768309551074
31
0
0
LINE
5
168
100
AcDbEntity
8
0
100
AcDbLine
10
64.267649731592215
20
35.13260421891259
30
0
11
68.002354449803278
21
36.049472010553139
31
0
0
LINE
5
169
100
AcDbEntity
8
0
100
AcDbLine
10
64.799745658051847
20
24.573457173443831
30
0
11
67.001539202380954
21
32.579979152822425
31
0
0
LINE
5
170
100
AcDbEntity
8
0
100
AcDbLine
10
59.595506371455784
20
2.5555217301527655
30
0
11
64.09760642485638
21
21.602868109924511
31
0
0
SPLINE
5
171
100
AcDbEntity
8
0
100
AcDbSpline
70
4
71
5
72
51
73
45
74
0
42
0.000000001
43
0.0000000001
44
0.0000000001
40
0
40
0
40
0
40
0
40
0
40
0
40
0.025000000000000001
40
0.050000000000000003
40
0.075000000000000011
40
0.10000000000000001
40
0.125
40
0.14999999999999999
40
0.17499999999999999
40
0.19999999999999998
40
0.22499999999999998
40
0.24999999999999997
40
0.27499999999999997
40
0.29999999999999999
40
0.32500000000000001
40
0.35000000000000003
40
0.37500000000000006
40
0.40000000000000008
40
0.4250000000000001
40
0.45000000000000012
40
0.47500000000000014
40
0.50000000000000011
40
0.52500000000000013
40
0.55000000000000016
40
0.57500000000000018
40
0.6000000000000002
40
0.62500000000000022
40
0.65000000000000024
40
0.67500000000000027
40
0.70000000000000029
40
0.72500000000000031
40
0.75000000000000033
40
0.77500000000000036
40
0.80000000000000038
40
0.8250000000000004
40
0.85000000000000042
40
0.87500000000000044
40
0.90000000000000047
40
0.92500000000000049
40
0.95000000000000051
40
0.97500000000000053
40
1
40
1
40
1
40
1
40
1
40
1
41
1
41
1
41
1
41
1
41
1
41
1
41
1
41
1
41
1
41
1
41
1
41
1
41
1
41
1
41
1
41
1
41
1
41
1
41
1
41
1
41
1
41
1
41
1
41
1
41
1
41
1
41
1
41
1
41
1
41
1
41
1
41
1
41
1
41
1
41
1
41
1
41
1
41
1
41
1
41
1
41
1
41
1
41
1
41
1
41
1
10
139.47273125923437
20
57.770484584625734
30
0
10
139.60582358267422
20
57.770158063104219
30
0
10
139.87159293880075
20
57.770880894715411
30
0
10
140.26900110554882
20
57.776092768975538
30
0
10
140.79638434888147
20
57.791305567285754
30
0
10
141.45136301294644
20
57.824094036411381
30
0
10
142.10183623730526
20
57.870568879155535
30
0
10
142.74731392670705
20
57.930494133882966
30
0
10
143.38699243729587
20
58.003415350500589
30
0
10
144.01968645627574
20
58.088597686382755
30
0
10
144.6437336614901
20
58.184943412471462
30
0
10
145.25697393241026
20
58.29096262120251
30
0
10
145.85711663509318
20
58.4050257744059
30
0
10
146.44206360897934
20
58.525582173134637
30
0
10
147.01024116545051
20
58.651385910015748
30
0
10
147.56095260953194
20
58.781731088273972
30
0
10
148.0946759732752
20
58.916656760405033
30
0
10
148.61352327064881
20
59.057240680740072
30
0
10
149.12055929255041
20
59.205259918304513
30
0
10
149.61888104836243
20
59.362717030426225
30
0
10
150.11076679093523
20
59.531407809841603
30
0
10
150.59682685555919
20
59.712483218443388
30
0
10
151.07507026854461
20
59.905980984350393
30
0
10
151.54022483276174
20
60.110451991545879
30
0
10
151.98548693031231
20
60.323501573615559
30
0
10
152.40402323435939
20
60.542241556105111
30
0
10
152.79063070434964
20
60.763784473491278
30
0
10
153.1431884176275
20
60.985692849632088
30
0
10
153.46460092952731
20
61.206516876549777
30
0
10
153.76114317041447
20
61.425713526751046
30
0
10
154.0399455408367
20
61.643433587449493
30
0
10
154.30700999560693
20
61.860370554899767
30
0
10
154.56446435902404
20
62.077554751023584
30
0
10
154.81019600515444
20
62.296295942419874
30
0
10
155.04019515384417
20
62.518302488605997
30
0
10
155.25002424068424
20
62.7457244564905
30
0
10
155.43700635455588
20
62.981302681984914
30
0
10
155.60058709207644
20
63.228166050021898
30
0
10
155.74131553421245
20
63.489328410666332
30
0
10
155.86024546613737
20
63.767295623799271
30
0
10
155.95809744422519
20
64.063560362912469
30
0
10
156.01983494051134
20
64.315761216393369
30
0
10
156.05691214294094
20
64.513543133512002
30
0
10
156.0775338511402
20
64.649229737047222
30
0
10
156.08682060936383
20
64.71803105006714
30
0
0
LINE
5
172
100
AcDbEntity
8
0
100
AcDbLine
10
99.235097339754816
20
57.770484584625734
30
0
11
139.47273125923437
21
57.770484584625734
31
0
0
LINE
5
173
100
AcDbEntity
8
0
100
AcDbLine
10
0.95687645511995512
20
63.903395072651335
30
0
11
1.517317370502911
21
63.470076958394188
31
0
0
LINE
5
174
100
AcDbEntity
8
0
100
AcDbLine
10
1.517317370502911
20
63.470076958394188
30
0
11
3.1774151033381433
21
62.777549114148705
31
0
0
LINE
5
175
100
AcDbEntity
8
0
100
AcDbLine
10
56.659781645683637
20
0.82077530128740861
30
0
11
58.127644008569703
21
0.0096862755431281755
31
0
0
LINE
5
176
100
AcDbEntity
8
0
100
AcDbLine
10
56.659781645683637
20
128.61528679884688
30
0
11
58.127644008569703
21
129.42637582459116
31
0
0
LWPOLYLINE
5
177
100
AcDbEntity
8
0
100
AcDbPolyline
90
2
70
1
43
0.0
10
0.95687645511995512
20
63.903395072651335
10
83.702405657506489
20
63.903395072651335
0
LINE
5
178
100
AcDbEntity
8
0
100
AcDbLine
10
83.702405657506489
20
63.903395072651335
30
0
11
83.702405657506489
21
64.713395072651338
31
0
0
LINE
5
179
100
AcDbEntity
8
0
100
AcDbLine
10
0.94488438120881579
20
65.52339507265134
30
0
11
83.702405657506489
21
65.52339507265134
31
0
0
LINE
5
180
100
AcDbEntity
8
0
100
AcDbLine
10
83.702405657506489
20
65.52339507265134
30
0
11
83.702405657506489
21
63.903395072651335
31
0
0
ENDSEC
0
SECTION
2
OBJECTS
0
DICTIONARY
5
C
100
AcDbDictionary
3
ACAD_GROUP
350
D
3
ACAD_MLINESTYLE
350
17
0
DICTIONARY
5
D
100
AcDbDictionary
0
DICTIONARY
5
1A
330
C
100
AcDbDictionary
0
DICTIONARY
5
17
100
AcDbDictionary
0
ENDSEC
0
EOF
