0
SECTION
2
HEADER
9
$INSUNITS
70
4
9
$ACADVER
1
AC1014
9
$HANDSEED
5
FFFF
0
ENDSEC
0
SECTION
2
TABLES
0
TABLE
2
VPORT
5
8
100
AcDbSymbolTable
0
ENDTAB
0
TABLE
2
LTYPE
5
5
100
AcDbSymbolTable
0
LTYPE
5
14
100
AcDbSymbolTableRecord
100
AcDbLinetypeTableRecord
2
BYBLOCK
70
0
0
LTYPE
5
15
100
AcDbSymbolTableRecord
100
AcDbLinetypeTableRecord
2
BYLAYER
70
0
0
ENDTAB
0
TABLE
2
LAYER
5
2
100
AcDbSymbolTable
70
2
0
LAYER
5
50
100
AcDbSymbolTableRecord
100
AcDbLayerTableRecord
2
0
70
0
6
CONTINUOUS
0
ENDTAB
0
TABLE
2
STYLE
5
3
100
AcDbSymbolTable
70
1
0
STYLE
5
11
100
AcDbSymbolTableRecord
100
AcDbTextStyleTableRecord
2
STANDARD
70
0
0
ENDTAB
0
TABLE
2
VIEW
5
6
100
AcDbSymbolTable
70
0
0
ENDTAB
0
TABLE
2
UCS
5
7
100
AcDbSymbolTable
70
0
0
ENDTAB
0
TABLE
2
APPID
5
9
100
AcDbSymbolTable
70
2
0
APPID
5
12
100
AcDbSymbolTableRecord
100
AcDbRegAppTableRecord
2
ACAD
70
0
0
ENDTAB
0
TABLE
2
DIMSTYLE
5
A
100
AcDbSymbolTable
70
1
0
ENDTAB
0
TABLE
2
BLOCK_RECORD
5
1
100
AcDbSymbolTable
70
1
0
BLOCK_RECORD
5
1F
100
AcDbSymbolTableRecord
100
AcDbBlockTableRecord
2
*MODEL_SPACE
0
BLOCK_RECORD
5
1B
100
AcDbSymbolTableRecord
100
AcDbBlockTableRecord
2
*PAPER_SPACE
0
ENDTAB
0
ENDSEC
0
SECTION
2
BLOCKS
0
BLOCK
5
20
100
AcDbEntity
100
AcDbBlockBegin
2
*MODEL_SPACE
0
ENDBLK
5
21
100
AcDbEntity
100
AcDbBlockEnd
0
BLOCK
5
1C
100
AcDbEntity
100
AcDbBlockBegin
2
*PAPER_SPACE
0
ENDBLK
5
1D
100
AcDbEntity
100
AcDbBlockEnd
0
ENDSEC
0
SECTION
2
ENTITIES
0
LINE
5
100
100
AcDbEntity
8
0
100
AcDbLine
10
3.8094586303945377
20
185.00113883240874
30
0
11
-2.7953490491588084
21
185.00113883240874
31
0
0
LINE
5
101
100
AcDbEntity
8
0
100
AcDbLine
10
-2.7953490491588084
20
185.00113883240874
30
0
11
6.0019547107562454
21
162.7615549273435
31
0
0
LINE
5
102
100
AcDbEntity
8
0
100
AcDbLine
10
6.0019547107562454
20
162.7615549273435
30
0
11
0.50705479061786463
21
162.05777062655031
31
0
0
LINE
5
103
100
AcDbEntity
8
0
100
AcDbLine
10
0.50705479061786463
20
162.05777062655031
30
0
11
-1.4442415460039948
21
161.28589707567141
31
0
0
LINE
5
104
100
AcDbEntity
8
0
100
AcDbLine
10
-1.4442415460039948
20
161.28589707567141
30
0
11
-1.4442415460039948
21
159.97545745474923
31
0
0
LINE
5
105
100
AcDbEntity
8
0
100
AcDbLine
10
-1.4442415460039948
20
159.97545745474923
30
0
11
2.1441996103121603
21
157.8248577879101
31
0
0
LINE
5
106
100
AcDbEntity
8
0
100
AcDbLine
10
3.8094586303945377
20
185.00113883240874
30
0
11
22.189084576047829
21
167.10362492179055
31
0
0
LINE
5
107
100
AcDbEntity
8
0
100
AcDbLine
10
22.189084576047829
20
167.10362492179055
30
0
11
24.05025360208219
21
165.97840337172531
31
0
0
LINE
5
108
100
AcDbEntity
8
0
100
AcDbLine
10
24.05025360208219
20
165.97840337172531
30
0
11
27.388754378973623
21
165.22638613187948
31
0
0
LINE
5
109
100
AcDbEntity
8
0
100
AcDbLine
10
27.388754378973623
20
165.22638613187948
30
0
11
31.274176784843849
21
164.89595431437141
31
0
0
LINE
5
110
100
AcDbEntity
8
0
100
AcDbLine
10
31.274176784843849
20
164.89595431437141
30
0
11
135.18215534491506
21
164.89595431437141
31
0
0
SPLINE
5
111
100
AcDbEntity
8
0
100
AcDbSpline
70
4
71
5
72
46
73
40
74
0
42
0.000000001
43
0.0000000001
44
0.0000000001
40
0
40
0
40
0
40
0
40
0
40
0
40
0.028571428571428571
40
0.057142857142857141
40
0.085714285714285715
40
0.11428571428571428
40
0.14285714285714285
40
0.17142857142857143
40
0.20000000000000001
40
0.22857142857142859
40
0.25714285714285717
40
0.28571428571428575
40
0.31428571428571433
40
0.34285714285714292
40
0.3714285714285715
40
0.40000000000000008
40
0.42857142857142866
40
0.45714285714285724
40
0.48571428571428582
40
0.51428571428571435
40
0.54285714285714293
40
0.57142857142857151
40
0.60000000000000009
40
0.62857142857142867
40
0.65714285714285725
40
0.68571428571428583
40
0.71428571428571441
40
0.74285714285714299
40
0.77142857142857157
40
0.80000000000000016
40
0.82857142857142874
40
0.85714285714285732
40
0.8857142857142859
40
0.91428571428571448
40
0.94285714285714306
40
0.97142857142857164
40
1
40
1
40
1
40
1
40
1
40
1
41
1
41
1
41
1
41
1
41
1
41
1
41
1
41
1
41
1
41
1
41
1
41
1
41
1
41
1
41
1
41
1
41
1
41
1
41
1
41
1
41
1
41
1
41
1
41
1
41
1
41
1
41
1
41
1
41
1
41
1
41
1
41
1
41
1
41
1
41
1
41
1
41
1
41
1
41
1
41
1
10
135.18215534491506
20
164.89595431437141
30
0
10
135.24005640183034
20
164.89752539542539
30
0
10
135.36187749014491
20
164.90025478788993
30
0
10
135.56266641311976
20
164.90311050552026
30
0
10
135.86654442707135
20
164.90443862876549
30
0
10
136.30500006676195
20
164.90220015900752
30
0
10
136.79653837016846
20
164.8968090498721
30
0
10
137.32982307689338
20
164.88976757928748
30
0
10
137.88529662494
20
164.8836557890215
30
0
10
138.43979201754863
20
164.88127357924009
30
0
10
138.97161222238685
20
164.8847038711441
30
0
10
139.46549996862518
20
164.89438881740523
30
0
10
139.9175477275021
20
164.90822112952156
30
0
10
140.34057320925606
20
164.92053381255192
30
0
10
140.75708082622921
20
164.9238415686597
30
0
10
141.19128613839632
20
164.91081149909962
30
0
10
141.66226562251629
20
164.87594138199739
30
0
10
142.1747404610816
20
164.81788102463526
30
0
10
142.72040824862543
20
164.73888447982023
30
0
10
143.28428971166178
20
164.64290446120367
30
0
10
143.84969452750403
20
164.5340482985176
30
0
10
144.40320788085262
20
164.41506320138376
30
0
10
144.94100036587656
20
164.28537326442813
30
0
10
145.46867671411613
20
164.14123405468897
30
0
10
145.99664527012018
20
163.97734591834245
30
0
10
146.53673474308746
20
163.78806712374239
30
0
10
147.0985718018768
20
163.5686966570006
30
0
10
147.68542270077126
20
163.31695906348745
30
0
10
148.29237734591746
20
163.03364990320418
30
0
10
148.90921321494909
20
162.72161052827738
30
0
10
149.52217369485791
20
162.38509274991611
30
0
10
150.11620645569064
20
162.0289632498563
30
0
10
150.67688286931588
20
161.65802141929186
30
0
10
151.19272453560194
20
161.27618243788686
30
0
10
151.65650541931768
20
160.88600498609171
30
0
10
152.06403005368264
20
160.48906187914554
30
0
10
152.34353492759456
20
160.16672974069019
30
0
10
152.52678259431514
20
159.9224204542241
30
0
10
152.63723894196409
20
159.75841107063854
30
0
10
152.68953989341912
20
159.67612225758177
30
0
0
SPLINE
5
112
100
AcDbEntity
8
0
100
AcDbSpline
70
4
71
5
72
31
73
25
74
0
42
0.000000001
43
0.0000000001
44
0.0000000001
40
0
40
0
40
0
40
0
40
0
40
0
40
0.050000000000000003
40
0.10000000000000001
40
0.15000000000000002
40
0.20000000000000001
40
0.25
40
0.29999999999999999
40
0.34999999999999998
40
0.39999999999999997
40
0.44999999999999996
40
0.49999999999999994
40
0.54999999999999993
40
0.59999999999999998
40
0.65000000000000002
40
0.70000000000000007
40
0.75000000000000011
40
0.80000000000000016
40
0.8500000000000002
40
0.90000000000000024
40
0.95000000000000029
40
1
40
1
40
1
40
1
40
1
40
1
41
1
41
1
41
1
41
1
41
1
41
1
41
1
41
1
41
1
41
1
41
1
41
1
41
1
41
1
41
1
41
1
41
1
41
1
41
1
41
1
41
1
41
1
41
1
41
1
41
1
10
153.19204389934691
20
153.51664790214164
30
0
10
153.10781559768503
20
153.47833073585346
30
0
10
152.93789759094122
20
153.40396600540586
30
0
10
152.67863419952693
20
153.29922686676059
30
0
10
152.32416004302641
20
153.17325355047868
30
0
10
151.8641910573906
20
153.0381982650423
30
0
10
151.38136467598991
20
152.92394992492726
30
0
10
150.86325434292971
20
152.82656265215655
30
0
10
150.29249877840613
20
152.74021119139553
30
0
10
149.65165185108282
20
152.65889048069371
30
0
10
148.92667333585331
20
152.57759902401406
30
0
10
148.1120824287305
20
152.49405763028795
30
0
10
147.21062126744292
20
152.40862867758796
30
0
10
146.23033049177286
20
152.32338531404969
30
0
10
145.18260611820654
20
152.24147421065106
30
0
10
144.08001450628382
20
152.16638190060701
30
0
10
142.93430312585176
20
152.10124189492842
30
0
10
141.7544412504632
20
152.0481365551444
30
0
10
140.54703532749636
20
152.00833940293248
30
0
10
139.31667153051751
20
151.98251048743055
30
0
10
138.06628266019115
20
151.97088453879439
30
0
10
137.05125766629067
20
151.97292772430845
30
0
10
136.28202322507457
20
151.98078462196995
30
0
10
135.76567435136249
20
151.98882199434365
30
0
10
135.50661843536042
20
151.9935405423484
30
0
0
LINE
5
113
100
AcDbEntity
8
0
100
AcDbLine
10
38.711740882555461
20
151.40949966997263
30
0
11
135.50661843536042
21
151.9935405423484
31
0
0
SPLINE
5
114
100
AcDbEntity
8
0
100
AcDbSpline
70
4
71
5
72
26
73
20
74
0
42
0.000000001
43
0.0000000001
44
0.0000000001
40
0
40
0
40
0
40
0
40
0
40
0
40
0.066666666666666666
40
0.13333333333333333
40
0.20000000000000001
40
0.26666666666666666
40
0.33333333333333331
40
0.39999999999999997
40
0.46666666666666662
40
0.53333333333333333
40
0.59999999999999998
40
0.66666666666666663
40
0.73333333333333328
40
0.79999999999999993
40
0.86666666666666659
40
0.93333333333333324
40
1
40
1
40
1
40
1
40
1
40
1
41
1
41
1
41
1
41
1
41
1
41
1
41
1
41
1
41
1
41
1
41
1
41
1
41
1
41
1
41
1
41
1
41
1
41
1
41
1
41
1
10
2.1441996103121603
20
157.8248577879101
30
0
10
2.3951417788338354
20
157.72210613264721
30
0
10
2.9105833784604558
20
157.5155696537077
30
0
10
3.7244171197278226
20
157.20266632526821
30
0
10
4.8914665532092698
20
156.77921177872182
30
0
10
6.4910713524269426
20
156.24019941841163
30
0
10
8.2379844501482982
20
155.69401353818873
30
0
10
10.140149839139603
20
155.14640601303751
30
0
10
12.206066319376511
20
154.60655385032254
30
0
10
14.444192337632025
20
154.08518752397862
30
0
10
16.861644471740973
20
153.59313795577305
30
0
10
19.462888074080197
20
153.13985785237145
30
0
10
22.24693084221926
20
152.73138640692608
30
0
10
25.208025798405359
20
152.37036665701564
30
0
10
28.338548520554163
20
152.05741116311046
30
0
10
31.630584274375156
20
151.79184855270458
30
0
10
34.388057079370391
20
151.61638043327432
30
0
10
36.523789409736032
20
151.5050961114446
30
0
10
37.977450460648676
20
151.43987106638136
30
0
10
38.711740882555461
20
151.40949966997263
30
0
0
LINE
5
115
100
AcDbEntity
8
0
100
AcDbLine
10
156.22462116607798
20
156.85498278331454
30
0
11
78.11696005686747
21
156.85498278331454
31
0
0
LINE
5
116
100
AcDbEntity
8
0
100
AcDbLine
10
78.11696005686747
20
156.85498278331454
30
0
11
78.11696005686747
21
155.23498278331454
31
0
0
LINE
5
117
100
AcDbEntity
8
0
100
AcDbLine
10
78.11696005686747
20
155.23498278331454
30
0
11
155.99000516767251
21
155.23498278336507
31
0
0
LINE
5
118
100
AcDbEntity
8
0
100
AcDbLine
10
156.22462108259984
20
155.5246818073195
30
0
11
156.22462108259984
21
155.5246818073195
31
0
0
SPLINE
5
119
100
AcDbEntity
8
0
100
AcDbSpline
70
4
71
5
72
25
73
19
74
0
42
0.000000001
43
0.0000000001
44
0.0000000001
40
0
40
0
40
0
40
0
40
0
40
0
40
0.066666666666666666
40
0.13333333333333333
40
0.20000000000000001
40
0.26666666666666666
40
0.33333333333333331
40
0.39999999999999997
40
0.46666666666666662
40
0.53333333333333333
40
0.59999999999999998
40
0.66666666666666663
40
0.73333333333333328
40
0.79999999999999993
40
0.86666666666666659
40
0.87681148277611531
40
0.87681148277611531
40
0.87681148277611531
40
0.87681148277611531
40
0.87681148277611531
40
0.87681148277611531
41
1
41
1
41
1
41
1
41
1
41
1
41
1
41
1
41
1
41
1
41
1
41
1
41
1
41
1
41
1
41
1
41
1
41
1
41
1
10
152.68953989341912
20
159.67612225758177
30
0
10
152.7166163731543
20
159.64287602699579
30
0
10
152.7745919036991
20
159.57640146813489
30
0
10
152.87302339474408
20
159.47674348504552
30
0
10
153.02736436639034
20
159.34397340177719
30
0
10
153.25904441470379
20
159.17790241575926
30
0
10
153.52838533710627
20
159.01082325208034
30
0
10
153.8318820421801
20
158.84095358665095
30
0
10
154.16180188281064
20
158.66517897252294
30
0
10
154.50654628947981
20
158.47921314379971
30
0
10
154.85273799652273
20
158.2782448642275
30
0
10
155.18674812927262
20
158.05747922471545
30
0
10
155.4963049296743
20
157.81271646886606
30
0
10
155.77238262151954
20
157.54110946678838
30
0
10
155.96996210587841
20
157.29237836865363
30
0
10
156.10003028756873
20
157.0896519643135
30
0
10
156.17951386881094
20
156.94483998273202
30
0
10
156.21939975602206
20
156.86549405654216
30
0
10
156.22462116607798
20
156.85498278331454
30
0
0
SPLINE
5
120
100
AcDbEntity
8
0
100
AcDbSpline
70
4
71
5
72
26
73
20
74
0
42
0.000000001
43
0.0000000001
44
0.0000000001
40
0
40
0
40
0
40
0
40
0
40
0
40
0.066666666666666666
40
0.13333333333333333
40
0.20000000000000001
40
0.26666666666666666
40
0.33333333333333331
40
0.39999999999999997
40
0.46666666666666662
40
0.53333333333333333
40
0.59999999999999998
40
0.66666666666666663
40
0.73333333333333328
40
0.79999999999999993
40
0.86666666666666659
40
0.93333333333333324
40
1
40
1
40
1
40
1
40
1
40
1
41
1
41
1
41
1
41
1
41
1
41
1
41
1
41
1
41
1
41
1
41
1
41
1
41
1
41
1
41
1
41
1
41
1
41
1
41
1
41
1
10
155.99000516767251
20
155.23498278336507
30
0
10
155.96886454465422
20
155.21323592497248
30
0
10
155.92538013614205
20
155.17054792949207
30
0
10
155.85654431773958
20
155.1089324865475
30
0
10
155.75790101182716
20
155.03069505089275
30
0
10
155.62500833211104
20
154.93441991558262
30
0
10
155.48450418827576
20
154.83386706874126
30
0
10
155.33779402740768
20
154.72410774744782
30
0
10
155.18478009948763
20
154.60332473404029
30
0
10
155.02378573041287
20
154.47312999967301
30
0
10
154.8522827555029
20
154.33706769755031
30
0
10
154.66742623400273
20
154.19966564955695
30
0
10
154.46662155864186
20
154.06541149947469
30
0
10
154.2482880472588
20
153.93756352135108
30
0
10
154.01191214704423
20
153.81792447075705
30
0
10
153.75754806267457
20
153.70738940987957
30
0
10
153.53995388209566
20
153.6264488958272
30
0
10
153.36899564332646
20
153.56993169317218
30
0
10
153.25159863387211
20
153.53410121110016
30
0
10
153.19204389934691
20
153.51664790214164
30
0
0
ENDSEC
0
SECTION
2
OBJECTS
0
DICTIONARY
5
C
100
AcDbDictionary
3
ACAD_GROUP
350
D
3
ACAD_MLINESTYLE
350
17
0
DICTIONARY
5
D
100
AcDbDictionary
0
DICTIONARY
5
1A
330
C
100
AcDbDictionary
0
DICTIONARY
5
17
100
AcDbDictionary
0
ENDSEC
0
EOF
