%TF.GenerationSoftware,KiCad,Pcbnew,7.0.10*%
%TF.CreationDate,2024-11-15T17:16:00-05:00*%
%TF.ProjectId,plane,706c616e-652e-46b6-9963-61645f706362,rev?*%
%TF.SameCoordinates,Original*%
%TF.FileFunction,Drillmap*%
%TF.FilePolarity,Positive*%
%FSLAX45Y45*%
G04 Gerber Fmt 4.5, Leading zero omitted, Abs format (unit mm)*
G04 Created by KiCad (PCBNEW 7.0.10) date 2024-11-15 17:16:00*
%MOMM*%
%LPD*%
G01*
G04 APERTURE LIST*
%ADD10C,0.200000*%
%ADD11C,0.100000*%
G04 APERTURE END LIST*
D10*
X10819882Y-12324055D02*
X10819903Y-12190717D01*
X9002465Y-16273703D02*
X9207722Y-15548977D01*
X9207722Y-15548977D02*
X8955581Y-15466344D01*
X8718504Y-15319628D02*
X8955581Y-15466344D01*
X8943922Y-15187487D02*
X8718504Y-15319628D01*
X9424710Y-14056897D02*
X9086332Y-14117476D01*
X8890000Y-14243999D02*
X9086332Y-14117476D01*
X8890000Y-14243999D02*
X9088212Y-14382941D01*
X9425343Y-14471385D02*
X9088212Y-14382941D01*
X17097157Y-12880245D02*
X16509629Y-12953892D01*
X17757557Y-12677045D02*
X17097157Y-12880245D01*
X18113157Y-12346845D02*
X18062357Y-12448445D01*
X18062357Y-12448445D02*
X17757557Y-12677045D01*
X18110200Y-12166600D02*
X18113157Y-12346845D01*
X11938000Y-10769600D02*
X12052594Y-10657862D01*
X12137883Y-11433857D02*
X11938000Y-10769600D01*
X12839406Y-9691047D02*
X12052594Y-9600974D01*
X12839406Y-9691047D02*
X12839406Y-10565281D01*
X9002465Y-8244788D02*
X9169400Y-9017000D01*
X8949255Y-9084762D02*
X9169400Y-9017000D01*
X9086332Y-10150111D02*
X9392284Y-10059384D01*
X9086332Y-10150111D02*
X9086332Y-10150111D01*
X8855021Y-10294732D02*
X9086332Y-10401015D01*
X8855021Y-10294732D02*
X9086332Y-10150111D01*
X9424710Y-12959291D02*
X5511800Y-12949106D01*
X18059400Y-12065000D02*
X18110200Y-12166600D01*
X17754600Y-11836400D02*
X18059400Y-12065000D01*
X17094200Y-11633200D02*
X17754600Y-11836400D01*
X16509629Y-11564599D02*
X17094200Y-11633200D01*
X8631209Y-16421905D02*
X9002465Y-16273703D01*
X4691697Y-11504315D02*
X4583109Y-11368683D01*
X3251200Y-12623800D02*
X2840232Y-12453294D01*
X4691695Y-11504317D02*
G75*
G03*
X5052560Y-11621402I280255J249117D01*
G01*
X2728726Y-9639693D02*
X3251200Y-11861800D01*
X16469763Y-12954000D02*
X16490957Y-12953994D01*
X16509629Y-12953892D01*
X8718504Y-9198862D02*
X8949255Y-9300703D01*
X5511800Y-12949106D02*
X5054600Y-12903200D01*
X8188468Y-5869520D02*
X8482041Y-6042994D01*
X11201400Y-9779000D02*
X11502740Y-9665673D01*
X12839406Y-10565281D02*
X12052594Y-10657862D01*
X3357337Y-9639693D02*
X4583109Y-11368683D01*
X2728726Y-14878798D02*
X3251200Y-12623800D01*
X9424710Y-10461593D02*
X9086332Y-10401015D01*
X9424710Y-14056897D02*
X9424710Y-12959291D01*
X12839406Y-13953210D02*
X12052594Y-13860629D01*
X8943922Y-15187487D02*
X9322726Y-15126101D01*
X8335255Y-18730080D02*
X9182612Y-18475496D01*
X2728726Y-14878798D02*
X3357337Y-14878798D01*
X3357337Y-14878798D02*
X4583109Y-13149808D01*
X6106164Y-11559200D02*
X5561418Y-11574031D01*
X8932251Y-16570762D02*
X8631209Y-16421905D01*
X9424710Y-10461593D02*
X9424710Y-11559200D01*
X3251200Y-11861800D02*
X2835529Y-12066544D01*
X12839406Y-14827444D02*
X12839406Y-13953210D01*
X8482041Y-18475496D02*
X8932251Y-16570762D01*
X11226800Y-14732000D02*
X11502740Y-14852818D01*
X8949255Y-9084762D02*
X8718504Y-9198862D01*
X2835529Y-12066544D02*
X2675948Y-12133115D01*
X16469763Y-11564491D02*
X16490957Y-11564497D01*
X16509629Y-11564599D01*
X2618178Y-12340709D02*
X10819882Y-12324055D01*
X2728726Y-9639693D02*
X3357337Y-9639693D01*
X4693737Y-13020287D02*
X4583109Y-13149808D01*
X5054600Y-12903202D02*
G75*
G03*
X4693737Y-13020287I-80610J-366198D01*
G01*
X5561418Y-11574031D02*
X5052560Y-11621402D01*
X9392284Y-10059384D02*
X9322726Y-9392390D01*
X11502740Y-14852818D02*
X12052594Y-14917517D01*
X8932251Y-7947729D02*
X8631209Y-8096586D01*
X11502740Y-9665673D02*
X12052594Y-9600974D01*
X8188468Y-5869520D02*
X8335255Y-5788411D01*
X12052594Y-13860629D02*
X11963400Y-13716000D01*
X2674222Y-12384041D02*
X2840232Y-12453294D01*
X12137883Y-11433857D02*
X12446000Y-11564491D01*
X11963400Y-13716000D02*
X12137883Y-13084633D01*
X8188468Y-18648971D02*
X8335255Y-18730080D01*
X9425343Y-14471385D02*
X9322726Y-15126101D01*
X9182612Y-6042994D02*
X11201400Y-9779000D01*
X12052594Y-14917517D02*
X12839406Y-14827444D01*
X2675948Y-12133115D02*
X2616979Y-12178709D01*
X8482041Y-6042994D02*
X8932251Y-7947729D01*
X9182612Y-18475496D02*
X11226800Y-14732000D01*
X12446000Y-11564491D02*
X16469763Y-11564491D01*
X8949255Y-9300703D02*
X9322726Y-9392390D01*
X12446000Y-12954000D02*
X16469763Y-12954000D01*
X8335255Y-5788411D02*
X9182612Y-6042994D01*
X2618178Y-12340709D02*
X2674222Y-12384041D01*
X2616979Y-12178709D02*
X10819903Y-12190717D01*
X12137883Y-13084633D02*
X12446000Y-12954000D01*
X8631209Y-8096586D02*
X9002465Y-8244788D01*
X9424710Y-11559200D02*
X6106164Y-11559200D01*
X8188468Y-18648971D02*
X8482041Y-18475496D01*
D11*
X3790000Y-11791000D02*
X3830000Y-11831000D01*
X3830000Y-11791000D02*
X3790000Y-11831000D01*
X3790000Y-12680000D02*
X3830000Y-12720000D01*
X3830000Y-12680000D02*
X3790000Y-12720000D01*
X6584000Y-11791000D02*
X6624000Y-11831000D01*
X6624000Y-11791000D02*
X6584000Y-11831000D01*
X6584000Y-12680000D02*
X6624000Y-12720000D01*
X6624000Y-12680000D02*
X6584000Y-12720000D01*
X8870000Y-6330000D02*
X8910000Y-6370000D01*
X8910000Y-6330000D02*
X8870000Y-6370000D01*
X8997000Y-18141000D02*
X9037000Y-18181000D01*
X9037000Y-18141000D02*
X8997000Y-18181000D01*
X9505000Y-15347000D02*
X9545000Y-15387000D01*
X9545000Y-15347000D02*
X9505000Y-15387000D01*
X9886000Y-9378000D02*
X9926000Y-9418000D01*
X9926000Y-9378000D02*
X9886000Y-9418000D01*
X9886000Y-10521000D02*
X9926000Y-10561000D01*
X9926000Y-10521000D02*
X9886000Y-10561000D01*
X9886000Y-13950000D02*
X9926000Y-13990000D01*
X9926000Y-13950000D02*
X9886000Y-13990000D01*
X11537000Y-11537000D02*
X11577000Y-11577000D01*
X11577000Y-11537000D02*
X11537000Y-11577000D01*
X11537000Y-12934000D02*
X11577000Y-12974000D01*
X11577000Y-12934000D02*
X11537000Y-12974000D01*
X13188000Y-11918000D02*
X13228000Y-11958000D01*
X13228000Y-11918000D02*
X13188000Y-11958000D01*
X13188000Y-12553000D02*
X13228000Y-12593000D01*
X13228000Y-12553000D02*
X13188000Y-12593000D01*
X16617000Y-11918000D02*
X16657000Y-11958000D01*
X16657000Y-11918000D02*
X16617000Y-11958000D01*
X16617000Y-12553000D02*
X16657000Y-12593000D01*
X16657000Y-12553000D02*
X16617000Y-12593000D01*
X9936000Y-11557000D02*
G75*
G03*
X9876000Y-11557000I-30000J0D01*
G01*
X9876000Y-11557000D02*
G75*
G03*
X9936000Y-11557000I30000J0D01*
G01*
X9936000Y-12954000D02*
G75*
G03*
X9876000Y-12954000I-30000J0D01*
G01*
X9876000Y-12954000D02*
G75*
G03*
X9936000Y-12954000I30000J0D01*
G01*
X12128500Y-10310500D02*
X12128500Y-10390500D01*
X12088500Y-10350500D02*
X12168500Y-10350500D01*
X12131616Y-9875509D02*
X12131616Y-9955509D01*
X12091616Y-9915509D02*
X12171616Y-9915509D01*
X12150664Y-14554363D02*
X12150664Y-14634363D01*
X12110664Y-14594363D02*
X12190664Y-14594363D01*
X12150679Y-14127338D02*
X12150679Y-14207338D01*
X12110679Y-14167338D02*
X12190679Y-14167338D01*
X12636500Y-10310500D02*
X12636500Y-10390500D01*
X12596500Y-10350500D02*
X12676500Y-10350500D01*
X12639616Y-9875509D02*
X12639616Y-9955509D01*
X12599616Y-9915509D02*
X12679616Y-9915509D01*
X12658664Y-14554363D02*
X12658664Y-14634363D01*
X12618664Y-14594363D02*
X12698664Y-14594363D01*
X12658679Y-14127338D02*
X12658679Y-14207338D01*
X12618679Y-14167338D02*
X12698679Y-14167338D01*
X9531420Y-8014610D02*
X9531420Y-7950969D01*
X9467780Y-7950969D01*
X9467780Y-8014610D01*
X9531420Y-8014610D01*
X9531420Y-8268610D02*
X9531420Y-8204969D01*
X9467780Y-8204969D01*
X9467780Y-8268610D01*
X9531420Y-8268610D01*
X9531420Y-16618020D02*
X9531420Y-16554380D01*
X9467780Y-16554380D01*
X9467780Y-16618020D01*
X9531420Y-16618020D01*
X9531420Y-16872020D02*
X9531420Y-16808380D01*
X9467780Y-16808380D01*
X9467780Y-16872020D01*
X9531420Y-16872020D01*
D10*
X2867755Y-19051564D02*
X2867755Y-18851564D01*
X2867755Y-18851564D02*
X2915374Y-18851564D01*
X2915374Y-18851564D02*
X2943946Y-18861088D01*
X2943946Y-18861088D02*
X2962994Y-18880135D01*
X2962994Y-18880135D02*
X2972517Y-18899183D01*
X2972517Y-18899183D02*
X2982041Y-18937278D01*
X2982041Y-18937278D02*
X2982041Y-18965849D01*
X2982041Y-18965849D02*
X2972517Y-19003945D01*
X2972517Y-19003945D02*
X2962994Y-19022992D01*
X2962994Y-19022992D02*
X2943946Y-19042040D01*
X2943946Y-19042040D02*
X2915374Y-19051564D01*
X2915374Y-19051564D02*
X2867755Y-19051564D01*
X3067755Y-19051564D02*
X3067755Y-18918230D01*
X3067755Y-18956326D02*
X3077279Y-18937278D01*
X3077279Y-18937278D02*
X3086803Y-18927754D01*
X3086803Y-18927754D02*
X3105851Y-18918230D01*
X3105851Y-18918230D02*
X3124898Y-18918230D01*
X3191565Y-19051564D02*
X3191565Y-18918230D01*
X3191565Y-18851564D02*
X3182041Y-18861088D01*
X3182041Y-18861088D02*
X3191565Y-18870611D01*
X3191565Y-18870611D02*
X3201089Y-18861088D01*
X3201089Y-18861088D02*
X3191565Y-18851564D01*
X3191565Y-18851564D02*
X3191565Y-18870611D01*
X3315374Y-19051564D02*
X3296327Y-19042040D01*
X3296327Y-19042040D02*
X3286803Y-19022992D01*
X3286803Y-19022992D02*
X3286803Y-18851564D01*
X3420136Y-19051564D02*
X3401089Y-19042040D01*
X3401089Y-19042040D02*
X3391565Y-19022992D01*
X3391565Y-19022992D02*
X3391565Y-18851564D01*
X3648708Y-19051564D02*
X3648708Y-18851564D01*
X3648708Y-18851564D02*
X3715375Y-18994421D01*
X3715375Y-18994421D02*
X3782041Y-18851564D01*
X3782041Y-18851564D02*
X3782041Y-19051564D01*
X3962994Y-19051564D02*
X3962994Y-18946802D01*
X3962994Y-18946802D02*
X3953470Y-18927754D01*
X3953470Y-18927754D02*
X3934422Y-18918230D01*
X3934422Y-18918230D02*
X3896327Y-18918230D01*
X3896327Y-18918230D02*
X3877279Y-18927754D01*
X3962994Y-19042040D02*
X3943946Y-19051564D01*
X3943946Y-19051564D02*
X3896327Y-19051564D01*
X3896327Y-19051564D02*
X3877279Y-19042040D01*
X3877279Y-19042040D02*
X3867755Y-19022992D01*
X3867755Y-19022992D02*
X3867755Y-19003945D01*
X3867755Y-19003945D02*
X3877279Y-18984897D01*
X3877279Y-18984897D02*
X3896327Y-18975373D01*
X3896327Y-18975373D02*
X3943946Y-18975373D01*
X3943946Y-18975373D02*
X3962994Y-18965849D01*
X4058232Y-18918230D02*
X4058232Y-19118230D01*
X4058232Y-18927754D02*
X4077279Y-18918230D01*
X4077279Y-18918230D02*
X4115375Y-18918230D01*
X4115375Y-18918230D02*
X4134422Y-18927754D01*
X4134422Y-18927754D02*
X4143946Y-18937278D01*
X4143946Y-18937278D02*
X4153470Y-18956326D01*
X4153470Y-18956326D02*
X4153470Y-19013468D01*
X4153470Y-19013468D02*
X4143946Y-19032516D01*
X4143946Y-19032516D02*
X4134422Y-19042040D01*
X4134422Y-19042040D02*
X4115375Y-19051564D01*
X4115375Y-19051564D02*
X4077279Y-19051564D01*
X4077279Y-19051564D02*
X4058232Y-19042040D01*
X4239184Y-19032516D02*
X4248708Y-19042040D01*
X4248708Y-19042040D02*
X4239184Y-19051564D01*
X4239184Y-19051564D02*
X4229660Y-19042040D01*
X4229660Y-19042040D02*
X4239184Y-19032516D01*
X4239184Y-19032516D02*
X4239184Y-19051564D01*
X4239184Y-18927754D02*
X4248708Y-18937278D01*
X4248708Y-18937278D02*
X4239184Y-18946802D01*
X4239184Y-18946802D02*
X4229660Y-18937278D01*
X4229660Y-18937278D02*
X4239184Y-18927754D01*
X4239184Y-18927754D02*
X4239184Y-18946802D01*
D11*
X2566979Y-19360080D02*
X2606979Y-19400080D01*
X2606979Y-19360080D02*
X2566979Y-19400080D01*
D10*
X2905851Y-19271564D02*
X2924898Y-19271564D01*
X2924898Y-19271564D02*
X2943946Y-19281088D01*
X2943946Y-19281088D02*
X2953470Y-19290611D01*
X2953470Y-19290611D02*
X2962994Y-19309659D01*
X2962994Y-19309659D02*
X2972517Y-19347754D01*
X2972517Y-19347754D02*
X2972517Y-19395373D01*
X2972517Y-19395373D02*
X2962994Y-19433468D01*
X2962994Y-19433468D02*
X2953470Y-19452516D01*
X2953470Y-19452516D02*
X2943946Y-19462040D01*
X2943946Y-19462040D02*
X2924898Y-19471564D01*
X2924898Y-19471564D02*
X2905851Y-19471564D01*
X2905851Y-19471564D02*
X2886803Y-19462040D01*
X2886803Y-19462040D02*
X2877279Y-19452516D01*
X2877279Y-19452516D02*
X2867755Y-19433468D01*
X2867755Y-19433468D02*
X2858232Y-19395373D01*
X2858232Y-19395373D02*
X2858232Y-19347754D01*
X2858232Y-19347754D02*
X2867755Y-19309659D01*
X2867755Y-19309659D02*
X2877279Y-19290611D01*
X2877279Y-19290611D02*
X2886803Y-19281088D01*
X2886803Y-19281088D02*
X2905851Y-19271564D01*
X3058232Y-19452516D02*
X3067755Y-19462040D01*
X3067755Y-19462040D02*
X3058232Y-19471564D01*
X3058232Y-19471564D02*
X3048708Y-19462040D01*
X3048708Y-19462040D02*
X3058232Y-19452516D01*
X3058232Y-19452516D02*
X3058232Y-19471564D01*
X3239184Y-19338230D02*
X3239184Y-19471564D01*
X3191565Y-19262040D02*
X3143946Y-19404897D01*
X3143946Y-19404897D02*
X3267755Y-19404897D01*
X3382041Y-19271564D02*
X3401089Y-19271564D01*
X3401089Y-19271564D02*
X3420136Y-19281088D01*
X3420136Y-19281088D02*
X3429660Y-19290611D01*
X3429660Y-19290611D02*
X3439184Y-19309659D01*
X3439184Y-19309659D02*
X3448708Y-19347754D01*
X3448708Y-19347754D02*
X3448708Y-19395373D01*
X3448708Y-19395373D02*
X3439184Y-19433468D01*
X3439184Y-19433468D02*
X3429660Y-19452516D01*
X3429660Y-19452516D02*
X3420136Y-19462040D01*
X3420136Y-19462040D02*
X3401089Y-19471564D01*
X3401089Y-19471564D02*
X3382041Y-19471564D01*
X3382041Y-19471564D02*
X3362994Y-19462040D01*
X3362994Y-19462040D02*
X3353470Y-19452516D01*
X3353470Y-19452516D02*
X3343946Y-19433468D01*
X3343946Y-19433468D02*
X3334422Y-19395373D01*
X3334422Y-19395373D02*
X3334422Y-19347754D01*
X3334422Y-19347754D02*
X3343946Y-19309659D01*
X3343946Y-19309659D02*
X3353470Y-19290611D01*
X3353470Y-19290611D02*
X3362994Y-19281088D01*
X3362994Y-19281088D02*
X3382041Y-19271564D01*
X3572517Y-19271564D02*
X3591565Y-19271564D01*
X3591565Y-19271564D02*
X3610613Y-19281088D01*
X3610613Y-19281088D02*
X3620136Y-19290611D01*
X3620136Y-19290611D02*
X3629660Y-19309659D01*
X3629660Y-19309659D02*
X3639184Y-19347754D01*
X3639184Y-19347754D02*
X3639184Y-19395373D01*
X3639184Y-19395373D02*
X3629660Y-19433468D01*
X3629660Y-19433468D02*
X3620136Y-19452516D01*
X3620136Y-19452516D02*
X3610613Y-19462040D01*
X3610613Y-19462040D02*
X3591565Y-19471564D01*
X3591565Y-19471564D02*
X3572517Y-19471564D01*
X3572517Y-19471564D02*
X3553470Y-19462040D01*
X3553470Y-19462040D02*
X3543946Y-19452516D01*
X3543946Y-19452516D02*
X3534422Y-19433468D01*
X3534422Y-19433468D02*
X3524898Y-19395373D01*
X3524898Y-19395373D02*
X3524898Y-19347754D01*
X3524898Y-19347754D02*
X3534422Y-19309659D01*
X3534422Y-19309659D02*
X3543946Y-19290611D01*
X3543946Y-19290611D02*
X3553470Y-19281088D01*
X3553470Y-19281088D02*
X3572517Y-19271564D01*
X3724898Y-19471564D02*
X3724898Y-19338230D01*
X3724898Y-19357278D02*
X3734422Y-19347754D01*
X3734422Y-19347754D02*
X3753470Y-19338230D01*
X3753470Y-19338230D02*
X3782041Y-19338230D01*
X3782041Y-19338230D02*
X3801089Y-19347754D01*
X3801089Y-19347754D02*
X3810613Y-19366802D01*
X3810613Y-19366802D02*
X3810613Y-19471564D01*
X3810613Y-19366802D02*
X3820136Y-19347754D01*
X3820136Y-19347754D02*
X3839184Y-19338230D01*
X3839184Y-19338230D02*
X3867755Y-19338230D01*
X3867755Y-19338230D02*
X3886803Y-19347754D01*
X3886803Y-19347754D02*
X3896327Y-19366802D01*
X3896327Y-19366802D02*
X3896327Y-19471564D01*
X3991565Y-19471564D02*
X3991565Y-19338230D01*
X3991565Y-19357278D02*
X4001089Y-19347754D01*
X4001089Y-19347754D02*
X4020136Y-19338230D01*
X4020136Y-19338230D02*
X4048708Y-19338230D01*
X4048708Y-19338230D02*
X4067756Y-19347754D01*
X4067756Y-19347754D02*
X4077279Y-19366802D01*
X4077279Y-19366802D02*
X4077279Y-19471564D01*
X4077279Y-19366802D02*
X4086803Y-19347754D01*
X4086803Y-19347754D02*
X4105851Y-19338230D01*
X4105851Y-19338230D02*
X4134422Y-19338230D01*
X4134422Y-19338230D02*
X4153470Y-19347754D01*
X4153470Y-19347754D02*
X4162994Y-19366802D01*
X4162994Y-19366802D02*
X4162994Y-19471564D01*
X4553470Y-19262040D02*
X4382041Y-19519183D01*
X4810613Y-19271564D02*
X4829661Y-19271564D01*
X4829661Y-19271564D02*
X4848708Y-19281088D01*
X4848708Y-19281088D02*
X4858232Y-19290611D01*
X4858232Y-19290611D02*
X4867756Y-19309659D01*
X4867756Y-19309659D02*
X4877280Y-19347754D01*
X4877280Y-19347754D02*
X4877280Y-19395373D01*
X4877280Y-19395373D02*
X4867756Y-19433468D01*
X4867756Y-19433468D02*
X4858232Y-19452516D01*
X4858232Y-19452516D02*
X4848708Y-19462040D01*
X4848708Y-19462040D02*
X4829661Y-19471564D01*
X4829661Y-19471564D02*
X4810613Y-19471564D01*
X4810613Y-19471564D02*
X4791565Y-19462040D01*
X4791565Y-19462040D02*
X4782041Y-19452516D01*
X4782041Y-19452516D02*
X4772518Y-19433468D01*
X4772518Y-19433468D02*
X4762994Y-19395373D01*
X4762994Y-19395373D02*
X4762994Y-19347754D01*
X4762994Y-19347754D02*
X4772518Y-19309659D01*
X4772518Y-19309659D02*
X4782041Y-19290611D01*
X4782041Y-19290611D02*
X4791565Y-19281088D01*
X4791565Y-19281088D02*
X4810613Y-19271564D01*
X4962994Y-19452516D02*
X4972518Y-19462040D01*
X4972518Y-19462040D02*
X4962994Y-19471564D01*
X4962994Y-19471564D02*
X4953470Y-19462040D01*
X4953470Y-19462040D02*
X4962994Y-19452516D01*
X4962994Y-19452516D02*
X4962994Y-19471564D01*
X5096327Y-19271564D02*
X5115375Y-19271564D01*
X5115375Y-19271564D02*
X5134422Y-19281088D01*
X5134422Y-19281088D02*
X5143946Y-19290611D01*
X5143946Y-19290611D02*
X5153470Y-19309659D01*
X5153470Y-19309659D02*
X5162994Y-19347754D01*
X5162994Y-19347754D02*
X5162994Y-19395373D01*
X5162994Y-19395373D02*
X5153470Y-19433468D01*
X5153470Y-19433468D02*
X5143946Y-19452516D01*
X5143946Y-19452516D02*
X5134422Y-19462040D01*
X5134422Y-19462040D02*
X5115375Y-19471564D01*
X5115375Y-19471564D02*
X5096327Y-19471564D01*
X5096327Y-19471564D02*
X5077280Y-19462040D01*
X5077280Y-19462040D02*
X5067756Y-19452516D01*
X5067756Y-19452516D02*
X5058232Y-19433468D01*
X5058232Y-19433468D02*
X5048708Y-19395373D01*
X5048708Y-19395373D02*
X5048708Y-19347754D01*
X5048708Y-19347754D02*
X5058232Y-19309659D01*
X5058232Y-19309659D02*
X5067756Y-19290611D01*
X5067756Y-19290611D02*
X5077280Y-19281088D01*
X5077280Y-19281088D02*
X5096327Y-19271564D01*
X5353470Y-19471564D02*
X5239184Y-19471564D01*
X5296327Y-19471564D02*
X5296327Y-19271564D01*
X5296327Y-19271564D02*
X5277280Y-19300135D01*
X5277280Y-19300135D02*
X5258232Y-19319183D01*
X5258232Y-19319183D02*
X5239184Y-19328707D01*
X5534422Y-19271564D02*
X5439184Y-19271564D01*
X5439184Y-19271564D02*
X5429661Y-19366802D01*
X5429661Y-19366802D02*
X5439184Y-19357278D01*
X5439184Y-19357278D02*
X5458232Y-19347754D01*
X5458232Y-19347754D02*
X5505851Y-19347754D01*
X5505851Y-19347754D02*
X5524899Y-19357278D01*
X5524899Y-19357278D02*
X5534422Y-19366802D01*
X5534422Y-19366802D02*
X5543946Y-19385849D01*
X5543946Y-19385849D02*
X5543946Y-19433468D01*
X5543946Y-19433468D02*
X5534422Y-19452516D01*
X5534422Y-19452516D02*
X5524899Y-19462040D01*
X5524899Y-19462040D02*
X5505851Y-19471564D01*
X5505851Y-19471564D02*
X5458232Y-19471564D01*
X5458232Y-19471564D02*
X5439184Y-19462040D01*
X5439184Y-19462040D02*
X5429661Y-19452516D01*
X5610613Y-19271564D02*
X5743946Y-19271564D01*
X5743946Y-19271564D02*
X5658232Y-19471564D01*
X5810613Y-19271564D02*
X5810613Y-19309659D01*
X5886803Y-19271564D02*
X5886803Y-19309659D01*
X6182042Y-19547754D02*
X6172518Y-19538230D01*
X6172518Y-19538230D02*
X6153470Y-19509659D01*
X6153470Y-19509659D02*
X6143946Y-19490611D01*
X6143946Y-19490611D02*
X6134422Y-19462040D01*
X6134422Y-19462040D02*
X6124899Y-19414421D01*
X6124899Y-19414421D02*
X6124899Y-19376326D01*
X6124899Y-19376326D02*
X6134422Y-19328707D01*
X6134422Y-19328707D02*
X6143946Y-19300135D01*
X6143946Y-19300135D02*
X6153470Y-19281088D01*
X6153470Y-19281088D02*
X6172518Y-19252516D01*
X6172518Y-19252516D02*
X6182042Y-19242992D01*
X6362994Y-19471564D02*
X6248708Y-19471564D01*
X6305851Y-19471564D02*
X6305851Y-19271564D01*
X6305851Y-19271564D02*
X6286803Y-19300135D01*
X6286803Y-19300135D02*
X6267756Y-19319183D01*
X6267756Y-19319183D02*
X6248708Y-19328707D01*
X6534422Y-19271564D02*
X6496327Y-19271564D01*
X6496327Y-19271564D02*
X6477280Y-19281088D01*
X6477280Y-19281088D02*
X6467756Y-19290611D01*
X6467756Y-19290611D02*
X6448708Y-19319183D01*
X6448708Y-19319183D02*
X6439184Y-19357278D01*
X6439184Y-19357278D02*
X6439184Y-19433468D01*
X6439184Y-19433468D02*
X6448708Y-19452516D01*
X6448708Y-19452516D02*
X6458232Y-19462040D01*
X6458232Y-19462040D02*
X6477280Y-19471564D01*
X6477280Y-19471564D02*
X6515375Y-19471564D01*
X6515375Y-19471564D02*
X6534422Y-19462040D01*
X6534422Y-19462040D02*
X6543946Y-19452516D01*
X6543946Y-19452516D02*
X6553470Y-19433468D01*
X6553470Y-19433468D02*
X6553470Y-19385849D01*
X6553470Y-19385849D02*
X6543946Y-19366802D01*
X6543946Y-19366802D02*
X6534422Y-19357278D01*
X6534422Y-19357278D02*
X6515375Y-19347754D01*
X6515375Y-19347754D02*
X6477280Y-19347754D01*
X6477280Y-19347754D02*
X6458232Y-19357278D01*
X6458232Y-19357278D02*
X6448708Y-19366802D01*
X6448708Y-19366802D02*
X6439184Y-19385849D01*
X6791565Y-19471564D02*
X6791565Y-19271564D01*
X6877280Y-19471564D02*
X6877280Y-19366802D01*
X6877280Y-19366802D02*
X6867756Y-19347754D01*
X6867756Y-19347754D02*
X6848708Y-19338230D01*
X6848708Y-19338230D02*
X6820137Y-19338230D01*
X6820137Y-19338230D02*
X6801089Y-19347754D01*
X6801089Y-19347754D02*
X6791565Y-19357278D01*
X7001089Y-19471564D02*
X6982042Y-19462040D01*
X6982042Y-19462040D02*
X6972518Y-19452516D01*
X6972518Y-19452516D02*
X6962994Y-19433468D01*
X6962994Y-19433468D02*
X6962994Y-19376326D01*
X6962994Y-19376326D02*
X6972518Y-19357278D01*
X6972518Y-19357278D02*
X6982042Y-19347754D01*
X6982042Y-19347754D02*
X7001089Y-19338230D01*
X7001089Y-19338230D02*
X7029661Y-19338230D01*
X7029661Y-19338230D02*
X7048708Y-19347754D01*
X7048708Y-19347754D02*
X7058232Y-19357278D01*
X7058232Y-19357278D02*
X7067756Y-19376326D01*
X7067756Y-19376326D02*
X7067756Y-19433468D01*
X7067756Y-19433468D02*
X7058232Y-19452516D01*
X7058232Y-19452516D02*
X7048708Y-19462040D01*
X7048708Y-19462040D02*
X7029661Y-19471564D01*
X7029661Y-19471564D02*
X7001089Y-19471564D01*
X7182042Y-19471564D02*
X7162994Y-19462040D01*
X7162994Y-19462040D02*
X7153470Y-19442992D01*
X7153470Y-19442992D02*
X7153470Y-19271564D01*
X7334423Y-19462040D02*
X7315375Y-19471564D01*
X7315375Y-19471564D02*
X7277280Y-19471564D01*
X7277280Y-19471564D02*
X7258232Y-19462040D01*
X7258232Y-19462040D02*
X7248708Y-19442992D01*
X7248708Y-19442992D02*
X7248708Y-19366802D01*
X7248708Y-19366802D02*
X7258232Y-19347754D01*
X7258232Y-19347754D02*
X7277280Y-19338230D01*
X7277280Y-19338230D02*
X7315375Y-19338230D01*
X7315375Y-19338230D02*
X7334423Y-19347754D01*
X7334423Y-19347754D02*
X7343946Y-19366802D01*
X7343946Y-19366802D02*
X7343946Y-19385849D01*
X7343946Y-19385849D02*
X7248708Y-19404897D01*
X7420137Y-19462040D02*
X7439184Y-19471564D01*
X7439184Y-19471564D02*
X7477280Y-19471564D01*
X7477280Y-19471564D02*
X7496327Y-19462040D01*
X7496327Y-19462040D02*
X7505851Y-19442992D01*
X7505851Y-19442992D02*
X7505851Y-19433468D01*
X7505851Y-19433468D02*
X7496327Y-19414421D01*
X7496327Y-19414421D02*
X7477280Y-19404897D01*
X7477280Y-19404897D02*
X7448708Y-19404897D01*
X7448708Y-19404897D02*
X7429661Y-19395373D01*
X7429661Y-19395373D02*
X7420137Y-19376326D01*
X7420137Y-19376326D02*
X7420137Y-19366802D01*
X7420137Y-19366802D02*
X7429661Y-19347754D01*
X7429661Y-19347754D02*
X7448708Y-19338230D01*
X7448708Y-19338230D02*
X7477280Y-19338230D01*
X7477280Y-19338230D02*
X7496327Y-19347754D01*
X7572518Y-19547754D02*
X7582042Y-19538230D01*
X7582042Y-19538230D02*
X7601089Y-19509659D01*
X7601089Y-19509659D02*
X7610613Y-19490611D01*
X7610613Y-19490611D02*
X7620137Y-19462040D01*
X7620137Y-19462040D02*
X7629661Y-19414421D01*
X7629661Y-19414421D02*
X7629661Y-19376326D01*
X7629661Y-19376326D02*
X7620137Y-19328707D01*
X7620137Y-19328707D02*
X7610613Y-19300135D01*
X7610613Y-19300135D02*
X7601089Y-19281088D01*
X7601089Y-19281088D02*
X7582042Y-19252516D01*
X7582042Y-19252516D02*
X7572518Y-19242992D01*
D11*
X2606979Y-19644080D02*
G75*
G03*
X2546979Y-19644080I-30000J0D01*
G01*
X2546979Y-19644080D02*
G75*
G03*
X2606979Y-19644080I30000J0D01*
G01*
D10*
X2905851Y-19535564D02*
X2924898Y-19535564D01*
X2924898Y-19535564D02*
X2943946Y-19545088D01*
X2943946Y-19545088D02*
X2953470Y-19554611D01*
X2953470Y-19554611D02*
X2962994Y-19573659D01*
X2962994Y-19573659D02*
X2972517Y-19611754D01*
X2972517Y-19611754D02*
X2972517Y-19659373D01*
X2972517Y-19659373D02*
X2962994Y-19697468D01*
X2962994Y-19697468D02*
X2953470Y-19716516D01*
X2953470Y-19716516D02*
X2943946Y-19726040D01*
X2943946Y-19726040D02*
X2924898Y-19735564D01*
X2924898Y-19735564D02*
X2905851Y-19735564D01*
X2905851Y-19735564D02*
X2886803Y-19726040D01*
X2886803Y-19726040D02*
X2877279Y-19716516D01*
X2877279Y-19716516D02*
X2867755Y-19697468D01*
X2867755Y-19697468D02*
X2858232Y-19659373D01*
X2858232Y-19659373D02*
X2858232Y-19611754D01*
X2858232Y-19611754D02*
X2867755Y-19573659D01*
X2867755Y-19573659D02*
X2877279Y-19554611D01*
X2877279Y-19554611D02*
X2886803Y-19545088D01*
X2886803Y-19545088D02*
X2905851Y-19535564D01*
X3058232Y-19716516D02*
X3067755Y-19726040D01*
X3067755Y-19726040D02*
X3058232Y-19735564D01*
X3058232Y-19735564D02*
X3048708Y-19726040D01*
X3048708Y-19726040D02*
X3058232Y-19716516D01*
X3058232Y-19716516D02*
X3058232Y-19735564D01*
X3239184Y-19535564D02*
X3201089Y-19535564D01*
X3201089Y-19535564D02*
X3182041Y-19545088D01*
X3182041Y-19545088D02*
X3172517Y-19554611D01*
X3172517Y-19554611D02*
X3153470Y-19583183D01*
X3153470Y-19583183D02*
X3143946Y-19621278D01*
X3143946Y-19621278D02*
X3143946Y-19697468D01*
X3143946Y-19697468D02*
X3153470Y-19716516D01*
X3153470Y-19716516D02*
X3162994Y-19726040D01*
X3162994Y-19726040D02*
X3182041Y-19735564D01*
X3182041Y-19735564D02*
X3220136Y-19735564D01*
X3220136Y-19735564D02*
X3239184Y-19726040D01*
X3239184Y-19726040D02*
X3248708Y-19716516D01*
X3248708Y-19716516D02*
X3258232Y-19697468D01*
X3258232Y-19697468D02*
X3258232Y-19649849D01*
X3258232Y-19649849D02*
X3248708Y-19630802D01*
X3248708Y-19630802D02*
X3239184Y-19621278D01*
X3239184Y-19621278D02*
X3220136Y-19611754D01*
X3220136Y-19611754D02*
X3182041Y-19611754D01*
X3182041Y-19611754D02*
X3162994Y-19621278D01*
X3162994Y-19621278D02*
X3153470Y-19630802D01*
X3153470Y-19630802D02*
X3143946Y-19649849D01*
X3382041Y-19535564D02*
X3401089Y-19535564D01*
X3401089Y-19535564D02*
X3420136Y-19545088D01*
X3420136Y-19545088D02*
X3429660Y-19554611D01*
X3429660Y-19554611D02*
X3439184Y-19573659D01*
X3439184Y-19573659D02*
X3448708Y-19611754D01*
X3448708Y-19611754D02*
X3448708Y-19659373D01*
X3448708Y-19659373D02*
X3439184Y-19697468D01*
X3439184Y-19697468D02*
X3429660Y-19716516D01*
X3429660Y-19716516D02*
X3420136Y-19726040D01*
X3420136Y-19726040D02*
X3401089Y-19735564D01*
X3401089Y-19735564D02*
X3382041Y-19735564D01*
X3382041Y-19735564D02*
X3362994Y-19726040D01*
X3362994Y-19726040D02*
X3353470Y-19716516D01*
X3353470Y-19716516D02*
X3343946Y-19697468D01*
X3343946Y-19697468D02*
X3334422Y-19659373D01*
X3334422Y-19659373D02*
X3334422Y-19611754D01*
X3334422Y-19611754D02*
X3343946Y-19573659D01*
X3343946Y-19573659D02*
X3353470Y-19554611D01*
X3353470Y-19554611D02*
X3362994Y-19545088D01*
X3362994Y-19545088D02*
X3382041Y-19535564D01*
X3572517Y-19535564D02*
X3591565Y-19535564D01*
X3591565Y-19535564D02*
X3610613Y-19545088D01*
X3610613Y-19545088D02*
X3620136Y-19554611D01*
X3620136Y-19554611D02*
X3629660Y-19573659D01*
X3629660Y-19573659D02*
X3639184Y-19611754D01*
X3639184Y-19611754D02*
X3639184Y-19659373D01*
X3639184Y-19659373D02*
X3629660Y-19697468D01*
X3629660Y-19697468D02*
X3620136Y-19716516D01*
X3620136Y-19716516D02*
X3610613Y-19726040D01*
X3610613Y-19726040D02*
X3591565Y-19735564D01*
X3591565Y-19735564D02*
X3572517Y-19735564D01*
X3572517Y-19735564D02*
X3553470Y-19726040D01*
X3553470Y-19726040D02*
X3543946Y-19716516D01*
X3543946Y-19716516D02*
X3534422Y-19697468D01*
X3534422Y-19697468D02*
X3524898Y-19659373D01*
X3524898Y-19659373D02*
X3524898Y-19611754D01*
X3524898Y-19611754D02*
X3534422Y-19573659D01*
X3534422Y-19573659D02*
X3543946Y-19554611D01*
X3543946Y-19554611D02*
X3553470Y-19545088D01*
X3553470Y-19545088D02*
X3572517Y-19535564D01*
X3724898Y-19735564D02*
X3724898Y-19602230D01*
X3724898Y-19621278D02*
X3734422Y-19611754D01*
X3734422Y-19611754D02*
X3753470Y-19602230D01*
X3753470Y-19602230D02*
X3782041Y-19602230D01*
X3782041Y-19602230D02*
X3801089Y-19611754D01*
X3801089Y-19611754D02*
X3810613Y-19630802D01*
X3810613Y-19630802D02*
X3810613Y-19735564D01*
X3810613Y-19630802D02*
X3820136Y-19611754D01*
X3820136Y-19611754D02*
X3839184Y-19602230D01*
X3839184Y-19602230D02*
X3867755Y-19602230D01*
X3867755Y-19602230D02*
X3886803Y-19611754D01*
X3886803Y-19611754D02*
X3896327Y-19630802D01*
X3896327Y-19630802D02*
X3896327Y-19735564D01*
X3991565Y-19735564D02*
X3991565Y-19602230D01*
X3991565Y-19621278D02*
X4001089Y-19611754D01*
X4001089Y-19611754D02*
X4020136Y-19602230D01*
X4020136Y-19602230D02*
X4048708Y-19602230D01*
X4048708Y-19602230D02*
X4067756Y-19611754D01*
X4067756Y-19611754D02*
X4077279Y-19630802D01*
X4077279Y-19630802D02*
X4077279Y-19735564D01*
X4077279Y-19630802D02*
X4086803Y-19611754D01*
X4086803Y-19611754D02*
X4105851Y-19602230D01*
X4105851Y-19602230D02*
X4134422Y-19602230D01*
X4134422Y-19602230D02*
X4153470Y-19611754D01*
X4153470Y-19611754D02*
X4162994Y-19630802D01*
X4162994Y-19630802D02*
X4162994Y-19735564D01*
X4553470Y-19526040D02*
X4382041Y-19783183D01*
X4810613Y-19535564D02*
X4829661Y-19535564D01*
X4829661Y-19535564D02*
X4848708Y-19545088D01*
X4848708Y-19545088D02*
X4858232Y-19554611D01*
X4858232Y-19554611D02*
X4867756Y-19573659D01*
X4867756Y-19573659D02*
X4877280Y-19611754D01*
X4877280Y-19611754D02*
X4877280Y-19659373D01*
X4877280Y-19659373D02*
X4867756Y-19697468D01*
X4867756Y-19697468D02*
X4858232Y-19716516D01*
X4858232Y-19716516D02*
X4848708Y-19726040D01*
X4848708Y-19726040D02*
X4829661Y-19735564D01*
X4829661Y-19735564D02*
X4810613Y-19735564D01*
X4810613Y-19735564D02*
X4791565Y-19726040D01*
X4791565Y-19726040D02*
X4782041Y-19716516D01*
X4782041Y-19716516D02*
X4772518Y-19697468D01*
X4772518Y-19697468D02*
X4762994Y-19659373D01*
X4762994Y-19659373D02*
X4762994Y-19611754D01*
X4762994Y-19611754D02*
X4772518Y-19573659D01*
X4772518Y-19573659D02*
X4782041Y-19554611D01*
X4782041Y-19554611D02*
X4791565Y-19545088D01*
X4791565Y-19545088D02*
X4810613Y-19535564D01*
X4962994Y-19716516D02*
X4972518Y-19726040D01*
X4972518Y-19726040D02*
X4962994Y-19735564D01*
X4962994Y-19735564D02*
X4953470Y-19726040D01*
X4953470Y-19726040D02*
X4962994Y-19716516D01*
X4962994Y-19716516D02*
X4962994Y-19735564D01*
X5096327Y-19535564D02*
X5115375Y-19535564D01*
X5115375Y-19535564D02*
X5134422Y-19545088D01*
X5134422Y-19545088D02*
X5143946Y-19554611D01*
X5143946Y-19554611D02*
X5153470Y-19573659D01*
X5153470Y-19573659D02*
X5162994Y-19611754D01*
X5162994Y-19611754D02*
X5162994Y-19659373D01*
X5162994Y-19659373D02*
X5153470Y-19697468D01*
X5153470Y-19697468D02*
X5143946Y-19716516D01*
X5143946Y-19716516D02*
X5134422Y-19726040D01*
X5134422Y-19726040D02*
X5115375Y-19735564D01*
X5115375Y-19735564D02*
X5096327Y-19735564D01*
X5096327Y-19735564D02*
X5077280Y-19726040D01*
X5077280Y-19726040D02*
X5067756Y-19716516D01*
X5067756Y-19716516D02*
X5058232Y-19697468D01*
X5058232Y-19697468D02*
X5048708Y-19659373D01*
X5048708Y-19659373D02*
X5048708Y-19611754D01*
X5048708Y-19611754D02*
X5058232Y-19573659D01*
X5058232Y-19573659D02*
X5067756Y-19554611D01*
X5067756Y-19554611D02*
X5077280Y-19545088D01*
X5077280Y-19545088D02*
X5096327Y-19535564D01*
X5239184Y-19554611D02*
X5248708Y-19545088D01*
X5248708Y-19545088D02*
X5267756Y-19535564D01*
X5267756Y-19535564D02*
X5315375Y-19535564D01*
X5315375Y-19535564D02*
X5334422Y-19545088D01*
X5334422Y-19545088D02*
X5343946Y-19554611D01*
X5343946Y-19554611D02*
X5353470Y-19573659D01*
X5353470Y-19573659D02*
X5353470Y-19592707D01*
X5353470Y-19592707D02*
X5343946Y-19621278D01*
X5343946Y-19621278D02*
X5229661Y-19735564D01*
X5229661Y-19735564D02*
X5353470Y-19735564D01*
X5420137Y-19535564D02*
X5543946Y-19535564D01*
X5543946Y-19535564D02*
X5477280Y-19611754D01*
X5477280Y-19611754D02*
X5505851Y-19611754D01*
X5505851Y-19611754D02*
X5524899Y-19621278D01*
X5524899Y-19621278D02*
X5534422Y-19630802D01*
X5534422Y-19630802D02*
X5543946Y-19649849D01*
X5543946Y-19649849D02*
X5543946Y-19697468D01*
X5543946Y-19697468D02*
X5534422Y-19716516D01*
X5534422Y-19716516D02*
X5524899Y-19726040D01*
X5524899Y-19726040D02*
X5505851Y-19735564D01*
X5505851Y-19735564D02*
X5448708Y-19735564D01*
X5448708Y-19735564D02*
X5429661Y-19726040D01*
X5429661Y-19726040D02*
X5420137Y-19716516D01*
X5715375Y-19535564D02*
X5677279Y-19535564D01*
X5677279Y-19535564D02*
X5658232Y-19545088D01*
X5658232Y-19545088D02*
X5648708Y-19554611D01*
X5648708Y-19554611D02*
X5629660Y-19583183D01*
X5629660Y-19583183D02*
X5620137Y-19621278D01*
X5620137Y-19621278D02*
X5620137Y-19697468D01*
X5620137Y-19697468D02*
X5629660Y-19716516D01*
X5629660Y-19716516D02*
X5639184Y-19726040D01*
X5639184Y-19726040D02*
X5658232Y-19735564D01*
X5658232Y-19735564D02*
X5696327Y-19735564D01*
X5696327Y-19735564D02*
X5715375Y-19726040D01*
X5715375Y-19726040D02*
X5724899Y-19716516D01*
X5724899Y-19716516D02*
X5734422Y-19697468D01*
X5734422Y-19697468D02*
X5734422Y-19649849D01*
X5734422Y-19649849D02*
X5724899Y-19630802D01*
X5724899Y-19630802D02*
X5715375Y-19621278D01*
X5715375Y-19621278D02*
X5696327Y-19611754D01*
X5696327Y-19611754D02*
X5658232Y-19611754D01*
X5658232Y-19611754D02*
X5639184Y-19621278D01*
X5639184Y-19621278D02*
X5629660Y-19630802D01*
X5629660Y-19630802D02*
X5620137Y-19649849D01*
X5810613Y-19535564D02*
X5810613Y-19573659D01*
X5886803Y-19535564D02*
X5886803Y-19573659D01*
X6182042Y-19811754D02*
X6172518Y-19802230D01*
X6172518Y-19802230D02*
X6153470Y-19773659D01*
X6153470Y-19773659D02*
X6143946Y-19754611D01*
X6143946Y-19754611D02*
X6134422Y-19726040D01*
X6134422Y-19726040D02*
X6124899Y-19678421D01*
X6124899Y-19678421D02*
X6124899Y-19640326D01*
X6124899Y-19640326D02*
X6134422Y-19592707D01*
X6134422Y-19592707D02*
X6143946Y-19564135D01*
X6143946Y-19564135D02*
X6153470Y-19545088D01*
X6153470Y-19545088D02*
X6172518Y-19516516D01*
X6172518Y-19516516D02*
X6182042Y-19506992D01*
X6248708Y-19554611D02*
X6258232Y-19545088D01*
X6258232Y-19545088D02*
X6277280Y-19535564D01*
X6277280Y-19535564D02*
X6324899Y-19535564D01*
X6324899Y-19535564D02*
X6343946Y-19545088D01*
X6343946Y-19545088D02*
X6353470Y-19554611D01*
X6353470Y-19554611D02*
X6362994Y-19573659D01*
X6362994Y-19573659D02*
X6362994Y-19592707D01*
X6362994Y-19592707D02*
X6353470Y-19621278D01*
X6353470Y-19621278D02*
X6239184Y-19735564D01*
X6239184Y-19735564D02*
X6362994Y-19735564D01*
X6601089Y-19735564D02*
X6601089Y-19535564D01*
X6686803Y-19735564D02*
X6686803Y-19630802D01*
X6686803Y-19630802D02*
X6677280Y-19611754D01*
X6677280Y-19611754D02*
X6658232Y-19602230D01*
X6658232Y-19602230D02*
X6629661Y-19602230D01*
X6629661Y-19602230D02*
X6610613Y-19611754D01*
X6610613Y-19611754D02*
X6601089Y-19621278D01*
X6810613Y-19735564D02*
X6791565Y-19726040D01*
X6791565Y-19726040D02*
X6782042Y-19716516D01*
X6782042Y-19716516D02*
X6772518Y-19697468D01*
X6772518Y-19697468D02*
X6772518Y-19640326D01*
X6772518Y-19640326D02*
X6782042Y-19621278D01*
X6782042Y-19621278D02*
X6791565Y-19611754D01*
X6791565Y-19611754D02*
X6810613Y-19602230D01*
X6810613Y-19602230D02*
X6839184Y-19602230D01*
X6839184Y-19602230D02*
X6858232Y-19611754D01*
X6858232Y-19611754D02*
X6867756Y-19621278D01*
X6867756Y-19621278D02*
X6877280Y-19640326D01*
X6877280Y-19640326D02*
X6877280Y-19697468D01*
X6877280Y-19697468D02*
X6867756Y-19716516D01*
X6867756Y-19716516D02*
X6858232Y-19726040D01*
X6858232Y-19726040D02*
X6839184Y-19735564D01*
X6839184Y-19735564D02*
X6810613Y-19735564D01*
X6991565Y-19735564D02*
X6972518Y-19726040D01*
X6972518Y-19726040D02*
X6962994Y-19706992D01*
X6962994Y-19706992D02*
X6962994Y-19535564D01*
X7143946Y-19726040D02*
X7124899Y-19735564D01*
X7124899Y-19735564D02*
X7086803Y-19735564D01*
X7086803Y-19735564D02*
X7067756Y-19726040D01*
X7067756Y-19726040D02*
X7058232Y-19706992D01*
X7058232Y-19706992D02*
X7058232Y-19630802D01*
X7058232Y-19630802D02*
X7067756Y-19611754D01*
X7067756Y-19611754D02*
X7086803Y-19602230D01*
X7086803Y-19602230D02*
X7124899Y-19602230D01*
X7124899Y-19602230D02*
X7143946Y-19611754D01*
X7143946Y-19611754D02*
X7153470Y-19630802D01*
X7153470Y-19630802D02*
X7153470Y-19649849D01*
X7153470Y-19649849D02*
X7058232Y-19668897D01*
X7229661Y-19726040D02*
X7248708Y-19735564D01*
X7248708Y-19735564D02*
X7286803Y-19735564D01*
X7286803Y-19735564D02*
X7305851Y-19726040D01*
X7305851Y-19726040D02*
X7315375Y-19706992D01*
X7315375Y-19706992D02*
X7315375Y-19697468D01*
X7315375Y-19697468D02*
X7305851Y-19678421D01*
X7305851Y-19678421D02*
X7286803Y-19668897D01*
X7286803Y-19668897D02*
X7258232Y-19668897D01*
X7258232Y-19668897D02*
X7239184Y-19659373D01*
X7239184Y-19659373D02*
X7229661Y-19640326D01*
X7229661Y-19640326D02*
X7229661Y-19630802D01*
X7229661Y-19630802D02*
X7239184Y-19611754D01*
X7239184Y-19611754D02*
X7258232Y-19602230D01*
X7258232Y-19602230D02*
X7286803Y-19602230D01*
X7286803Y-19602230D02*
X7305851Y-19611754D01*
X7382042Y-19811754D02*
X7391565Y-19802230D01*
X7391565Y-19802230D02*
X7410613Y-19773659D01*
X7410613Y-19773659D02*
X7420137Y-19754611D01*
X7420137Y-19754611D02*
X7429661Y-19726040D01*
X7429661Y-19726040D02*
X7439184Y-19678421D01*
X7439184Y-19678421D02*
X7439184Y-19640326D01*
X7439184Y-19640326D02*
X7429661Y-19592707D01*
X7429661Y-19592707D02*
X7420137Y-19564135D01*
X7420137Y-19564135D02*
X7410613Y-19545088D01*
X7410613Y-19545088D02*
X7391565Y-19516516D01*
X7391565Y-19516516D02*
X7382042Y-19506992D01*
D11*
X2566979Y-19868080D02*
X2566979Y-19948080D01*
X2526979Y-19908080D02*
X2606979Y-19908080D01*
D10*
X2905851Y-19799564D02*
X2924898Y-19799564D01*
X2924898Y-19799564D02*
X2943946Y-19809088D01*
X2943946Y-19809088D02*
X2953470Y-19818611D01*
X2953470Y-19818611D02*
X2962994Y-19837659D01*
X2962994Y-19837659D02*
X2972517Y-19875754D01*
X2972517Y-19875754D02*
X2972517Y-19923373D01*
X2972517Y-19923373D02*
X2962994Y-19961468D01*
X2962994Y-19961468D02*
X2953470Y-19980516D01*
X2953470Y-19980516D02*
X2943946Y-19990040D01*
X2943946Y-19990040D02*
X2924898Y-19999564D01*
X2924898Y-19999564D02*
X2905851Y-19999564D01*
X2905851Y-19999564D02*
X2886803Y-19990040D01*
X2886803Y-19990040D02*
X2877279Y-19980516D01*
X2877279Y-19980516D02*
X2867755Y-19961468D01*
X2867755Y-19961468D02*
X2858232Y-19923373D01*
X2858232Y-19923373D02*
X2858232Y-19875754D01*
X2858232Y-19875754D02*
X2867755Y-19837659D01*
X2867755Y-19837659D02*
X2877279Y-19818611D01*
X2877279Y-19818611D02*
X2886803Y-19809088D01*
X2886803Y-19809088D02*
X2905851Y-19799564D01*
X3058232Y-19980516D02*
X3067755Y-19990040D01*
X3067755Y-19990040D02*
X3058232Y-19999564D01*
X3058232Y-19999564D02*
X3048708Y-19990040D01*
X3048708Y-19990040D02*
X3058232Y-19980516D01*
X3058232Y-19980516D02*
X3058232Y-19999564D01*
X3182041Y-19885278D02*
X3162994Y-19875754D01*
X3162994Y-19875754D02*
X3153470Y-19866230D01*
X3153470Y-19866230D02*
X3143946Y-19847183D01*
X3143946Y-19847183D02*
X3143946Y-19837659D01*
X3143946Y-19837659D02*
X3153470Y-19818611D01*
X3153470Y-19818611D02*
X3162994Y-19809088D01*
X3162994Y-19809088D02*
X3182041Y-19799564D01*
X3182041Y-19799564D02*
X3220136Y-19799564D01*
X3220136Y-19799564D02*
X3239184Y-19809088D01*
X3239184Y-19809088D02*
X3248708Y-19818611D01*
X3248708Y-19818611D02*
X3258232Y-19837659D01*
X3258232Y-19837659D02*
X3258232Y-19847183D01*
X3258232Y-19847183D02*
X3248708Y-19866230D01*
X3248708Y-19866230D02*
X3239184Y-19875754D01*
X3239184Y-19875754D02*
X3220136Y-19885278D01*
X3220136Y-19885278D02*
X3182041Y-19885278D01*
X3182041Y-19885278D02*
X3162994Y-19894802D01*
X3162994Y-19894802D02*
X3153470Y-19904326D01*
X3153470Y-19904326D02*
X3143946Y-19923373D01*
X3143946Y-19923373D02*
X3143946Y-19961468D01*
X3143946Y-19961468D02*
X3153470Y-19980516D01*
X3153470Y-19980516D02*
X3162994Y-19990040D01*
X3162994Y-19990040D02*
X3182041Y-19999564D01*
X3182041Y-19999564D02*
X3220136Y-19999564D01*
X3220136Y-19999564D02*
X3239184Y-19990040D01*
X3239184Y-19990040D02*
X3248708Y-19980516D01*
X3248708Y-19980516D02*
X3258232Y-19961468D01*
X3258232Y-19961468D02*
X3258232Y-19923373D01*
X3258232Y-19923373D02*
X3248708Y-19904326D01*
X3248708Y-19904326D02*
X3239184Y-19894802D01*
X3239184Y-19894802D02*
X3220136Y-19885278D01*
X3382041Y-19799564D02*
X3401089Y-19799564D01*
X3401089Y-19799564D02*
X3420136Y-19809088D01*
X3420136Y-19809088D02*
X3429660Y-19818611D01*
X3429660Y-19818611D02*
X3439184Y-19837659D01*
X3439184Y-19837659D02*
X3448708Y-19875754D01*
X3448708Y-19875754D02*
X3448708Y-19923373D01*
X3448708Y-19923373D02*
X3439184Y-19961468D01*
X3439184Y-19961468D02*
X3429660Y-19980516D01*
X3429660Y-19980516D02*
X3420136Y-19990040D01*
X3420136Y-19990040D02*
X3401089Y-19999564D01*
X3401089Y-19999564D02*
X3382041Y-19999564D01*
X3382041Y-19999564D02*
X3362994Y-19990040D01*
X3362994Y-19990040D02*
X3353470Y-19980516D01*
X3353470Y-19980516D02*
X3343946Y-19961468D01*
X3343946Y-19961468D02*
X3334422Y-19923373D01*
X3334422Y-19923373D02*
X3334422Y-19875754D01*
X3334422Y-19875754D02*
X3343946Y-19837659D01*
X3343946Y-19837659D02*
X3353470Y-19818611D01*
X3353470Y-19818611D02*
X3362994Y-19809088D01*
X3362994Y-19809088D02*
X3382041Y-19799564D01*
X3572517Y-19799564D02*
X3591565Y-19799564D01*
X3591565Y-19799564D02*
X3610613Y-19809088D01*
X3610613Y-19809088D02*
X3620136Y-19818611D01*
X3620136Y-19818611D02*
X3629660Y-19837659D01*
X3629660Y-19837659D02*
X3639184Y-19875754D01*
X3639184Y-19875754D02*
X3639184Y-19923373D01*
X3639184Y-19923373D02*
X3629660Y-19961468D01*
X3629660Y-19961468D02*
X3620136Y-19980516D01*
X3620136Y-19980516D02*
X3610613Y-19990040D01*
X3610613Y-19990040D02*
X3591565Y-19999564D01*
X3591565Y-19999564D02*
X3572517Y-19999564D01*
X3572517Y-19999564D02*
X3553470Y-19990040D01*
X3553470Y-19990040D02*
X3543946Y-19980516D01*
X3543946Y-19980516D02*
X3534422Y-19961468D01*
X3534422Y-19961468D02*
X3524898Y-19923373D01*
X3524898Y-19923373D02*
X3524898Y-19875754D01*
X3524898Y-19875754D02*
X3534422Y-19837659D01*
X3534422Y-19837659D02*
X3543946Y-19818611D01*
X3543946Y-19818611D02*
X3553470Y-19809088D01*
X3553470Y-19809088D02*
X3572517Y-19799564D01*
X3724898Y-19999564D02*
X3724898Y-19866230D01*
X3724898Y-19885278D02*
X3734422Y-19875754D01*
X3734422Y-19875754D02*
X3753470Y-19866230D01*
X3753470Y-19866230D02*
X3782041Y-19866230D01*
X3782041Y-19866230D02*
X3801089Y-19875754D01*
X3801089Y-19875754D02*
X3810613Y-19894802D01*
X3810613Y-19894802D02*
X3810613Y-19999564D01*
X3810613Y-19894802D02*
X3820136Y-19875754D01*
X3820136Y-19875754D02*
X3839184Y-19866230D01*
X3839184Y-19866230D02*
X3867755Y-19866230D01*
X3867755Y-19866230D02*
X3886803Y-19875754D01*
X3886803Y-19875754D02*
X3896327Y-19894802D01*
X3896327Y-19894802D02*
X3896327Y-19999564D01*
X3991565Y-19999564D02*
X3991565Y-19866230D01*
X3991565Y-19885278D02*
X4001089Y-19875754D01*
X4001089Y-19875754D02*
X4020136Y-19866230D01*
X4020136Y-19866230D02*
X4048708Y-19866230D01*
X4048708Y-19866230D02*
X4067756Y-19875754D01*
X4067756Y-19875754D02*
X4077279Y-19894802D01*
X4077279Y-19894802D02*
X4077279Y-19999564D01*
X4077279Y-19894802D02*
X4086803Y-19875754D01*
X4086803Y-19875754D02*
X4105851Y-19866230D01*
X4105851Y-19866230D02*
X4134422Y-19866230D01*
X4134422Y-19866230D02*
X4153470Y-19875754D01*
X4153470Y-19875754D02*
X4162994Y-19894802D01*
X4162994Y-19894802D02*
X4162994Y-19999564D01*
X4553470Y-19790040D02*
X4382041Y-20047183D01*
X4810613Y-19799564D02*
X4829661Y-19799564D01*
X4829661Y-19799564D02*
X4848708Y-19809088D01*
X4848708Y-19809088D02*
X4858232Y-19818611D01*
X4858232Y-19818611D02*
X4867756Y-19837659D01*
X4867756Y-19837659D02*
X4877280Y-19875754D01*
X4877280Y-19875754D02*
X4877280Y-19923373D01*
X4877280Y-19923373D02*
X4867756Y-19961468D01*
X4867756Y-19961468D02*
X4858232Y-19980516D01*
X4858232Y-19980516D02*
X4848708Y-19990040D01*
X4848708Y-19990040D02*
X4829661Y-19999564D01*
X4829661Y-19999564D02*
X4810613Y-19999564D01*
X4810613Y-19999564D02*
X4791565Y-19990040D01*
X4791565Y-19990040D02*
X4782041Y-19980516D01*
X4782041Y-19980516D02*
X4772518Y-19961468D01*
X4772518Y-19961468D02*
X4762994Y-19923373D01*
X4762994Y-19923373D02*
X4762994Y-19875754D01*
X4762994Y-19875754D02*
X4772518Y-19837659D01*
X4772518Y-19837659D02*
X4782041Y-19818611D01*
X4782041Y-19818611D02*
X4791565Y-19809088D01*
X4791565Y-19809088D02*
X4810613Y-19799564D01*
X4962994Y-19980516D02*
X4972518Y-19990040D01*
X4972518Y-19990040D02*
X4962994Y-19999564D01*
X4962994Y-19999564D02*
X4953470Y-19990040D01*
X4953470Y-19990040D02*
X4962994Y-19980516D01*
X4962994Y-19980516D02*
X4962994Y-19999564D01*
X5096327Y-19799564D02*
X5115375Y-19799564D01*
X5115375Y-19799564D02*
X5134422Y-19809088D01*
X5134422Y-19809088D02*
X5143946Y-19818611D01*
X5143946Y-19818611D02*
X5153470Y-19837659D01*
X5153470Y-19837659D02*
X5162994Y-19875754D01*
X5162994Y-19875754D02*
X5162994Y-19923373D01*
X5162994Y-19923373D02*
X5153470Y-19961468D01*
X5153470Y-19961468D02*
X5143946Y-19980516D01*
X5143946Y-19980516D02*
X5134422Y-19990040D01*
X5134422Y-19990040D02*
X5115375Y-19999564D01*
X5115375Y-19999564D02*
X5096327Y-19999564D01*
X5096327Y-19999564D02*
X5077280Y-19990040D01*
X5077280Y-19990040D02*
X5067756Y-19980516D01*
X5067756Y-19980516D02*
X5058232Y-19961468D01*
X5058232Y-19961468D02*
X5048708Y-19923373D01*
X5048708Y-19923373D02*
X5048708Y-19875754D01*
X5048708Y-19875754D02*
X5058232Y-19837659D01*
X5058232Y-19837659D02*
X5067756Y-19818611D01*
X5067756Y-19818611D02*
X5077280Y-19809088D01*
X5077280Y-19809088D02*
X5096327Y-19799564D01*
X5229661Y-19799564D02*
X5353470Y-19799564D01*
X5353470Y-19799564D02*
X5286803Y-19875754D01*
X5286803Y-19875754D02*
X5315375Y-19875754D01*
X5315375Y-19875754D02*
X5334422Y-19885278D01*
X5334422Y-19885278D02*
X5343946Y-19894802D01*
X5343946Y-19894802D02*
X5353470Y-19913849D01*
X5353470Y-19913849D02*
X5353470Y-19961468D01*
X5353470Y-19961468D02*
X5343946Y-19980516D01*
X5343946Y-19980516D02*
X5334422Y-19990040D01*
X5334422Y-19990040D02*
X5315375Y-19999564D01*
X5315375Y-19999564D02*
X5258232Y-19999564D01*
X5258232Y-19999564D02*
X5239184Y-19990040D01*
X5239184Y-19990040D02*
X5229661Y-19980516D01*
X5543946Y-19999564D02*
X5429661Y-19999564D01*
X5486803Y-19999564D02*
X5486803Y-19799564D01*
X5486803Y-19799564D02*
X5467756Y-19828135D01*
X5467756Y-19828135D02*
X5448708Y-19847183D01*
X5448708Y-19847183D02*
X5429661Y-19856707D01*
X5724899Y-19799564D02*
X5629660Y-19799564D01*
X5629660Y-19799564D02*
X5620137Y-19894802D01*
X5620137Y-19894802D02*
X5629660Y-19885278D01*
X5629660Y-19885278D02*
X5648708Y-19875754D01*
X5648708Y-19875754D02*
X5696327Y-19875754D01*
X5696327Y-19875754D02*
X5715375Y-19885278D01*
X5715375Y-19885278D02*
X5724899Y-19894802D01*
X5724899Y-19894802D02*
X5734422Y-19913849D01*
X5734422Y-19913849D02*
X5734422Y-19961468D01*
X5734422Y-19961468D02*
X5724899Y-19980516D01*
X5724899Y-19980516D02*
X5715375Y-19990040D01*
X5715375Y-19990040D02*
X5696327Y-19999564D01*
X5696327Y-19999564D02*
X5648708Y-19999564D01*
X5648708Y-19999564D02*
X5629660Y-19990040D01*
X5629660Y-19990040D02*
X5620137Y-19980516D01*
X5810613Y-19799564D02*
X5810613Y-19837659D01*
X5886803Y-19799564D02*
X5886803Y-19837659D01*
X6182042Y-20075754D02*
X6172518Y-20066230D01*
X6172518Y-20066230D02*
X6153470Y-20037659D01*
X6153470Y-20037659D02*
X6143946Y-20018611D01*
X6143946Y-20018611D02*
X6134422Y-19990040D01*
X6134422Y-19990040D02*
X6124899Y-19942421D01*
X6124899Y-19942421D02*
X6124899Y-19904326D01*
X6124899Y-19904326D02*
X6134422Y-19856707D01*
X6134422Y-19856707D02*
X6143946Y-19828135D01*
X6143946Y-19828135D02*
X6153470Y-19809088D01*
X6153470Y-19809088D02*
X6172518Y-19780516D01*
X6172518Y-19780516D02*
X6182042Y-19770992D01*
X6286803Y-19885278D02*
X6267756Y-19875754D01*
X6267756Y-19875754D02*
X6258232Y-19866230D01*
X6258232Y-19866230D02*
X6248708Y-19847183D01*
X6248708Y-19847183D02*
X6248708Y-19837659D01*
X6248708Y-19837659D02*
X6258232Y-19818611D01*
X6258232Y-19818611D02*
X6267756Y-19809088D01*
X6267756Y-19809088D02*
X6286803Y-19799564D01*
X6286803Y-19799564D02*
X6324899Y-19799564D01*
X6324899Y-19799564D02*
X6343946Y-19809088D01*
X6343946Y-19809088D02*
X6353470Y-19818611D01*
X6353470Y-19818611D02*
X6362994Y-19837659D01*
X6362994Y-19837659D02*
X6362994Y-19847183D01*
X6362994Y-19847183D02*
X6353470Y-19866230D01*
X6353470Y-19866230D02*
X6343946Y-19875754D01*
X6343946Y-19875754D02*
X6324899Y-19885278D01*
X6324899Y-19885278D02*
X6286803Y-19885278D01*
X6286803Y-19885278D02*
X6267756Y-19894802D01*
X6267756Y-19894802D02*
X6258232Y-19904326D01*
X6258232Y-19904326D02*
X6248708Y-19923373D01*
X6248708Y-19923373D02*
X6248708Y-19961468D01*
X6248708Y-19961468D02*
X6258232Y-19980516D01*
X6258232Y-19980516D02*
X6267756Y-19990040D01*
X6267756Y-19990040D02*
X6286803Y-19999564D01*
X6286803Y-19999564D02*
X6324899Y-19999564D01*
X6324899Y-19999564D02*
X6343946Y-19990040D01*
X6343946Y-19990040D02*
X6353470Y-19980516D01*
X6353470Y-19980516D02*
X6362994Y-19961468D01*
X6362994Y-19961468D02*
X6362994Y-19923373D01*
X6362994Y-19923373D02*
X6353470Y-19904326D01*
X6353470Y-19904326D02*
X6343946Y-19894802D01*
X6343946Y-19894802D02*
X6324899Y-19885278D01*
X6601089Y-19999564D02*
X6601089Y-19799564D01*
X6686803Y-19999564D02*
X6686803Y-19894802D01*
X6686803Y-19894802D02*
X6677280Y-19875754D01*
X6677280Y-19875754D02*
X6658232Y-19866230D01*
X6658232Y-19866230D02*
X6629661Y-19866230D01*
X6629661Y-19866230D02*
X6610613Y-19875754D01*
X6610613Y-19875754D02*
X6601089Y-19885278D01*
X6810613Y-19999564D02*
X6791565Y-19990040D01*
X6791565Y-19990040D02*
X6782042Y-19980516D01*
X6782042Y-19980516D02*
X6772518Y-19961468D01*
X6772518Y-19961468D02*
X6772518Y-19904326D01*
X6772518Y-19904326D02*
X6782042Y-19885278D01*
X6782042Y-19885278D02*
X6791565Y-19875754D01*
X6791565Y-19875754D02*
X6810613Y-19866230D01*
X6810613Y-19866230D02*
X6839184Y-19866230D01*
X6839184Y-19866230D02*
X6858232Y-19875754D01*
X6858232Y-19875754D02*
X6867756Y-19885278D01*
X6867756Y-19885278D02*
X6877280Y-19904326D01*
X6877280Y-19904326D02*
X6877280Y-19961468D01*
X6877280Y-19961468D02*
X6867756Y-19980516D01*
X6867756Y-19980516D02*
X6858232Y-19990040D01*
X6858232Y-19990040D02*
X6839184Y-19999564D01*
X6839184Y-19999564D02*
X6810613Y-19999564D01*
X6991565Y-19999564D02*
X6972518Y-19990040D01*
X6972518Y-19990040D02*
X6962994Y-19970992D01*
X6962994Y-19970992D02*
X6962994Y-19799564D01*
X7143946Y-19990040D02*
X7124899Y-19999564D01*
X7124899Y-19999564D02*
X7086803Y-19999564D01*
X7086803Y-19999564D02*
X7067756Y-19990040D01*
X7067756Y-19990040D02*
X7058232Y-19970992D01*
X7058232Y-19970992D02*
X7058232Y-19894802D01*
X7058232Y-19894802D02*
X7067756Y-19875754D01*
X7067756Y-19875754D02*
X7086803Y-19866230D01*
X7086803Y-19866230D02*
X7124899Y-19866230D01*
X7124899Y-19866230D02*
X7143946Y-19875754D01*
X7143946Y-19875754D02*
X7153470Y-19894802D01*
X7153470Y-19894802D02*
X7153470Y-19913849D01*
X7153470Y-19913849D02*
X7058232Y-19932897D01*
X7229661Y-19990040D02*
X7248708Y-19999564D01*
X7248708Y-19999564D02*
X7286803Y-19999564D01*
X7286803Y-19999564D02*
X7305851Y-19990040D01*
X7305851Y-19990040D02*
X7315375Y-19970992D01*
X7315375Y-19970992D02*
X7315375Y-19961468D01*
X7315375Y-19961468D02*
X7305851Y-19942421D01*
X7305851Y-19942421D02*
X7286803Y-19932897D01*
X7286803Y-19932897D02*
X7258232Y-19932897D01*
X7258232Y-19932897D02*
X7239184Y-19923373D01*
X7239184Y-19923373D02*
X7229661Y-19904326D01*
X7229661Y-19904326D02*
X7229661Y-19894802D01*
X7229661Y-19894802D02*
X7239184Y-19875754D01*
X7239184Y-19875754D02*
X7258232Y-19866230D01*
X7258232Y-19866230D02*
X7286803Y-19866230D01*
X7286803Y-19866230D02*
X7305851Y-19875754D01*
X7382042Y-20075754D02*
X7391565Y-20066230D01*
X7391565Y-20066230D02*
X7410613Y-20037659D01*
X7410613Y-20037659D02*
X7420137Y-20018611D01*
X7420137Y-20018611D02*
X7429661Y-19990040D01*
X7429661Y-19990040D02*
X7439184Y-19942421D01*
X7439184Y-19942421D02*
X7439184Y-19904326D01*
X7439184Y-19904326D02*
X7429661Y-19856707D01*
X7429661Y-19856707D02*
X7420137Y-19828135D01*
X7420137Y-19828135D02*
X7410613Y-19809088D01*
X7410613Y-19809088D02*
X7391565Y-19780516D01*
X7391565Y-19780516D02*
X7382042Y-19770992D01*
D11*
X2593799Y-20203900D02*
X2593799Y-20140260D01*
X2530159Y-20140260D01*
X2530159Y-20203900D01*
X2593799Y-20203900D01*
D10*
X2905851Y-20063564D02*
X2924898Y-20063564D01*
X2924898Y-20063564D02*
X2943946Y-20073088D01*
X2943946Y-20073088D02*
X2953470Y-20082611D01*
X2953470Y-20082611D02*
X2962994Y-20101659D01*
X2962994Y-20101659D02*
X2972517Y-20139754D01*
X2972517Y-20139754D02*
X2972517Y-20187373D01*
X2972517Y-20187373D02*
X2962994Y-20225468D01*
X2962994Y-20225468D02*
X2953470Y-20244516D01*
X2953470Y-20244516D02*
X2943946Y-20254040D01*
X2943946Y-20254040D02*
X2924898Y-20263564D01*
X2924898Y-20263564D02*
X2905851Y-20263564D01*
X2905851Y-20263564D02*
X2886803Y-20254040D01*
X2886803Y-20254040D02*
X2877279Y-20244516D01*
X2877279Y-20244516D02*
X2867755Y-20225468D01*
X2867755Y-20225468D02*
X2858232Y-20187373D01*
X2858232Y-20187373D02*
X2858232Y-20139754D01*
X2858232Y-20139754D02*
X2867755Y-20101659D01*
X2867755Y-20101659D02*
X2877279Y-20082611D01*
X2877279Y-20082611D02*
X2886803Y-20073088D01*
X2886803Y-20073088D02*
X2905851Y-20063564D01*
X3058232Y-20244516D02*
X3067755Y-20254040D01*
X3067755Y-20254040D02*
X3058232Y-20263564D01*
X3058232Y-20263564D02*
X3048708Y-20254040D01*
X3048708Y-20254040D02*
X3058232Y-20244516D01*
X3058232Y-20244516D02*
X3058232Y-20263564D01*
X3162994Y-20263564D02*
X3201089Y-20263564D01*
X3201089Y-20263564D02*
X3220136Y-20254040D01*
X3220136Y-20254040D02*
X3229660Y-20244516D01*
X3229660Y-20244516D02*
X3248708Y-20215945D01*
X3248708Y-20215945D02*
X3258232Y-20177849D01*
X3258232Y-20177849D02*
X3258232Y-20101659D01*
X3258232Y-20101659D02*
X3248708Y-20082611D01*
X3248708Y-20082611D02*
X3239184Y-20073088D01*
X3239184Y-20073088D02*
X3220136Y-20063564D01*
X3220136Y-20063564D02*
X3182041Y-20063564D01*
X3182041Y-20063564D02*
X3162994Y-20073088D01*
X3162994Y-20073088D02*
X3153470Y-20082611D01*
X3153470Y-20082611D02*
X3143946Y-20101659D01*
X3143946Y-20101659D02*
X3143946Y-20149278D01*
X3143946Y-20149278D02*
X3153470Y-20168326D01*
X3153470Y-20168326D02*
X3162994Y-20177849D01*
X3162994Y-20177849D02*
X3182041Y-20187373D01*
X3182041Y-20187373D02*
X3220136Y-20187373D01*
X3220136Y-20187373D02*
X3239184Y-20177849D01*
X3239184Y-20177849D02*
X3248708Y-20168326D01*
X3248708Y-20168326D02*
X3258232Y-20149278D01*
X3382041Y-20063564D02*
X3401089Y-20063564D01*
X3401089Y-20063564D02*
X3420136Y-20073088D01*
X3420136Y-20073088D02*
X3429660Y-20082611D01*
X3429660Y-20082611D02*
X3439184Y-20101659D01*
X3439184Y-20101659D02*
X3448708Y-20139754D01*
X3448708Y-20139754D02*
X3448708Y-20187373D01*
X3448708Y-20187373D02*
X3439184Y-20225468D01*
X3439184Y-20225468D02*
X3429660Y-20244516D01*
X3429660Y-20244516D02*
X3420136Y-20254040D01*
X3420136Y-20254040D02*
X3401089Y-20263564D01*
X3401089Y-20263564D02*
X3382041Y-20263564D01*
X3382041Y-20263564D02*
X3362994Y-20254040D01*
X3362994Y-20254040D02*
X3353470Y-20244516D01*
X3353470Y-20244516D02*
X3343946Y-20225468D01*
X3343946Y-20225468D02*
X3334422Y-20187373D01*
X3334422Y-20187373D02*
X3334422Y-20139754D01*
X3334422Y-20139754D02*
X3343946Y-20101659D01*
X3343946Y-20101659D02*
X3353470Y-20082611D01*
X3353470Y-20082611D02*
X3362994Y-20073088D01*
X3362994Y-20073088D02*
X3382041Y-20063564D01*
X3572517Y-20063564D02*
X3591565Y-20063564D01*
X3591565Y-20063564D02*
X3610613Y-20073088D01*
X3610613Y-20073088D02*
X3620136Y-20082611D01*
X3620136Y-20082611D02*
X3629660Y-20101659D01*
X3629660Y-20101659D02*
X3639184Y-20139754D01*
X3639184Y-20139754D02*
X3639184Y-20187373D01*
X3639184Y-20187373D02*
X3629660Y-20225468D01*
X3629660Y-20225468D02*
X3620136Y-20244516D01*
X3620136Y-20244516D02*
X3610613Y-20254040D01*
X3610613Y-20254040D02*
X3591565Y-20263564D01*
X3591565Y-20263564D02*
X3572517Y-20263564D01*
X3572517Y-20263564D02*
X3553470Y-20254040D01*
X3553470Y-20254040D02*
X3543946Y-20244516D01*
X3543946Y-20244516D02*
X3534422Y-20225468D01*
X3534422Y-20225468D02*
X3524898Y-20187373D01*
X3524898Y-20187373D02*
X3524898Y-20139754D01*
X3524898Y-20139754D02*
X3534422Y-20101659D01*
X3534422Y-20101659D02*
X3543946Y-20082611D01*
X3543946Y-20082611D02*
X3553470Y-20073088D01*
X3553470Y-20073088D02*
X3572517Y-20063564D01*
X3724898Y-20263564D02*
X3724898Y-20130230D01*
X3724898Y-20149278D02*
X3734422Y-20139754D01*
X3734422Y-20139754D02*
X3753470Y-20130230D01*
X3753470Y-20130230D02*
X3782041Y-20130230D01*
X3782041Y-20130230D02*
X3801089Y-20139754D01*
X3801089Y-20139754D02*
X3810613Y-20158802D01*
X3810613Y-20158802D02*
X3810613Y-20263564D01*
X3810613Y-20158802D02*
X3820136Y-20139754D01*
X3820136Y-20139754D02*
X3839184Y-20130230D01*
X3839184Y-20130230D02*
X3867755Y-20130230D01*
X3867755Y-20130230D02*
X3886803Y-20139754D01*
X3886803Y-20139754D02*
X3896327Y-20158802D01*
X3896327Y-20158802D02*
X3896327Y-20263564D01*
X3991565Y-20263564D02*
X3991565Y-20130230D01*
X3991565Y-20149278D02*
X4001089Y-20139754D01*
X4001089Y-20139754D02*
X4020136Y-20130230D01*
X4020136Y-20130230D02*
X4048708Y-20130230D01*
X4048708Y-20130230D02*
X4067756Y-20139754D01*
X4067756Y-20139754D02*
X4077279Y-20158802D01*
X4077279Y-20158802D02*
X4077279Y-20263564D01*
X4077279Y-20158802D02*
X4086803Y-20139754D01*
X4086803Y-20139754D02*
X4105851Y-20130230D01*
X4105851Y-20130230D02*
X4134422Y-20130230D01*
X4134422Y-20130230D02*
X4153470Y-20139754D01*
X4153470Y-20139754D02*
X4162994Y-20158802D01*
X4162994Y-20158802D02*
X4162994Y-20263564D01*
X4553470Y-20054040D02*
X4382041Y-20311183D01*
X4810613Y-20063564D02*
X4829661Y-20063564D01*
X4829661Y-20063564D02*
X4848708Y-20073088D01*
X4848708Y-20073088D02*
X4858232Y-20082611D01*
X4858232Y-20082611D02*
X4867756Y-20101659D01*
X4867756Y-20101659D02*
X4877280Y-20139754D01*
X4877280Y-20139754D02*
X4877280Y-20187373D01*
X4877280Y-20187373D02*
X4867756Y-20225468D01*
X4867756Y-20225468D02*
X4858232Y-20244516D01*
X4858232Y-20244516D02*
X4848708Y-20254040D01*
X4848708Y-20254040D02*
X4829661Y-20263564D01*
X4829661Y-20263564D02*
X4810613Y-20263564D01*
X4810613Y-20263564D02*
X4791565Y-20254040D01*
X4791565Y-20254040D02*
X4782041Y-20244516D01*
X4782041Y-20244516D02*
X4772518Y-20225468D01*
X4772518Y-20225468D02*
X4762994Y-20187373D01*
X4762994Y-20187373D02*
X4762994Y-20139754D01*
X4762994Y-20139754D02*
X4772518Y-20101659D01*
X4772518Y-20101659D02*
X4782041Y-20082611D01*
X4782041Y-20082611D02*
X4791565Y-20073088D01*
X4791565Y-20073088D02*
X4810613Y-20063564D01*
X4962994Y-20244516D02*
X4972518Y-20254040D01*
X4972518Y-20254040D02*
X4962994Y-20263564D01*
X4962994Y-20263564D02*
X4953470Y-20254040D01*
X4953470Y-20254040D02*
X4962994Y-20244516D01*
X4962994Y-20244516D02*
X4962994Y-20263564D01*
X5096327Y-20063564D02*
X5115375Y-20063564D01*
X5115375Y-20063564D02*
X5134422Y-20073088D01*
X5134422Y-20073088D02*
X5143946Y-20082611D01*
X5143946Y-20082611D02*
X5153470Y-20101659D01*
X5153470Y-20101659D02*
X5162994Y-20139754D01*
X5162994Y-20139754D02*
X5162994Y-20187373D01*
X5162994Y-20187373D02*
X5153470Y-20225468D01*
X5153470Y-20225468D02*
X5143946Y-20244516D01*
X5143946Y-20244516D02*
X5134422Y-20254040D01*
X5134422Y-20254040D02*
X5115375Y-20263564D01*
X5115375Y-20263564D02*
X5096327Y-20263564D01*
X5096327Y-20263564D02*
X5077280Y-20254040D01*
X5077280Y-20254040D02*
X5067756Y-20244516D01*
X5067756Y-20244516D02*
X5058232Y-20225468D01*
X5058232Y-20225468D02*
X5048708Y-20187373D01*
X5048708Y-20187373D02*
X5048708Y-20139754D01*
X5048708Y-20139754D02*
X5058232Y-20101659D01*
X5058232Y-20101659D02*
X5067756Y-20082611D01*
X5067756Y-20082611D02*
X5077280Y-20073088D01*
X5077280Y-20073088D02*
X5096327Y-20063564D01*
X5229661Y-20063564D02*
X5353470Y-20063564D01*
X5353470Y-20063564D02*
X5286803Y-20139754D01*
X5286803Y-20139754D02*
X5315375Y-20139754D01*
X5315375Y-20139754D02*
X5334422Y-20149278D01*
X5334422Y-20149278D02*
X5343946Y-20158802D01*
X5343946Y-20158802D02*
X5353470Y-20177849D01*
X5353470Y-20177849D02*
X5353470Y-20225468D01*
X5353470Y-20225468D02*
X5343946Y-20244516D01*
X5343946Y-20244516D02*
X5334422Y-20254040D01*
X5334422Y-20254040D02*
X5315375Y-20263564D01*
X5315375Y-20263564D02*
X5258232Y-20263564D01*
X5258232Y-20263564D02*
X5239184Y-20254040D01*
X5239184Y-20254040D02*
X5229661Y-20244516D01*
X5534422Y-20063564D02*
X5439184Y-20063564D01*
X5439184Y-20063564D02*
X5429661Y-20158802D01*
X5429661Y-20158802D02*
X5439184Y-20149278D01*
X5439184Y-20149278D02*
X5458232Y-20139754D01*
X5458232Y-20139754D02*
X5505851Y-20139754D01*
X5505851Y-20139754D02*
X5524899Y-20149278D01*
X5524899Y-20149278D02*
X5534422Y-20158802D01*
X5534422Y-20158802D02*
X5543946Y-20177849D01*
X5543946Y-20177849D02*
X5543946Y-20225468D01*
X5543946Y-20225468D02*
X5534422Y-20244516D01*
X5534422Y-20244516D02*
X5524899Y-20254040D01*
X5524899Y-20254040D02*
X5505851Y-20263564D01*
X5505851Y-20263564D02*
X5458232Y-20263564D01*
X5458232Y-20263564D02*
X5439184Y-20254040D01*
X5439184Y-20254040D02*
X5429661Y-20244516D01*
X5715375Y-20130230D02*
X5715375Y-20263564D01*
X5667756Y-20054040D02*
X5620137Y-20196897D01*
X5620137Y-20196897D02*
X5743946Y-20196897D01*
X5810613Y-20063564D02*
X5810613Y-20101659D01*
X5886803Y-20063564D02*
X5886803Y-20101659D01*
X6182042Y-20339754D02*
X6172518Y-20330230D01*
X6172518Y-20330230D02*
X6153470Y-20301659D01*
X6153470Y-20301659D02*
X6143946Y-20282611D01*
X6143946Y-20282611D02*
X6134422Y-20254040D01*
X6134422Y-20254040D02*
X6124899Y-20206421D01*
X6124899Y-20206421D02*
X6124899Y-20168326D01*
X6124899Y-20168326D02*
X6134422Y-20120707D01*
X6134422Y-20120707D02*
X6143946Y-20092135D01*
X6143946Y-20092135D02*
X6153470Y-20073088D01*
X6153470Y-20073088D02*
X6172518Y-20044516D01*
X6172518Y-20044516D02*
X6182042Y-20034992D01*
X6343946Y-20130230D02*
X6343946Y-20263564D01*
X6296327Y-20054040D02*
X6248708Y-20196897D01*
X6248708Y-20196897D02*
X6372518Y-20196897D01*
X6601089Y-20263564D02*
X6601089Y-20063564D01*
X6686803Y-20263564D02*
X6686803Y-20158802D01*
X6686803Y-20158802D02*
X6677280Y-20139754D01*
X6677280Y-20139754D02*
X6658232Y-20130230D01*
X6658232Y-20130230D02*
X6629661Y-20130230D01*
X6629661Y-20130230D02*
X6610613Y-20139754D01*
X6610613Y-20139754D02*
X6601089Y-20149278D01*
X6810613Y-20263564D02*
X6791565Y-20254040D01*
X6791565Y-20254040D02*
X6782042Y-20244516D01*
X6782042Y-20244516D02*
X6772518Y-20225468D01*
X6772518Y-20225468D02*
X6772518Y-20168326D01*
X6772518Y-20168326D02*
X6782042Y-20149278D01*
X6782042Y-20149278D02*
X6791565Y-20139754D01*
X6791565Y-20139754D02*
X6810613Y-20130230D01*
X6810613Y-20130230D02*
X6839184Y-20130230D01*
X6839184Y-20130230D02*
X6858232Y-20139754D01*
X6858232Y-20139754D02*
X6867756Y-20149278D01*
X6867756Y-20149278D02*
X6877280Y-20168326D01*
X6877280Y-20168326D02*
X6877280Y-20225468D01*
X6877280Y-20225468D02*
X6867756Y-20244516D01*
X6867756Y-20244516D02*
X6858232Y-20254040D01*
X6858232Y-20254040D02*
X6839184Y-20263564D01*
X6839184Y-20263564D02*
X6810613Y-20263564D01*
X6991565Y-20263564D02*
X6972518Y-20254040D01*
X6972518Y-20254040D02*
X6962994Y-20234992D01*
X6962994Y-20234992D02*
X6962994Y-20063564D01*
X7143946Y-20254040D02*
X7124899Y-20263564D01*
X7124899Y-20263564D02*
X7086803Y-20263564D01*
X7086803Y-20263564D02*
X7067756Y-20254040D01*
X7067756Y-20254040D02*
X7058232Y-20234992D01*
X7058232Y-20234992D02*
X7058232Y-20158802D01*
X7058232Y-20158802D02*
X7067756Y-20139754D01*
X7067756Y-20139754D02*
X7086803Y-20130230D01*
X7086803Y-20130230D02*
X7124899Y-20130230D01*
X7124899Y-20130230D02*
X7143946Y-20139754D01*
X7143946Y-20139754D02*
X7153470Y-20158802D01*
X7153470Y-20158802D02*
X7153470Y-20177849D01*
X7153470Y-20177849D02*
X7058232Y-20196897D01*
X7229661Y-20254040D02*
X7248708Y-20263564D01*
X7248708Y-20263564D02*
X7286803Y-20263564D01*
X7286803Y-20263564D02*
X7305851Y-20254040D01*
X7305851Y-20254040D02*
X7315375Y-20234992D01*
X7315375Y-20234992D02*
X7315375Y-20225468D01*
X7315375Y-20225468D02*
X7305851Y-20206421D01*
X7305851Y-20206421D02*
X7286803Y-20196897D01*
X7286803Y-20196897D02*
X7258232Y-20196897D01*
X7258232Y-20196897D02*
X7239184Y-20187373D01*
X7239184Y-20187373D02*
X7229661Y-20168326D01*
X7229661Y-20168326D02*
X7229661Y-20158802D01*
X7229661Y-20158802D02*
X7239184Y-20139754D01*
X7239184Y-20139754D02*
X7258232Y-20130230D01*
X7258232Y-20130230D02*
X7286803Y-20130230D01*
X7286803Y-20130230D02*
X7305851Y-20139754D01*
X7382042Y-20339754D02*
X7391565Y-20330230D01*
X7391565Y-20330230D02*
X7410613Y-20301659D01*
X7410613Y-20301659D02*
X7420137Y-20282611D01*
X7420137Y-20282611D02*
X7429661Y-20254040D01*
X7429661Y-20254040D02*
X7439184Y-20206421D01*
X7439184Y-20206421D02*
X7439184Y-20168326D01*
X7439184Y-20168326D02*
X7429661Y-20120707D01*
X7429661Y-20120707D02*
X7420137Y-20092135D01*
X7420137Y-20092135D02*
X7410613Y-20073088D01*
X7410613Y-20073088D02*
X7391565Y-20044516D01*
X7391565Y-20044516D02*
X7382042Y-20034992D01*
M02*
