%TF.GenerationSoftware,KiCad,Pcbnew,7.0.10*%
%TF.CreationDate,2024-11-15T17:15:35-05:00*%
%TF.ProjectId,plane,706c616e-652e-46b6-9963-61645f706362,rev?*%
%TF.SameCoordinates,Original*%
%TF.FileFunction,Profile,NP*%
%FSLAX46Y46*%
G04 Gerber Fmt 4.6, Leading zero omitted, Abs format (unit mm)*
G04 Created by KiCad (PCBNEW 7.0.10) date 2024-11-15 17:15:35*
%MOMM*%
%LPD*%
G01*
G04 APERTURE LIST*
%TA.AperFunction,Profile*%
%ADD10C,0.200000*%
%TD*%
%ADD11C,0.200000*%
G04 APERTURE END LIST*
D10*
X108198816Y-123240546D02*
X108199032Y-121907174D01*
X90024649Y-162737028D02*
X92077219Y-155489773D01*
X92077219Y-155489773D02*
X89555812Y-154663441D01*
X87185043Y-153196285D02*
X89555812Y-154663441D01*
X89439217Y-151874873D02*
X87185043Y-153196285D01*
X94247102Y-140568975D02*
X90863321Y-141174758D01*
X88900000Y-142439987D02*
X90863321Y-141174758D01*
X88900000Y-142439987D02*
X90882118Y-143829413D01*
X94253433Y-144713848D02*
X90882118Y-143829413D01*
X170971568Y-128802453D02*
X165096288Y-129538916D01*
X177575568Y-126770453D02*
X170971568Y-128802453D01*
X181131568Y-123468453D02*
X180623568Y-124484453D01*
X180623568Y-124484453D02*
X177575568Y-126770453D01*
X181102000Y-121666000D02*
X181131568Y-123468453D01*
X119380000Y-107696000D02*
X120525945Y-106578618D01*
X121378831Y-114338573D02*
X119380000Y-107696000D01*
X128394056Y-96910465D02*
X120525945Y-96009739D01*
X128394056Y-96910465D02*
X128394056Y-105652810D01*
X90024649Y-82447880D02*
X91694000Y-90170000D01*
X89492553Y-90847624D02*
X91694000Y-90170000D01*
X90863321Y-101501108D02*
X93922839Y-100593842D01*
X90863321Y-101501108D02*
X90863321Y-101501108D01*
X88550214Y-102947322D02*
X90863321Y-104010150D01*
X88550214Y-102947322D02*
X90863321Y-101501108D01*
X94247102Y-129592906D02*
X55118001Y-129491059D01*
X180594000Y-120650000D02*
X181102000Y-121666000D01*
X177546000Y-118364000D02*
X180594000Y-120650000D01*
X170942000Y-116332000D02*
X177546000Y-118364000D01*
X165096288Y-115645992D02*
X170942000Y-116332000D01*
X86312092Y-164219050D02*
X90024649Y-162737028D01*
X46916972Y-115043151D02*
X45831089Y-113686831D01*
X32512000Y-126238000D02*
X28402318Y-124532936D01*
X46916954Y-115043167D02*
G75*
G03*
X50525603Y-116214018I2802546J2491167D01*
G01*
X27287262Y-96396927D02*
X32512000Y-118618000D01*
D11*
X164697634Y-129540000D02*
X164909574Y-129539938D01*
X165096288Y-129538916D01*
D10*
X87185043Y-91988622D02*
X89492553Y-93007027D01*
X55118001Y-129491059D02*
X50546000Y-129032001D01*
X81884685Y-58695198D02*
X84820409Y-60429945D01*
X112014000Y-97790000D02*
X115027402Y-96656729D01*
X128394056Y-105652810D02*
X120525945Y-106578618D01*
X33573370Y-96396927D02*
X45831089Y-113686831D01*
X27287262Y-148787980D02*
X32512000Y-126238000D01*
X94247102Y-104615933D02*
X90863321Y-104010150D01*
X94247102Y-140568975D02*
X94247102Y-129592906D01*
X128394056Y-139532097D02*
X120525945Y-138606290D01*
X89439217Y-151874873D02*
X93227257Y-151261013D01*
X83352547Y-187300799D02*
X91826116Y-184754963D01*
X27287262Y-148787980D02*
X33573370Y-148787980D01*
X33573370Y-148787980D02*
X45831089Y-131498077D01*
X61061644Y-115592002D02*
X55614176Y-115740306D01*
X89322509Y-165707617D02*
X86312092Y-164219050D01*
X94247102Y-104615933D02*
X94247102Y-115592002D01*
X32512000Y-118618000D02*
X28355295Y-120665442D01*
X128394056Y-148274443D02*
X128394056Y-139532097D01*
X84820409Y-184754963D02*
X89322509Y-165707617D01*
X112268000Y-147320000D02*
X115027402Y-148528179D01*
X89492553Y-90847624D02*
X87185043Y-91988622D01*
X28355295Y-120665442D02*
X26759484Y-121331152D01*
D11*
X164697634Y-115644907D02*
X164909574Y-115644969D01*
X165096288Y-115645992D01*
D10*
X26181779Y-123407090D02*
X108198816Y-123240546D01*
X27287262Y-96396927D02*
X33573370Y-96396927D01*
X46937369Y-130202868D02*
X45831089Y-131498077D01*
X50545997Y-129032017D02*
G75*
G03*
X46937370Y-130202869I-806097J-3661983D01*
G01*
X55614176Y-115740306D02*
X50525603Y-116214019D01*
X93922839Y-100593842D02*
X93227257Y-93923895D01*
X115027402Y-148528179D02*
X120525945Y-149175169D01*
X89322509Y-79477291D02*
X86312092Y-80965858D01*
X115027402Y-96656729D02*
X120525945Y-96009739D01*
X81884685Y-58695198D02*
X83352547Y-57884109D01*
X120525945Y-138606290D02*
X119634000Y-137160000D01*
X26742220Y-123840408D02*
X28402318Y-124532936D01*
X121378831Y-114338573D02*
X124460000Y-115644907D01*
X119634000Y-137160000D02*
X121378831Y-130846335D01*
X81884685Y-186489710D02*
X83352547Y-187300799D01*
X94253433Y-144713848D02*
X93227257Y-151261013D01*
X91826116Y-60429945D02*
X112014000Y-97790000D01*
X120525945Y-149175169D02*
X128394056Y-148274443D01*
X26759484Y-121331152D02*
X26169787Y-121787090D01*
X84820409Y-60429945D02*
X89322509Y-79477291D01*
X91826116Y-184754963D02*
X112268000Y-147320000D01*
X124460000Y-115644907D02*
X164697634Y-115644907D01*
X89492553Y-93007027D02*
X93227257Y-93923895D01*
X124460000Y-129540000D02*
X164697634Y-129540000D01*
X83352547Y-57884109D02*
X91826116Y-60429945D01*
X26181779Y-123407090D02*
X26742220Y-123840408D01*
X26169787Y-121787090D02*
X108199032Y-121907174D01*
X121378831Y-130846335D02*
X124460000Y-129540000D01*
X86312092Y-80965858D02*
X90024649Y-82447880D01*
X94247102Y-115592002D02*
X61061644Y-115592002D01*
X81884685Y-186489710D02*
X84820409Y-184754963D01*
M02*
