%TF.GenerationSoftware,KiCad,Pcbnew,7.0.10*%
%TF.CreationDate,2024-11-15T17:15:35-05:00*%
%TF.ProjectId,plane,706c616e-652e-46b6-9963-61645f706362,rev?*%
%TF.SameCoordinates,Original*%
%TF.FileFunction,Copper,L2,Bot*%
%TF.FilePolarity,Positive*%
%FSLAX46Y46*%
G04 Gerber Fmt 4.6, Leading zero omitted, Abs format (unit mm)*
G04 Created by KiCad (PCBNEW 7.0.10) date 2024-11-15 17:15:35*
%MOMM*%
%LPD*%
G01*
G04 APERTURE LIST*
G04 Aperture macros list*
%AMRoundRect*
0 Rectangle with rounded corners*
0 $1 Rounding radius*
0 $2 $3 $4 $5 $6 $7 $8 $9 X,Y pos of 4 corners*
0 Add a 4 corners polygon primitive as box body*
4,1,4,$2,$3,$4,$5,$6,$7,$8,$9,$2,$3,0*
0 Add four circle primitives for the rounded corners*
1,1,$1+$1,$2,$3*
1,1,$1+$1,$4,$5*
1,1,$1+$1,$6,$7*
1,1,$1+$1,$8,$9*
0 Add four rect primitives between the rounded corners*
20,1,$1+$1,$2,$3,$4,$5,0*
20,1,$1+$1,$4,$5,$6,$7,0*
20,1,$1+$1,$6,$7,$8,$9,0*
20,1,$1+$1,$8,$9,$2,$3,0*%
G04 Aperture macros list end*
%TA.AperFunction,ComponentPad*%
%ADD10RoundRect,0.250000X-0.550000X-0.550000X0.550000X-0.550000X0.550000X0.550000X-0.550000X0.550000X0*%
%TD*%
%TA.AperFunction,ComponentPad*%
%ADD11C,1.600000*%
%TD*%
%TA.AperFunction,ComponentPad*%
%ADD12O,1.600000X1.600000*%
%TD*%
%TA.AperFunction,ComponentPad*%
%ADD13R,1.800000X1.800000*%
%TD*%
%TA.AperFunction,ComponentPad*%
%ADD14C,1.800000*%
%TD*%
%TA.AperFunction,ViaPad*%
%ADD15C,0.800000*%
%TD*%
%TA.AperFunction,Conductor*%
%ADD16C,0.200000*%
%TD*%
%TA.AperFunction,Conductor*%
%ADD17C,0.400000*%
%TD*%
G04 APERTURE END LIST*
D10*
%TO.P,GND,1,1*%
%TO.N,GND*%
X99060000Y-129540000D03*
%TD*%
%TO.P,3V,1,1*%
%TO.N,+3V0*%
X99060000Y-115570000D03*
%TD*%
D11*
%TO.P,R3,1*%
%TO.N,Net-(D3-K)*%
X121285000Y-103505000D03*
D12*
%TO.P,R3,2*%
%TO.N,GND*%
X126365000Y-103505000D03*
%TD*%
D13*
%TO.P,D2,1,K*%
%TO.N,Net-(D2-K)*%
X94996000Y-168402000D03*
D14*
%TO.P,D2,2,A*%
%TO.N,+3V0*%
X94996000Y-165862000D03*
%TD*%
D11*
%TO.P,R2,1*%
%TO.N,Net-(D2-K)*%
X121506638Y-145943629D03*
D12*
%TO.P,R2,2*%
%TO.N,GND*%
X126586638Y-145943629D03*
%TD*%
D11*
%TO.P,R1,1*%
%TO.N,Net-(D1-K)*%
X121316161Y-99155088D03*
D12*
%TO.P,R1,2*%
%TO.N,GND*%
X126396161Y-99155088D03*
%TD*%
D14*
%TO.P,D1,2,A*%
%TO.N,+3V0*%
X94996000Y-82367895D03*
D13*
%TO.P,D1,1,K*%
%TO.N,Net-(D1-K)*%
X94996000Y-79827895D03*
%TD*%
D11*
%TO.P,R4,1*%
%TO.N,Net-(D4-K)*%
X121506789Y-141673385D03*
D12*
%TO.P,R4,2*%
%TO.N,GND*%
X126586789Y-141673385D03*
%TD*%
D15*
%TO.N,GND*%
X115570000Y-129540000D03*
X115570000Y-115570000D03*
X166370000Y-125730000D03*
X166370000Y-119380000D03*
X132080000Y-125730000D03*
X132080000Y-119380000D03*
X99060000Y-105410000D03*
X88900000Y-63500000D03*
X99060000Y-93980000D03*
X95250000Y-153670000D03*
X90170000Y-181610000D03*
X99060000Y-139700000D03*
X66040000Y-127000000D03*
X66040000Y-118110000D03*
X38100000Y-127000000D03*
X38100000Y-118110000D03*
%TD*%
D16*
%TO.N,GND*%
X170180000Y-118110000D02*
X120650000Y-118110000D01*
X120015000Y-130175000D02*
X106045000Y-144145000D01*
X106045000Y-144145000D02*
X106045000Y-151765000D01*
X105410000Y-99060000D02*
X105410000Y-91440000D01*
X119380000Y-113030000D02*
X105410000Y-99060000D01*
X115570000Y-123190000D02*
X113030000Y-125730000D01*
X177800000Y-123190000D02*
X115570000Y-123190000D01*
X138430000Y-120650000D02*
X116840000Y-120650000D01*
X176530000Y-120650000D02*
X138430000Y-120650000D01*
X115570000Y-121920000D02*
X113030000Y-119380000D01*
X177800000Y-121920000D02*
X115570000Y-121920000D01*
X120650000Y-127000000D02*
X115570000Y-132080000D01*
X171450000Y-125730000D02*
X170180000Y-127000000D01*
X170180000Y-127000000D02*
X120650000Y-127000000D01*
X116840000Y-124460000D02*
X114300000Y-127000000D01*
X118110000Y-124460000D02*
X116840000Y-124460000D01*
X176530000Y-124460000D02*
X118110000Y-124460000D01*
X116840000Y-120650000D02*
X110490000Y-114300000D01*
X120650000Y-118110000D02*
X115570000Y-113030000D01*
X171450000Y-119380000D02*
X170180000Y-118110000D01*
D17*
%TO.N,+3V0*%
X94996000Y-159766000D02*
X94996000Y-165862000D01*
X96012000Y-158750000D02*
X94996000Y-159766000D01*
X99060000Y-158750000D02*
X96012000Y-158750000D01*
X104140000Y-153670000D02*
X99060000Y-158750000D01*
X104140000Y-137160000D02*
X104140000Y-153670000D01*
X111506000Y-129794000D02*
X104140000Y-137160000D01*
X111506000Y-120904000D02*
X111506000Y-129794000D01*
X108712000Y-118110000D02*
X111506000Y-120904000D01*
X103124000Y-118110000D02*
X108712000Y-118110000D01*
X100783638Y-115769638D02*
X103124000Y-118110000D01*
X99060000Y-115769638D02*
X100783638Y-115769638D01*
%TD*%
%TA.AperFunction,Conductor*%
%TO.N,GND*%
G36*
X83402578Y-57899662D02*
G01*
X91776713Y-60415623D01*
X91835253Y-60453765D01*
X91850125Y-60475430D01*
X112009427Y-97782589D01*
X112012386Y-97789073D01*
X112013815Y-97790694D01*
X112015670Y-97790444D01*
X112022403Y-97787373D01*
X115013380Y-96662535D01*
X115042530Y-96655451D01*
X120511660Y-96011922D01*
X120540238Y-96011878D01*
X128283659Y-96898329D01*
X128348025Y-96925510D01*
X128387477Y-96983175D01*
X128393556Y-97021524D01*
X128393556Y-105542100D01*
X128373871Y-105609139D01*
X128321067Y-105654894D01*
X128284047Y-105665250D01*
X120534290Y-106577131D01*
X120527334Y-106577491D01*
X120525707Y-106578083D01*
X120524265Y-106578944D01*
X120519666Y-106584041D01*
X119383563Y-107691826D01*
X119379846Y-107695144D01*
X119379460Y-107695861D01*
X119379450Y-107696662D01*
X119381089Y-107701355D01*
X121372933Y-114320709D01*
X121373988Y-114328067D01*
X121378403Y-114338959D01*
X121389426Y-114344823D01*
X121396482Y-114346599D01*
X124443226Y-115638338D01*
X124444374Y-115639032D01*
X124459005Y-115645039D01*
X124459890Y-115645409D01*
X124460613Y-115645413D01*
X124483395Y-115645635D01*
X124484560Y-115645407D01*
X164697534Y-115645407D01*
X164697563Y-115645407D01*
X164902770Y-115645466D01*
X164903060Y-115645551D01*
X164903060Y-115645466D01*
X164903103Y-115645466D01*
X164915161Y-115645498D01*
X164915452Y-115645499D01*
X164915452Y-115645575D01*
X164915793Y-115645501D01*
X165089352Y-115646454D01*
X165103120Y-115647296D01*
X170930672Y-116331173D01*
X170952687Y-116335811D01*
X171389250Y-116470138D01*
X177525123Y-118358098D01*
X177563049Y-118377412D01*
X180570189Y-120632766D01*
X180606697Y-120676511D01*
X181088889Y-121640898D01*
X181101963Y-121694318D01*
X181130568Y-123437992D01*
X181117494Y-123495480D01*
X180636265Y-124457940D01*
X180599756Y-124501686D01*
X177592621Y-126757037D01*
X177554688Y-126776354D01*
X170981780Y-128798786D01*
X170960736Y-128803306D01*
X165103601Y-129537494D01*
X165088858Y-129538455D01*
X164915254Y-129539407D01*
X164914905Y-129539409D01*
X164903673Y-129539439D01*
X164903379Y-129539439D01*
X164697535Y-129539500D01*
X124484560Y-129539500D01*
X124483395Y-129539271D01*
X124460613Y-129539494D01*
X124459907Y-129539497D01*
X124459151Y-129539675D01*
X124455923Y-129541152D01*
X124449525Y-129543813D01*
X124448808Y-129544200D01*
X121394538Y-130839131D01*
X121386756Y-130841227D01*
X121378398Y-130845957D01*
X121374779Y-130854937D01*
X121373726Y-130862927D01*
X119639442Y-137138426D01*
X119637709Y-137142047D01*
X119633455Y-137159950D01*
X119633491Y-137160201D01*
X119642655Y-137176333D01*
X119645316Y-137179304D01*
X120516367Y-138591711D01*
X120519667Y-138599232D01*
X120525636Y-138606773D01*
X120525818Y-138606815D01*
X120525820Y-138606817D01*
X120525821Y-138606816D01*
X120535358Y-138609062D01*
X120543524Y-138608861D01*
X128284048Y-139519655D01*
X128348326Y-139547038D01*
X128387597Y-139604828D01*
X128393556Y-139642805D01*
X128393556Y-148163382D01*
X128373871Y-148230421D01*
X128321067Y-148276176D01*
X128283659Y-148286577D01*
X120540246Y-149173028D01*
X120511652Y-149172983D01*
X115045866Y-148529848D01*
X115010623Y-148520287D01*
X112273676Y-147321938D01*
X112268357Y-147319323D01*
X112267770Y-147319283D01*
X112267306Y-147319693D01*
X112264731Y-147324942D01*
X91850172Y-184709863D01*
X91800766Y-184759267D01*
X91777021Y-184769190D01*
X83402581Y-187285243D01*
X83332712Y-187285681D01*
X83306930Y-187275020D01*
X82075575Y-186594617D01*
X82026417Y-186544965D01*
X82011908Y-186476618D01*
X82036653Y-186411277D01*
X82072461Y-186379330D01*
X84800210Y-184767478D01*
X84802624Y-184766610D01*
X84820692Y-184755424D01*
X84820694Y-184755424D01*
X84820695Y-184755422D01*
X84820754Y-184755386D01*
X84820914Y-184755168D01*
X84820931Y-184755099D01*
X84820933Y-184755098D01*
X84820932Y-184755095D01*
X84826214Y-184734713D01*
X84826332Y-184732076D01*
X89286530Y-165862006D01*
X93590700Y-165862006D01*
X93609864Y-166093297D01*
X93609866Y-166093308D01*
X93666842Y-166318300D01*
X93760075Y-166530848D01*
X93887016Y-166725147D01*
X93887019Y-166725151D01*
X93887021Y-166725153D01*
X93981803Y-166828114D01*
X94012724Y-166890767D01*
X94004864Y-166960193D01*
X93960716Y-167014348D01*
X93933906Y-167028277D01*
X93853669Y-167058203D01*
X93853664Y-167058206D01*
X93738455Y-167144452D01*
X93738452Y-167144455D01*
X93652206Y-167259664D01*
X93652202Y-167259671D01*
X93601908Y-167394517D01*
X93595501Y-167454116D01*
X93595501Y-167454123D01*
X93595500Y-167454135D01*
X93595500Y-169349870D01*
X93595501Y-169349876D01*
X93601908Y-169409483D01*
X93652202Y-169544328D01*
X93652206Y-169544335D01*
X93738452Y-169659544D01*
X93738455Y-169659547D01*
X93853664Y-169745793D01*
X93853671Y-169745797D01*
X93988517Y-169796091D01*
X93988516Y-169796091D01*
X93995444Y-169796835D01*
X94048127Y-169802500D01*
X95943872Y-169802499D01*
X96003483Y-169796091D01*
X96138331Y-169745796D01*
X96253546Y-169659546D01*
X96339796Y-169544331D01*
X96390091Y-169409483D01*
X96396500Y-169349873D01*
X96396499Y-167454128D01*
X96390091Y-167394517D01*
X96339796Y-167259669D01*
X96339795Y-167259668D01*
X96339793Y-167259664D01*
X96253547Y-167144455D01*
X96253544Y-167144452D01*
X96138335Y-167058206D01*
X96138328Y-167058202D01*
X96058094Y-167028277D01*
X96002160Y-166986406D01*
X95977743Y-166920941D01*
X95992595Y-166852668D01*
X96010190Y-166828121D01*
X96104979Y-166725153D01*
X96231924Y-166530849D01*
X96325157Y-166318300D01*
X96382134Y-166093305D01*
X96401300Y-165862000D01*
X96401300Y-165861993D01*
X96382135Y-165630702D01*
X96382133Y-165630691D01*
X96325157Y-165405699D01*
X96231924Y-165193151D01*
X96104983Y-164998852D01*
X96104980Y-164998849D01*
X96104979Y-164998847D01*
X95947784Y-164828087D01*
X95947779Y-164828083D01*
X95947777Y-164828081D01*
X95764634Y-164685535D01*
X95764622Y-164685527D01*
X95761473Y-164683823D01*
X95760433Y-164682790D01*
X95760334Y-164682726D01*
X95760347Y-164682705D01*
X95711887Y-164634599D01*
X95696500Y-164574773D01*
X95696500Y-160107519D01*
X95716185Y-160040480D01*
X95732819Y-160019838D01*
X96265838Y-159486819D01*
X96327161Y-159453334D01*
X96353519Y-159450500D01*
X99035079Y-159450500D01*
X99042566Y-159450725D01*
X99102606Y-159454358D01*
X99161782Y-159443513D01*
X99169185Y-159442387D01*
X99172921Y-159441933D01*
X99228872Y-159435140D01*
X99238335Y-159431550D01*
X99259961Y-159425522D01*
X99260893Y-159425351D01*
X99269932Y-159423695D01*
X99324808Y-159398996D01*
X99331678Y-159396150D01*
X99387930Y-159374818D01*
X99396266Y-159369062D01*
X99415821Y-159358034D01*
X99425057Y-159353878D01*
X99472413Y-159316775D01*
X99478404Y-159312366D01*
X99527929Y-159278183D01*
X99567822Y-159233151D01*
X99572924Y-159227731D01*
X104617731Y-154182924D01*
X104623151Y-154177822D01*
X104668183Y-154137929D01*
X104702366Y-154088404D01*
X104706775Y-154082413D01*
X104743878Y-154035057D01*
X104748034Y-154025821D01*
X104759062Y-154006266D01*
X104764818Y-153997930D01*
X104786150Y-153941678D01*
X104789010Y-153934776D01*
X104813693Y-153879936D01*
X104813693Y-153879934D01*
X104813695Y-153879931D01*
X104815522Y-153869959D01*
X104821546Y-153848347D01*
X104825140Y-153838872D01*
X104832387Y-153779184D01*
X104833514Y-153771777D01*
X104844358Y-153712606D01*
X104840726Y-153652565D01*
X104840500Y-153645078D01*
X104840500Y-145943630D01*
X120201170Y-145943630D01*
X120221002Y-146170315D01*
X120221004Y-146170326D01*
X120279896Y-146390117D01*
X120279899Y-146390126D01*
X120376069Y-146596361D01*
X120376070Y-146596363D01*
X120506592Y-146782770D01*
X120667496Y-146943674D01*
X120667499Y-146943676D01*
X120853904Y-147074197D01*
X121060142Y-147170368D01*
X121279946Y-147229264D01*
X121441868Y-147243430D01*
X121506636Y-147249097D01*
X121506638Y-147249097D01*
X121506640Y-147249097D01*
X121563311Y-147244138D01*
X121733330Y-147229264D01*
X121953134Y-147170368D01*
X122159372Y-147074197D01*
X122345777Y-146943676D01*
X122506685Y-146782768D01*
X122637206Y-146596363D01*
X122733377Y-146390125D01*
X122792273Y-146170321D01*
X122812106Y-145943629D01*
X122792273Y-145716937D01*
X122786027Y-145693628D01*
X125307765Y-145693628D01*
X125307766Y-145693629D01*
X126270952Y-145693629D01*
X126258997Y-145705584D01*
X126201473Y-145818481D01*
X126181652Y-145943629D01*
X126201473Y-146068777D01*
X126258997Y-146181674D01*
X126270952Y-146193629D01*
X125307766Y-146193629D01*
X125360368Y-146389946D01*
X125360372Y-146389955D01*
X125456503Y-146596111D01*
X125586980Y-146782449D01*
X125747817Y-146943286D01*
X125934155Y-147073763D01*
X126140311Y-147169894D01*
X126140320Y-147169898D01*
X126336637Y-147222501D01*
X126336638Y-147222500D01*
X126336638Y-146259315D01*
X126348593Y-146271270D01*
X126461490Y-146328794D01*
X126555157Y-146343629D01*
X126618119Y-146343629D01*
X126711786Y-146328794D01*
X126824683Y-146271270D01*
X126836638Y-146259315D01*
X126836638Y-147222501D01*
X127032955Y-147169898D01*
X127032964Y-147169894D01*
X127239120Y-147073763D01*
X127425458Y-146943286D01*
X127586295Y-146782449D01*
X127716772Y-146596111D01*
X127812903Y-146389955D01*
X127812907Y-146389946D01*
X127865510Y-146193629D01*
X126902324Y-146193629D01*
X126914279Y-146181674D01*
X126971803Y-146068777D01*
X126991624Y-145943629D01*
X126971803Y-145818481D01*
X126914279Y-145705584D01*
X126902324Y-145693629D01*
X127865510Y-145693629D01*
X127865510Y-145693628D01*
X127812907Y-145497311D01*
X127812903Y-145497302D01*
X127716772Y-145291146D01*
X127586295Y-145104808D01*
X127425458Y-144943971D01*
X127239120Y-144813494D01*
X127032966Y-144717363D01*
X126836638Y-144664756D01*
X126836638Y-145627943D01*
X126824683Y-145615988D01*
X126711786Y-145558464D01*
X126618119Y-145543629D01*
X126555157Y-145543629D01*
X126461490Y-145558464D01*
X126348593Y-145615988D01*
X126336638Y-145627943D01*
X126336638Y-144664756D01*
X126140309Y-144717363D01*
X125934155Y-144813494D01*
X125747817Y-144943971D01*
X125586980Y-145104808D01*
X125456503Y-145291146D01*
X125360372Y-145497302D01*
X125360368Y-145497311D01*
X125307765Y-145693628D01*
X122786027Y-145693628D01*
X122733377Y-145497133D01*
X122637206Y-145290895D01*
X122506685Y-145104490D01*
X122506683Y-145104487D01*
X122345779Y-144943583D01*
X122159372Y-144813061D01*
X122159370Y-144813060D01*
X121953135Y-144716890D01*
X121953126Y-144716887D01*
X121733335Y-144657995D01*
X121733331Y-144657994D01*
X121733330Y-144657994D01*
X121733329Y-144657993D01*
X121733324Y-144657993D01*
X121506640Y-144638161D01*
X121506636Y-144638161D01*
X121279951Y-144657993D01*
X121279940Y-144657995D01*
X121060149Y-144716887D01*
X121060140Y-144716890D01*
X120853905Y-144813060D01*
X120853903Y-144813061D01*
X120667496Y-144943583D01*
X120506592Y-145104487D01*
X120376070Y-145290894D01*
X120376069Y-145290896D01*
X120279899Y-145497131D01*
X120279896Y-145497140D01*
X120221004Y-145716931D01*
X120221002Y-145716942D01*
X120201170Y-145943627D01*
X120201170Y-145943630D01*
X104840500Y-145943630D01*
X104840500Y-141673386D01*
X120201321Y-141673386D01*
X120221153Y-141900071D01*
X120221155Y-141900082D01*
X120280047Y-142119873D01*
X120280050Y-142119882D01*
X120376220Y-142326117D01*
X120376221Y-142326119D01*
X120506743Y-142512526D01*
X120667647Y-142673430D01*
X120667650Y-142673432D01*
X120854055Y-142803953D01*
X121060293Y-142900124D01*
X121280097Y-142959020D01*
X121442019Y-142973186D01*
X121506787Y-142978853D01*
X121506789Y-142978853D01*
X121506791Y-142978853D01*
X121563462Y-142973894D01*
X121733481Y-142959020D01*
X121953285Y-142900124D01*
X122159523Y-142803953D01*
X122345928Y-142673432D01*
X122506836Y-142512524D01*
X122637357Y-142326119D01*
X122733528Y-142119881D01*
X122792424Y-141900077D01*
X122812257Y-141673385D01*
X122792424Y-141446693D01*
X122786178Y-141423384D01*
X125307916Y-141423384D01*
X125307917Y-141423385D01*
X126271103Y-141423385D01*
X126259148Y-141435340D01*
X126201624Y-141548237D01*
X126181803Y-141673385D01*
X126201624Y-141798533D01*
X126259148Y-141911430D01*
X126271103Y-141923385D01*
X125307917Y-141923385D01*
X125360519Y-142119702D01*
X125360523Y-142119711D01*
X125456654Y-142325867D01*
X125587131Y-142512205D01*
X125747968Y-142673042D01*
X125934306Y-142803519D01*
X126140462Y-142899650D01*
X126140471Y-142899654D01*
X126336788Y-142952257D01*
X126336789Y-142952256D01*
X126336789Y-141989071D01*
X126348744Y-142001026D01*
X126461641Y-142058550D01*
X126555308Y-142073385D01*
X126618270Y-142073385D01*
X126711937Y-142058550D01*
X126824834Y-142001026D01*
X126836789Y-141989071D01*
X126836789Y-142952257D01*
X127033106Y-142899654D01*
X127033115Y-142899650D01*
X127239271Y-142803519D01*
X127425609Y-142673042D01*
X127586446Y-142512205D01*
X127716923Y-142325867D01*
X127813054Y-142119711D01*
X127813058Y-142119702D01*
X127865661Y-141923385D01*
X126902475Y-141923385D01*
X126914430Y-141911430D01*
X126971954Y-141798533D01*
X126991775Y-141673385D01*
X126971954Y-141548237D01*
X126914430Y-141435340D01*
X126902475Y-141423385D01*
X127865661Y-141423385D01*
X127865661Y-141423384D01*
X127813058Y-141227067D01*
X127813054Y-141227058D01*
X127716923Y-141020902D01*
X127586446Y-140834564D01*
X127425609Y-140673727D01*
X127239271Y-140543250D01*
X127033117Y-140447119D01*
X126836789Y-140394512D01*
X126836789Y-141357699D01*
X126824834Y-141345744D01*
X126711937Y-141288220D01*
X126618270Y-141273385D01*
X126555308Y-141273385D01*
X126461641Y-141288220D01*
X126348744Y-141345744D01*
X126336789Y-141357699D01*
X126336789Y-140394512D01*
X126140460Y-140447119D01*
X125934306Y-140543250D01*
X125747968Y-140673727D01*
X125587131Y-140834564D01*
X125456654Y-141020902D01*
X125360523Y-141227058D01*
X125360519Y-141227067D01*
X125307916Y-141423384D01*
X122786178Y-141423384D01*
X122733528Y-141226889D01*
X122637357Y-141020651D01*
X122506836Y-140834246D01*
X122506834Y-140834243D01*
X122345930Y-140673339D01*
X122159523Y-140542817D01*
X122159521Y-140542816D01*
X121953286Y-140446646D01*
X121953277Y-140446643D01*
X121733486Y-140387751D01*
X121733482Y-140387750D01*
X121733481Y-140387750D01*
X121733480Y-140387749D01*
X121733475Y-140387749D01*
X121506791Y-140367917D01*
X121506787Y-140367917D01*
X121280102Y-140387749D01*
X121280091Y-140387751D01*
X121060300Y-140446643D01*
X121060291Y-140446646D01*
X120854056Y-140542816D01*
X120854054Y-140542817D01*
X120667647Y-140673339D01*
X120506743Y-140834243D01*
X120376221Y-141020650D01*
X120376220Y-141020652D01*
X120280050Y-141226887D01*
X120280047Y-141226896D01*
X120221155Y-141446687D01*
X120221153Y-141446698D01*
X120201321Y-141673383D01*
X120201321Y-141673386D01*
X104840500Y-141673386D01*
X104840500Y-137501518D01*
X104860185Y-137434479D01*
X104876814Y-137413842D01*
X111983731Y-130306924D01*
X111989151Y-130301822D01*
X112034183Y-130261929D01*
X112068366Y-130212404D01*
X112072775Y-130206413D01*
X112109878Y-130159057D01*
X112114034Y-130149821D01*
X112125062Y-130130266D01*
X112130818Y-130121930D01*
X112152150Y-130065678D01*
X112154996Y-130058808D01*
X112179695Y-130003932D01*
X112181522Y-129993962D01*
X112187549Y-129972338D01*
X112191140Y-129962872D01*
X112198390Y-129903157D01*
X112199509Y-129895799D01*
X112210357Y-129836606D01*
X112206726Y-129776577D01*
X112206500Y-129769090D01*
X112206500Y-120928920D01*
X112206726Y-120921432D01*
X112210358Y-120861394D01*
X112199514Y-120802221D01*
X112198387Y-120794815D01*
X112198128Y-120792689D01*
X112191140Y-120735128D01*
X112187548Y-120725656D01*
X112181521Y-120704034D01*
X112179695Y-120694071D01*
X112179693Y-120694063D01*
X112155009Y-120639221D01*
X112152154Y-120632331D01*
X112130818Y-120576070D01*
X112125062Y-120567731D01*
X112114034Y-120548177D01*
X112109880Y-120538946D01*
X112095743Y-120520902D01*
X112072780Y-120491591D01*
X112068352Y-120485573D01*
X112034183Y-120436071D01*
X111989153Y-120396178D01*
X111983715Y-120391058D01*
X109224940Y-117632283D01*
X109219805Y-117626828D01*
X109179929Y-117581816D01*
X109179924Y-117581812D01*
X109130438Y-117547655D01*
X109124403Y-117543215D01*
X109077060Y-117506124D01*
X109077055Y-117506120D01*
X109067813Y-117501961D01*
X109048266Y-117490936D01*
X109039931Y-117485183D01*
X109039932Y-117485183D01*
X109039930Y-117485182D01*
X108983694Y-117463854D01*
X108976790Y-117460994D01*
X108921932Y-117436305D01*
X108921930Y-117436304D01*
X108911946Y-117434474D01*
X108890343Y-117428451D01*
X108880874Y-117424860D01*
X108880871Y-117424859D01*
X108821171Y-117417610D01*
X108813770Y-117416483D01*
X108754609Y-117405642D01*
X108754603Y-117405642D01*
X108694567Y-117409274D01*
X108687079Y-117409500D01*
X103465519Y-117409500D01*
X103398480Y-117389815D01*
X103377838Y-117373181D01*
X101296578Y-115291921D01*
X101291443Y-115286466D01*
X101251567Y-115241454D01*
X101251562Y-115241450D01*
X101202076Y-115207293D01*
X101196041Y-115202853D01*
X101148698Y-115165762D01*
X101148693Y-115165758D01*
X101139451Y-115161599D01*
X101119904Y-115150574D01*
X101111569Y-115144821D01*
X101111570Y-115144821D01*
X101111568Y-115144820D01*
X101055332Y-115123492D01*
X101048428Y-115120632D01*
X100993570Y-115095943D01*
X100993568Y-115095942D01*
X100983584Y-115094112D01*
X100961981Y-115088089D01*
X100952512Y-115084498D01*
X100952509Y-115084497D01*
X100892809Y-115077248D01*
X100885408Y-115076121D01*
X100826247Y-115065280D01*
X100826241Y-115065280D01*
X100766205Y-115068912D01*
X100758717Y-115069138D01*
X100482606Y-115069138D01*
X100415567Y-115049453D01*
X100369812Y-114996649D01*
X100359248Y-114957740D01*
X100355717Y-114923186D01*
X100349999Y-114867203D01*
X100294814Y-114700666D01*
X100202712Y-114551344D01*
X100078656Y-114427288D01*
X99935451Y-114338959D01*
X99929336Y-114335187D01*
X99929331Y-114335185D01*
X99885645Y-114320709D01*
X99762797Y-114280001D01*
X99762795Y-114280000D01*
X99660010Y-114269500D01*
X98459998Y-114269500D01*
X98459981Y-114269501D01*
X98357203Y-114280000D01*
X98357200Y-114280001D01*
X98190668Y-114335185D01*
X98190663Y-114335187D01*
X98041342Y-114427289D01*
X97917289Y-114551342D01*
X97825187Y-114700663D01*
X97825186Y-114700666D01*
X97770001Y-114867203D01*
X97770001Y-114867204D01*
X97770000Y-114867204D01*
X97759500Y-114969983D01*
X97759500Y-116170001D01*
X97759501Y-116170018D01*
X97770000Y-116272796D01*
X97770001Y-116272799D01*
X97825185Y-116439331D01*
X97825186Y-116439334D01*
X97917288Y-116588656D01*
X98041344Y-116712712D01*
X98190666Y-116804814D01*
X98357203Y-116859999D01*
X98459991Y-116870500D01*
X99660008Y-116870499D01*
X99762797Y-116859999D01*
X99929334Y-116804814D01*
X100078656Y-116712712D01*
X100202712Y-116588656D01*
X100239482Y-116529042D01*
X100291430Y-116482317D01*
X100345021Y-116470138D01*
X100442119Y-116470138D01*
X100509158Y-116489823D01*
X100529800Y-116506457D01*
X102611058Y-118587715D01*
X102616178Y-118593153D01*
X102656071Y-118638183D01*
X102705573Y-118672352D01*
X102711591Y-118676780D01*
X102758944Y-118713878D01*
X102758947Y-118713880D01*
X102758946Y-118713880D01*
X102768177Y-118718034D01*
X102787731Y-118729062D01*
X102796070Y-118734818D01*
X102852331Y-118756154D01*
X102859208Y-118759003D01*
X102880563Y-118768615D01*
X102914063Y-118783693D01*
X102914066Y-118783693D01*
X102914069Y-118783695D01*
X102924034Y-118785521D01*
X102945656Y-118791548D01*
X102948777Y-118792731D01*
X102955128Y-118795140D01*
X103012689Y-118802128D01*
X103014815Y-118802387D01*
X103022222Y-118803514D01*
X103081394Y-118814358D01*
X103141433Y-118810725D01*
X103148921Y-118810500D01*
X108370481Y-118810500D01*
X108437520Y-118830185D01*
X108458162Y-118846819D01*
X110769181Y-121157838D01*
X110802666Y-121219161D01*
X110805500Y-121245519D01*
X110805500Y-129452480D01*
X110785815Y-129519519D01*
X110769181Y-129540161D01*
X103662290Y-136647051D01*
X103656838Y-136652183D01*
X103611819Y-136692068D01*
X103577649Y-136741569D01*
X103573213Y-136747597D01*
X103536124Y-136794938D01*
X103536119Y-136794948D01*
X103531960Y-136804188D01*
X103520942Y-136823723D01*
X103515187Y-136832061D01*
X103515179Y-136832076D01*
X103493853Y-136888305D01*
X103490989Y-136895220D01*
X103466305Y-136950068D01*
X103464477Y-136960042D01*
X103458453Y-136981653D01*
X103454860Y-136991127D01*
X103454860Y-136991128D01*
X103447610Y-137050827D01*
X103446483Y-137058227D01*
X103435642Y-137117389D01*
X103435642Y-137117395D01*
X103439274Y-137177432D01*
X103439500Y-137184920D01*
X103439500Y-153328481D01*
X103419815Y-153395520D01*
X103403181Y-153416162D01*
X98806162Y-158013181D01*
X98744839Y-158046666D01*
X98718481Y-158049500D01*
X96036921Y-158049500D01*
X96029433Y-158049274D01*
X95969396Y-158045642D01*
X95969389Y-158045642D01*
X95910227Y-158056483D01*
X95902827Y-158057610D01*
X95843128Y-158064860D01*
X95843127Y-158064860D01*
X95833653Y-158068453D01*
X95812042Y-158074477D01*
X95802068Y-158076305D01*
X95747220Y-158100989D01*
X95740305Y-158103853D01*
X95684076Y-158125179D01*
X95684061Y-158125187D01*
X95675723Y-158130942D01*
X95656188Y-158141960D01*
X95646948Y-158146119D01*
X95646938Y-158146124D01*
X95599597Y-158183213D01*
X95593569Y-158187649D01*
X95544068Y-158221819D01*
X95504183Y-158266838D01*
X95499051Y-158272290D01*
X94518290Y-159253051D01*
X94512838Y-159258183D01*
X94467819Y-159298068D01*
X94433649Y-159347569D01*
X94429213Y-159353597D01*
X94392124Y-159400938D01*
X94392119Y-159400948D01*
X94387960Y-159410188D01*
X94376942Y-159429723D01*
X94371187Y-159438061D01*
X94371179Y-159438076D01*
X94349853Y-159494305D01*
X94346989Y-159501220D01*
X94322305Y-159556068D01*
X94320477Y-159566042D01*
X94314453Y-159587653D01*
X94310860Y-159597127D01*
X94310860Y-159597128D01*
X94303610Y-159656827D01*
X94302483Y-159664227D01*
X94291642Y-159723389D01*
X94291642Y-159723395D01*
X94295274Y-159783432D01*
X94295500Y-159790920D01*
X94295500Y-164574773D01*
X94275815Y-164641812D01*
X94230527Y-164683823D01*
X94227377Y-164685527D01*
X94227365Y-164685535D01*
X94044222Y-164828081D01*
X94044219Y-164828084D01*
X93887016Y-164998852D01*
X93760075Y-165193151D01*
X93666842Y-165405699D01*
X93609866Y-165630691D01*
X93609864Y-165630702D01*
X93590700Y-165861993D01*
X93590700Y-165862006D01*
X89286530Y-165862006D01*
X89319641Y-165721920D01*
X89322833Y-165713100D01*
X89322945Y-165709787D01*
X89323074Y-165707343D01*
X89320962Y-165705763D01*
X89318929Y-165704175D01*
X89310324Y-165701034D01*
X86562548Y-164342335D01*
X86511178Y-164294974D01*
X86493569Y-164227360D01*
X86515310Y-164160959D01*
X86569498Y-164116853D01*
X86571459Y-164116049D01*
X90009368Y-162743666D01*
X90017581Y-162741597D01*
X90025073Y-162737412D01*
X90025144Y-162737244D01*
X90025147Y-162737242D01*
X90025147Y-162737238D01*
X90028526Y-162729338D01*
X90029720Y-162720954D01*
X92076678Y-155493513D01*
X92077806Y-155489852D01*
X92077779Y-155489575D01*
X92077726Y-155489473D01*
X92077460Y-155489253D01*
X92074052Y-155488209D01*
X89570083Y-154667591D01*
X89543447Y-154655200D01*
X87361044Y-153304615D01*
X87314396Y-153252598D01*
X87303276Y-153183619D01*
X87331215Y-153119578D01*
X87363583Y-153092201D01*
X89419397Y-151887070D01*
X89462265Y-151871643D01*
X93207562Y-151264710D01*
X93214059Y-151264697D01*
X93222619Y-151262641D01*
X93227742Y-151261620D01*
X93227864Y-151261540D01*
X93227971Y-151261377D01*
X93229110Y-151255466D01*
X93230894Y-151248078D01*
X93230868Y-151241199D01*
X94252903Y-144720450D01*
X94254301Y-144713730D01*
X94254091Y-144713406D01*
X94253367Y-144713006D01*
X94247339Y-144711732D01*
X90903835Y-143834592D01*
X90864125Y-143816189D01*
X89051918Y-142545867D01*
X89008321Y-142491267D01*
X89001164Y-142421765D01*
X89032719Y-142359427D01*
X89055919Y-142340101D01*
X90842638Y-141188681D01*
X90887944Y-141170857D01*
X94236171Y-140571439D01*
X94244190Y-140570721D01*
X94245770Y-140570067D01*
X94246948Y-140569585D01*
X94247279Y-140569451D01*
X94247288Y-140569450D01*
X94247295Y-140569444D01*
X94247546Y-140569344D01*
X94247557Y-140569293D01*
X94247916Y-140567592D01*
X94248304Y-140565812D01*
X94247602Y-140557806D01*
X94247602Y-129790000D01*
X97760001Y-129790000D01*
X97760001Y-130139986D01*
X97770494Y-130242697D01*
X97825641Y-130409119D01*
X97825643Y-130409124D01*
X97917684Y-130558345D01*
X98041654Y-130682315D01*
X98190875Y-130774356D01*
X98190880Y-130774358D01*
X98357302Y-130829505D01*
X98357309Y-130829506D01*
X98460019Y-130839999D01*
X98809999Y-130839999D01*
X98810000Y-130839998D01*
X98810000Y-129790000D01*
X97760001Y-129790000D01*
X94247602Y-129790000D01*
X94247602Y-129604437D01*
X94247603Y-129603989D01*
X94247643Y-129592905D01*
X94247487Y-129592525D01*
X94247485Y-129592523D01*
X94247467Y-129592512D01*
X94247104Y-129592365D01*
X94231635Y-129592365D01*
X63294361Y-129511840D01*
X98756105Y-129511840D01*
X98766454Y-129623521D01*
X98816448Y-129723922D01*
X98899334Y-129799484D01*
X99003920Y-129840000D01*
X99087802Y-129840000D01*
X99170250Y-129824588D01*
X99226111Y-129790000D01*
X99310000Y-129790000D01*
X99310000Y-130839999D01*
X99659972Y-130839999D01*
X99659986Y-130839998D01*
X99762697Y-130829505D01*
X99929119Y-130774358D01*
X99929124Y-130774356D01*
X100078345Y-130682315D01*
X100202315Y-130558345D01*
X100294356Y-130409124D01*
X100294358Y-130409119D01*
X100349505Y-130242697D01*
X100349506Y-130242690D01*
X100359999Y-130139986D01*
X100360000Y-130139973D01*
X100360000Y-129790000D01*
X99310000Y-129790000D01*
X99226111Y-129790000D01*
X99265610Y-129765543D01*
X99333201Y-129676038D01*
X99363895Y-129568160D01*
X99353546Y-129456479D01*
X99303552Y-129356078D01*
X99220666Y-129280516D01*
X99116080Y-129240000D01*
X99032198Y-129240000D01*
X98949750Y-129255412D01*
X98854390Y-129314457D01*
X98786799Y-129403962D01*
X98756105Y-129511840D01*
X63294361Y-129511840D01*
X55124078Y-129490574D01*
X55112013Y-129489954D01*
X53120559Y-129290000D01*
X97760000Y-129290000D01*
X98810000Y-129290000D01*
X98810000Y-128240000D01*
X99310000Y-128240000D01*
X99310000Y-129290000D01*
X100359999Y-129290000D01*
X100359999Y-128940028D01*
X100359998Y-128940013D01*
X100349505Y-128837302D01*
X100294358Y-128670880D01*
X100294356Y-128670875D01*
X100202315Y-128521654D01*
X100078345Y-128397684D01*
X99929124Y-128305643D01*
X99929119Y-128305641D01*
X99762697Y-128250494D01*
X99762690Y-128250493D01*
X99659986Y-128240000D01*
X99310000Y-128240000D01*
X98810000Y-128240000D01*
X98460028Y-128240000D01*
X98460012Y-128240001D01*
X98357302Y-128250494D01*
X98190880Y-128305641D01*
X98190875Y-128305643D01*
X98041654Y-128397684D01*
X97917684Y-128521654D01*
X97825643Y-128670875D01*
X97825641Y-128670880D01*
X97770494Y-128837302D01*
X97770493Y-128837309D01*
X97760000Y-128940013D01*
X97760000Y-129290000D01*
X53120559Y-129290000D01*
X50553154Y-129032217D01*
X50538872Y-129029935D01*
X50369369Y-128992604D01*
X50369370Y-128992604D01*
X50198088Y-128971911D01*
X50010039Y-128949192D01*
X50010034Y-128949191D01*
X50010025Y-128949191D01*
X49672302Y-128941154D01*
X49648199Y-128940581D01*
X49648198Y-128940581D01*
X49648197Y-128940581D01*
X49287212Y-128966851D01*
X48930428Y-129027759D01*
X48581186Y-129122733D01*
X48581174Y-129122737D01*
X48242674Y-129250908D01*
X47918113Y-129411066D01*
X47918105Y-129411070D01*
X47610460Y-129601743D01*
X47322613Y-129821146D01*
X47322607Y-129821151D01*
X47057214Y-130067260D01*
X46941932Y-130196980D01*
X46940580Y-130198332D01*
X46937809Y-130201582D01*
X46936195Y-130203437D01*
X46908390Y-130234760D01*
X46903796Y-130241403D01*
X45834454Y-131493366D01*
X45831127Y-131496921D01*
X45829965Y-131498416D01*
X45827352Y-131502481D01*
X36298252Y-144943583D01*
X33936781Y-148274514D01*
X33610179Y-148735196D01*
X33555349Y-148778501D01*
X33509022Y-148787480D01*
X27443906Y-148787480D01*
X27376867Y-148767795D01*
X27331112Y-148714991D01*
X27321168Y-148645833D01*
X27323106Y-148635491D01*
X27347854Y-148528678D01*
X32510106Y-126248383D01*
X32512500Y-126240918D01*
X32512500Y-126240463D01*
X32512548Y-126237726D01*
X32510409Y-126236252D01*
X32509966Y-126235936D01*
X32502612Y-126233563D01*
X28402661Y-124532537D01*
X28402440Y-124532444D01*
X27272701Y-124061161D01*
X26757605Y-123846284D01*
X26729503Y-123829943D01*
X26469543Y-123628949D01*
X26428548Y-123572370D01*
X26424649Y-123502609D01*
X26459085Y-123441815D01*
X26520922Y-123409289D01*
X26545136Y-123406851D01*
X108178526Y-123241087D01*
X108199358Y-123241087D01*
X108199319Y-123219572D01*
X108199319Y-123219329D01*
X108199529Y-121914252D01*
X108199531Y-121913836D01*
X108199570Y-121907179D01*
X108199573Y-121907175D01*
X108199571Y-121907170D01*
X108199417Y-121906793D01*
X108199416Y-121906792D01*
X108199399Y-121906780D01*
X108199033Y-121906633D01*
X108174928Y-121906633D01*
X108174928Y-121906605D01*
X108174734Y-121906637D01*
X26533481Y-121787122D01*
X26466471Y-121767339D01*
X26420793Y-121714468D01*
X26410951Y-121645295D01*
X26440069Y-121581782D01*
X26457810Y-121565028D01*
X26746770Y-121341612D01*
X26774862Y-121325277D01*
X28347720Y-120669142D01*
X28351903Y-120667718D01*
X28359768Y-120664146D01*
X28360141Y-120663992D01*
X28364030Y-120661695D01*
X32499406Y-118624759D01*
X32507979Y-118621680D01*
X32511200Y-118619243D01*
X32512542Y-118618255D01*
X32512455Y-118616564D01*
X32512311Y-118612763D01*
X32509272Y-118604219D01*
X32505391Y-118587715D01*
X28041272Y-99601585D01*
X27323722Y-96549809D01*
X27327540Y-96480043D01*
X27368469Y-96423417D01*
X27433516Y-96397908D01*
X27444430Y-96397427D01*
X33509022Y-96397427D01*
X33576061Y-96417112D01*
X33610178Y-96449710D01*
X41587058Y-107701355D01*
X45826025Y-113680553D01*
X45828116Y-113683943D01*
X45828158Y-113683995D01*
X45832997Y-113690405D01*
X45833177Y-113690660D01*
X45835877Y-113693612D01*
X46296939Y-114269500D01*
X46879101Y-114996649D01*
X46886794Y-115006257D01*
X46889635Y-115013179D01*
X46916580Y-115043498D01*
X46916580Y-115043499D01*
X46935937Y-115065280D01*
X47036794Y-115178769D01*
X47036806Y-115178780D01*
X47302181Y-115424872D01*
X47302188Y-115424877D01*
X47302192Y-115424881D01*
X47590050Y-115644292D01*
X47897698Y-115834966D01*
X48222276Y-115995130D01*
X48560768Y-116123298D01*
X48910028Y-116218276D01*
X49266811Y-116279184D01*
X49627801Y-116305454D01*
X49989643Y-116296843D01*
X50348974Y-116253431D01*
X50518164Y-116216167D01*
X50533327Y-116213802D01*
X55610159Y-115741181D01*
X55618259Y-115740694D01*
X61059956Y-115592547D01*
X61063331Y-115592502D01*
X94222342Y-115592502D01*
X94222485Y-115592530D01*
X94222486Y-115592526D01*
X94247099Y-115592541D01*
X94247102Y-115592543D01*
X94247485Y-115592385D01*
X94247602Y-115592101D01*
X94247643Y-115592002D01*
X94247642Y-115591999D01*
X94247685Y-115567891D01*
X94247602Y-115567469D01*
X94247602Y-104627416D01*
X94248338Y-104619272D01*
X94247924Y-104617365D01*
X94247548Y-104615563D01*
X94244280Y-104614236D01*
X94236451Y-104613517D01*
X90879029Y-104012453D01*
X90849109Y-104003069D01*
X89765128Y-103505001D01*
X119979532Y-103505001D01*
X119999364Y-103731686D01*
X119999366Y-103731697D01*
X120058258Y-103951488D01*
X120058261Y-103951497D01*
X120154431Y-104157732D01*
X120154432Y-104157734D01*
X120284954Y-104344141D01*
X120445858Y-104505045D01*
X120445861Y-104505047D01*
X120632266Y-104635568D01*
X120838504Y-104731739D01*
X121058308Y-104790635D01*
X121220230Y-104804801D01*
X121284998Y-104810468D01*
X121285000Y-104810468D01*
X121285002Y-104810468D01*
X121341673Y-104805509D01*
X121511692Y-104790635D01*
X121731496Y-104731739D01*
X121937734Y-104635568D01*
X122124139Y-104505047D01*
X122285047Y-104344139D01*
X122415568Y-104157734D01*
X122511739Y-103951496D01*
X122570635Y-103731692D01*
X122590468Y-103505000D01*
X122570635Y-103278308D01*
X122564389Y-103254999D01*
X125086127Y-103254999D01*
X125086128Y-103255000D01*
X126049314Y-103255000D01*
X126037359Y-103266955D01*
X125979835Y-103379852D01*
X125960014Y-103505000D01*
X125979835Y-103630148D01*
X126037359Y-103743045D01*
X126049314Y-103755000D01*
X125086128Y-103755000D01*
X125138730Y-103951317D01*
X125138734Y-103951326D01*
X125234865Y-104157482D01*
X125365342Y-104343820D01*
X125526179Y-104504657D01*
X125712517Y-104635134D01*
X125918673Y-104731265D01*
X125918682Y-104731269D01*
X126114999Y-104783872D01*
X126115000Y-104783871D01*
X126115000Y-103820686D01*
X126126955Y-103832641D01*
X126239852Y-103890165D01*
X126333519Y-103905000D01*
X126396481Y-103905000D01*
X126490148Y-103890165D01*
X126603045Y-103832641D01*
X126615000Y-103820686D01*
X126615000Y-104783872D01*
X126811317Y-104731269D01*
X126811326Y-104731265D01*
X127017482Y-104635134D01*
X127203820Y-104504657D01*
X127364657Y-104343820D01*
X127495134Y-104157482D01*
X127591265Y-103951326D01*
X127591269Y-103951317D01*
X127643872Y-103755000D01*
X126680686Y-103755000D01*
X126692641Y-103743045D01*
X126750165Y-103630148D01*
X126769986Y-103505000D01*
X126750165Y-103379852D01*
X126692641Y-103266955D01*
X126680686Y-103255000D01*
X127643872Y-103255000D01*
X127643872Y-103254999D01*
X127591269Y-103058682D01*
X127591265Y-103058673D01*
X127495134Y-102852517D01*
X127364657Y-102666179D01*
X127203820Y-102505342D01*
X127017482Y-102374865D01*
X126811328Y-102278734D01*
X126615000Y-102226127D01*
X126615000Y-103189314D01*
X126603045Y-103177359D01*
X126490148Y-103119835D01*
X126396481Y-103105000D01*
X126333519Y-103105000D01*
X126239852Y-103119835D01*
X126126955Y-103177359D01*
X126115000Y-103189314D01*
X126115000Y-102226127D01*
X125918671Y-102278734D01*
X125712517Y-102374865D01*
X125526179Y-102505342D01*
X125365342Y-102666179D01*
X125234865Y-102852517D01*
X125138734Y-103058673D01*
X125138730Y-103058682D01*
X125086127Y-103254999D01*
X122564389Y-103254999D01*
X122511739Y-103058504D01*
X122415568Y-102852266D01*
X122285047Y-102665861D01*
X122285045Y-102665858D01*
X122124141Y-102504954D01*
X121937734Y-102374432D01*
X121937732Y-102374431D01*
X121731497Y-102278261D01*
X121731488Y-102278258D01*
X121511697Y-102219366D01*
X121511693Y-102219365D01*
X121511692Y-102219365D01*
X121511691Y-102219364D01*
X121511686Y-102219364D01*
X121285002Y-102199532D01*
X121284998Y-102199532D01*
X121058313Y-102219364D01*
X121058302Y-102219366D01*
X120838511Y-102278258D01*
X120838502Y-102278261D01*
X120632267Y-102374431D01*
X120632265Y-102374432D01*
X120445858Y-102504954D01*
X120284954Y-102665858D01*
X120154432Y-102852265D01*
X120154431Y-102852267D01*
X120058261Y-103058502D01*
X120058258Y-103058511D01*
X119999366Y-103278302D01*
X119999364Y-103278313D01*
X119979532Y-103504998D01*
X119979532Y-103505001D01*
X89765128Y-103505001D01*
X89221031Y-103254999D01*
X88760118Y-103043218D01*
X88707421Y-102997342D01*
X88687891Y-102930257D01*
X88707731Y-102863264D01*
X88746151Y-102825405D01*
X90849224Y-101510510D01*
X90879696Y-101496773D01*
X93911743Y-100597652D01*
X93919826Y-100596047D01*
X93921672Y-100595044D01*
X93923074Y-100594293D01*
X93923076Y-100594293D01*
X93923077Y-100594291D01*
X93923107Y-100594276D01*
X93923319Y-100594164D01*
X93923345Y-100593894D01*
X93923347Y-100593889D01*
X93923346Y-100593883D01*
X93923454Y-100592785D01*
X93923541Y-100591925D01*
X93923716Y-100590244D01*
X93922130Y-100582221D01*
X93773300Y-99155089D01*
X120010693Y-99155089D01*
X120030525Y-99381774D01*
X120030527Y-99381785D01*
X120089419Y-99601576D01*
X120089422Y-99601585D01*
X120185592Y-99807820D01*
X120185593Y-99807822D01*
X120316115Y-99994229D01*
X120477019Y-100155133D01*
X120477022Y-100155135D01*
X120663427Y-100285656D01*
X120869665Y-100381827D01*
X121089469Y-100440723D01*
X121251391Y-100454889D01*
X121316159Y-100460556D01*
X121316161Y-100460556D01*
X121316163Y-100460556D01*
X121372834Y-100455597D01*
X121542853Y-100440723D01*
X121762657Y-100381827D01*
X121968895Y-100285656D01*
X122155300Y-100155135D01*
X122316208Y-99994227D01*
X122446729Y-99807822D01*
X122542900Y-99601584D01*
X122601796Y-99381780D01*
X122621629Y-99155088D01*
X122601796Y-98928396D01*
X122595550Y-98905087D01*
X125117288Y-98905087D01*
X125117289Y-98905088D01*
X126080475Y-98905088D01*
X126068520Y-98917043D01*
X126010996Y-99029940D01*
X125991175Y-99155088D01*
X126010996Y-99280236D01*
X126068520Y-99393133D01*
X126080475Y-99405088D01*
X125117289Y-99405088D01*
X125169891Y-99601405D01*
X125169895Y-99601414D01*
X125266026Y-99807570D01*
X125396503Y-99993908D01*
X125557340Y-100154745D01*
X125743678Y-100285222D01*
X125949834Y-100381353D01*
X125949843Y-100381357D01*
X126146160Y-100433960D01*
X126146161Y-100433959D01*
X126146161Y-99470774D01*
X126158116Y-99482729D01*
X126271013Y-99540253D01*
X126364680Y-99555088D01*
X126427642Y-99555088D01*
X126521309Y-99540253D01*
X126634206Y-99482729D01*
X126646161Y-99470774D01*
X126646161Y-100433960D01*
X126842478Y-100381357D01*
X126842487Y-100381353D01*
X127048643Y-100285222D01*
X127234981Y-100154745D01*
X127395818Y-99993908D01*
X127526295Y-99807570D01*
X127622426Y-99601414D01*
X127622430Y-99601405D01*
X127675033Y-99405088D01*
X126711847Y-99405088D01*
X126723802Y-99393133D01*
X126781326Y-99280236D01*
X126801147Y-99155088D01*
X126781326Y-99029940D01*
X126723802Y-98917043D01*
X126711847Y-98905088D01*
X127675033Y-98905088D01*
X127675033Y-98905087D01*
X127622430Y-98708770D01*
X127622426Y-98708761D01*
X127526295Y-98502605D01*
X127395818Y-98316267D01*
X127234981Y-98155430D01*
X127048643Y-98024953D01*
X126842489Y-97928822D01*
X126646161Y-97876215D01*
X126646161Y-98839402D01*
X126634206Y-98827447D01*
X126521309Y-98769923D01*
X126427642Y-98755088D01*
X126364680Y-98755088D01*
X126271013Y-98769923D01*
X126158116Y-98827447D01*
X126146161Y-98839402D01*
X126146161Y-97876215D01*
X125949832Y-97928822D01*
X125743678Y-98024953D01*
X125557340Y-98155430D01*
X125396503Y-98316267D01*
X125266026Y-98502605D01*
X125169895Y-98708761D01*
X125169891Y-98708770D01*
X125117288Y-98905087D01*
X122595550Y-98905087D01*
X122542900Y-98708592D01*
X122446729Y-98502354D01*
X122316208Y-98315949D01*
X122316206Y-98315946D01*
X122155302Y-98155042D01*
X121968895Y-98024520D01*
X121968893Y-98024519D01*
X121762658Y-97928349D01*
X121762649Y-97928346D01*
X121542858Y-97869454D01*
X121542854Y-97869453D01*
X121542853Y-97869453D01*
X121542852Y-97869452D01*
X121542847Y-97869452D01*
X121316163Y-97849620D01*
X121316159Y-97849620D01*
X121089474Y-97869452D01*
X121089463Y-97869454D01*
X120869672Y-97928346D01*
X120869663Y-97928349D01*
X120663428Y-98024519D01*
X120663426Y-98024520D01*
X120477019Y-98155042D01*
X120316115Y-98315946D01*
X120185593Y-98502353D01*
X120185592Y-98502355D01*
X120089422Y-98708590D01*
X120089419Y-98708599D01*
X120030527Y-98928390D01*
X120030525Y-98928401D01*
X120010693Y-99155086D01*
X120010693Y-99155089D01*
X93773300Y-99155089D01*
X93705229Y-98502353D01*
X93230184Y-93947145D01*
X93230586Y-93942202D01*
X93228233Y-93926940D01*
X93227817Y-93923704D01*
X93227695Y-93923489D01*
X93227583Y-93923402D01*
X93224768Y-93922641D01*
X93211664Y-93918786D01*
X93207150Y-93918443D01*
X89503275Y-93009144D01*
X89482772Y-93002163D01*
X87428810Y-92095660D01*
X87375426Y-92050583D01*
X87354887Y-91983800D01*
X87373714Y-91916515D01*
X87423913Y-91871064D01*
X89483798Y-90852509D01*
X89502271Y-90845154D01*
X91688465Y-90172225D01*
X91694340Y-90170696D01*
X91694425Y-90170632D01*
X91694746Y-90170087D01*
X91694764Y-90169954D01*
X91693253Y-90164179D01*
X90027863Y-82460385D01*
X90026918Y-82451804D01*
X90025083Y-82447516D01*
X90021490Y-82445181D01*
X90013370Y-82442838D01*
X89825648Y-82367901D01*
X93590700Y-82367901D01*
X93609864Y-82599192D01*
X93609866Y-82599203D01*
X93666842Y-82824195D01*
X93760075Y-83036743D01*
X93887016Y-83231042D01*
X93887019Y-83231046D01*
X93887021Y-83231048D01*
X94044216Y-83401808D01*
X94044219Y-83401810D01*
X94044222Y-83401813D01*
X94227365Y-83544359D01*
X94227371Y-83544363D01*
X94227374Y-83544365D01*
X94431497Y-83654831D01*
X94545487Y-83693963D01*
X94651015Y-83730192D01*
X94651017Y-83730192D01*
X94651019Y-83730193D01*
X94879951Y-83768395D01*
X94879952Y-83768395D01*
X95112048Y-83768395D01*
X95112049Y-83768395D01*
X95340981Y-83730193D01*
X95560503Y-83654831D01*
X95764626Y-83544365D01*
X95947784Y-83401808D01*
X96104979Y-83231048D01*
X96231924Y-83036744D01*
X96325157Y-82824195D01*
X96382134Y-82599200D01*
X96393636Y-82460392D01*
X96401300Y-82367901D01*
X96401300Y-82367888D01*
X96382135Y-82136597D01*
X96382133Y-82136586D01*
X96325157Y-81911594D01*
X96231924Y-81699046D01*
X96104983Y-81504747D01*
X96104980Y-81504744D01*
X96104979Y-81504742D01*
X96010195Y-81401779D01*
X95979275Y-81339127D01*
X95987135Y-81269701D01*
X96031283Y-81215546D01*
X96058095Y-81201617D01*
X96138326Y-81171693D01*
X96138326Y-81171692D01*
X96138331Y-81171691D01*
X96253546Y-81085441D01*
X96339796Y-80970226D01*
X96390091Y-80835378D01*
X96396500Y-80775768D01*
X96396499Y-78880023D01*
X96390091Y-78820412D01*
X96339796Y-78685564D01*
X96339795Y-78685563D01*
X96339793Y-78685559D01*
X96253547Y-78570350D01*
X96253544Y-78570347D01*
X96138335Y-78484101D01*
X96138328Y-78484097D01*
X96003482Y-78433803D01*
X96003483Y-78433803D01*
X95943883Y-78427396D01*
X95943881Y-78427395D01*
X95943873Y-78427395D01*
X95943864Y-78427395D01*
X94048129Y-78427395D01*
X94048123Y-78427396D01*
X93988516Y-78433803D01*
X93853671Y-78484097D01*
X93853664Y-78484101D01*
X93738455Y-78570347D01*
X93738452Y-78570350D01*
X93652206Y-78685559D01*
X93652202Y-78685566D01*
X93601908Y-78820412D01*
X93595501Y-78880011D01*
X93595501Y-78880018D01*
X93595500Y-78880030D01*
X93595500Y-80775765D01*
X93595501Y-80775771D01*
X93601908Y-80835378D01*
X93652202Y-80970223D01*
X93652206Y-80970230D01*
X93738452Y-81085439D01*
X93738455Y-81085442D01*
X93853664Y-81171688D01*
X93853673Y-81171693D01*
X93933904Y-81201617D01*
X93989838Y-81243488D01*
X94014256Y-81308952D01*
X93999405Y-81377225D01*
X93981802Y-81401781D01*
X93887019Y-81504744D01*
X93760075Y-81699046D01*
X93666842Y-81911594D01*
X93609866Y-82136586D01*
X93609864Y-82136597D01*
X93590700Y-82367888D01*
X93590700Y-82367901D01*
X89825648Y-82367901D01*
X86571538Y-81068888D01*
X86516574Y-81025752D01*
X86493656Y-80959748D01*
X86510062Y-80891831D01*
X86560581Y-80843566D01*
X86562487Y-80842601D01*
X89309905Y-79484079D01*
X89318703Y-79480905D01*
X89320725Y-79479328D01*
X89323083Y-79477573D01*
X89322946Y-79474853D01*
X89322867Y-79472165D01*
X89319751Y-79463453D01*
X84826350Y-60452909D01*
X84826249Y-60450579D01*
X84820922Y-60429768D01*
X84820728Y-60429505D01*
X84803367Y-60418685D01*
X84800680Y-60417706D01*
X82072464Y-58805577D01*
X82024762Y-58754525D01*
X82012233Y-58685788D01*
X82038855Y-58621189D01*
X82075573Y-58590289D01*
X83306930Y-57909886D01*
X83375127Y-57894692D01*
X83402578Y-57899662D01*
G37*
%TD.AperFunction*%
%TD*%
M02*
