M48
; DRILL file {KiCad 7.0.10} date Fri Nov 15 17:15:59 2024
; FORMAT={-:-/ absolute / inch / decimal}
; #@! TF.CreationDate,2024-11-15T17:15:59-05:00
; #@! TF.GenerationSoftware,Kicad,Pcbnew,7.0.10
; #@! TF.FileFunction,Plated,1,2,PTH
FMAT,2
INCH
; #@! TA.AperFunction,Plated,PTH,ViaDrill
T1C0.0157
; #@! TA.AperFunction,Plated,PTH,ComponentDrill
T2C0.0236
; #@! TA.AperFunction,Plated,PTH,ComponentDrill
T3C0.0315
; #@! TA.AperFunction,Plated,PTH,ComponentDrill
T4C0.0354
%
G90
G05
T1
X1.5Y-4.65
X1.5Y-5.0
X2.6Y-4.65
X2.6Y-5.0
X3.5Y-2.5
X3.55Y-7.15
X3.75Y-6.05
X3.9Y-3.7
X3.9Y-4.15
X3.9Y-5.5
X4.55Y-4.55
X4.55Y-5.1
X5.2Y-4.7
X5.2Y-4.95
X6.55Y-4.7
X6.55Y-4.95
T2
X3.9Y-4.55
X3.9Y-5.1
T3
X4.775Y-4.075
X4.7762Y-3.9037
X4.7837Y-5.7458
X4.7837Y-5.5777
X4.975Y-4.075
X4.9762Y-3.9037
X4.9837Y-5.7458
X4.9837Y-5.5777
T4
X3.74Y-3.1428
X3.74Y-3.2428
X3.74Y-6.53
X3.74Y-6.63
M30
