%TF.GenerationSoftware,KiCad,Pcbnew,7.0.10*%
%TF.CreationDate,2024-11-15T17:15:35-05:00*%
%TF.ProjectId,plane,706c616e-652e-46b6-9963-61645f706362,rev?*%
%TF.SameCoordinates,Original*%
%TF.FileFunction,Legend,Top*%
%TF.FilePolarity,Positive*%
%FSLAX46Y46*%
G04 Gerber Fmt 4.6, Leading zero omitted, Abs format (unit mm)*
G04 Created by KiCad (PCBNEW 7.0.10) date 2024-11-15 17:15:35*
%MOMM*%
%LPD*%
G01*
G04 APERTURE LIST*
%ADD10C,0.150000*%
%ADD11C,0.120000*%
G04 APERTURE END LIST*
D10*
X98298095Y-127042438D02*
X98202857Y-126994819D01*
X98202857Y-126994819D02*
X98060000Y-126994819D01*
X98060000Y-126994819D02*
X97917143Y-127042438D01*
X97917143Y-127042438D02*
X97821905Y-127137676D01*
X97821905Y-127137676D02*
X97774286Y-127232914D01*
X97774286Y-127232914D02*
X97726667Y-127423390D01*
X97726667Y-127423390D02*
X97726667Y-127566247D01*
X97726667Y-127566247D02*
X97774286Y-127756723D01*
X97774286Y-127756723D02*
X97821905Y-127851961D01*
X97821905Y-127851961D02*
X97917143Y-127947200D01*
X97917143Y-127947200D02*
X98060000Y-127994819D01*
X98060000Y-127994819D02*
X98155238Y-127994819D01*
X98155238Y-127994819D02*
X98298095Y-127947200D01*
X98298095Y-127947200D02*
X98345714Y-127899580D01*
X98345714Y-127899580D02*
X98345714Y-127566247D01*
X98345714Y-127566247D02*
X98155238Y-127566247D01*
X98774286Y-127994819D02*
X98774286Y-126994819D01*
X98774286Y-126994819D02*
X99345714Y-127994819D01*
X99345714Y-127994819D02*
X99345714Y-126994819D01*
X99821905Y-127994819D02*
X99821905Y-126994819D01*
X99821905Y-126994819D02*
X100060000Y-126994819D01*
X100060000Y-126994819D02*
X100202857Y-127042438D01*
X100202857Y-127042438D02*
X100298095Y-127137676D01*
X100298095Y-127137676D02*
X100345714Y-127232914D01*
X100345714Y-127232914D02*
X100393333Y-127423390D01*
X100393333Y-127423390D02*
X100393333Y-127566247D01*
X100393333Y-127566247D02*
X100345714Y-127756723D01*
X100345714Y-127756723D02*
X100298095Y-127851961D01*
X100298095Y-127851961D02*
X100202857Y-127947200D01*
X100202857Y-127947200D02*
X100060000Y-127994819D01*
X100060000Y-127994819D02*
X99821905Y-127994819D01*
X98298095Y-113024819D02*
X98917142Y-113024819D01*
X98917142Y-113024819D02*
X98583809Y-113405771D01*
X98583809Y-113405771D02*
X98726666Y-113405771D01*
X98726666Y-113405771D02*
X98821904Y-113453390D01*
X98821904Y-113453390D02*
X98869523Y-113501009D01*
X98869523Y-113501009D02*
X98917142Y-113596247D01*
X98917142Y-113596247D02*
X98917142Y-113834342D01*
X98917142Y-113834342D02*
X98869523Y-113929580D01*
X98869523Y-113929580D02*
X98821904Y-113977200D01*
X98821904Y-113977200D02*
X98726666Y-114024819D01*
X98726666Y-114024819D02*
X98440952Y-114024819D01*
X98440952Y-114024819D02*
X98345714Y-113977200D01*
X98345714Y-113977200D02*
X98298095Y-113929580D01*
X99202857Y-113024819D02*
X99536190Y-114024819D01*
X99536190Y-114024819D02*
X99869523Y-113024819D01*
X31045348Y-143916427D02*
X31045348Y-142916427D01*
X31045348Y-142916427D02*
X31283443Y-142916427D01*
X31283443Y-142916427D02*
X31426300Y-142964046D01*
X31426300Y-142964046D02*
X31521538Y-143059284D01*
X31521538Y-143059284D02*
X31569157Y-143154522D01*
X31569157Y-143154522D02*
X31616776Y-143344998D01*
X31616776Y-143344998D02*
X31616776Y-143487855D01*
X31616776Y-143487855D02*
X31569157Y-143678331D01*
X31569157Y-143678331D02*
X31521538Y-143773569D01*
X31521538Y-143773569D02*
X31426300Y-143868808D01*
X31426300Y-143868808D02*
X31283443Y-143916427D01*
X31283443Y-143916427D02*
X31045348Y-143916427D01*
X32473919Y-143249760D02*
X32473919Y-143916427D01*
X32235824Y-142868808D02*
X31997729Y-143583093D01*
X31997729Y-143583093D02*
X32616776Y-143583093D01*
X31251286Y-98340727D02*
X31251286Y-97340727D01*
X31251286Y-97340727D02*
X31489381Y-97340727D01*
X31489381Y-97340727D02*
X31632238Y-97388346D01*
X31632238Y-97388346D02*
X31727476Y-97483584D01*
X31727476Y-97483584D02*
X31775095Y-97578822D01*
X31775095Y-97578822D02*
X31822714Y-97769298D01*
X31822714Y-97769298D02*
X31822714Y-97912155D01*
X31822714Y-97912155D02*
X31775095Y-98102631D01*
X31775095Y-98102631D02*
X31727476Y-98197869D01*
X31727476Y-98197869D02*
X31632238Y-98293108D01*
X31632238Y-98293108D02*
X31489381Y-98340727D01*
X31489381Y-98340727D02*
X31251286Y-98340727D01*
X32156048Y-97340727D02*
X32775095Y-97340727D01*
X32775095Y-97340727D02*
X32441762Y-97721679D01*
X32441762Y-97721679D02*
X32584619Y-97721679D01*
X32584619Y-97721679D02*
X32679857Y-97769298D01*
X32679857Y-97769298D02*
X32727476Y-97816917D01*
X32727476Y-97816917D02*
X32775095Y-97912155D01*
X32775095Y-97912155D02*
X32775095Y-98150250D01*
X32775095Y-98150250D02*
X32727476Y-98245488D01*
X32727476Y-98245488D02*
X32679857Y-98293108D01*
X32679857Y-98293108D02*
X32584619Y-98340727D01*
X32584619Y-98340727D02*
X32298905Y-98340727D01*
X32298905Y-98340727D02*
X32203667Y-98293108D01*
X32203667Y-98293108D02*
X32156048Y-98245488D01*
X123785333Y-102562819D02*
X123452000Y-102086628D01*
X123213905Y-102562819D02*
X123213905Y-101562819D01*
X123213905Y-101562819D02*
X123594857Y-101562819D01*
X123594857Y-101562819D02*
X123690095Y-101610438D01*
X123690095Y-101610438D02*
X123737714Y-101658057D01*
X123737714Y-101658057D02*
X123785333Y-101753295D01*
X123785333Y-101753295D02*
X123785333Y-101896152D01*
X123785333Y-101896152D02*
X123737714Y-101991390D01*
X123737714Y-101991390D02*
X123690095Y-102039009D01*
X123690095Y-102039009D02*
X123594857Y-102086628D01*
X123594857Y-102086628D02*
X123213905Y-102086628D01*
X124118667Y-101562819D02*
X124737714Y-101562819D01*
X124737714Y-101562819D02*
X124404381Y-101943771D01*
X124404381Y-101943771D02*
X124547238Y-101943771D01*
X124547238Y-101943771D02*
X124642476Y-101991390D01*
X124642476Y-101991390D02*
X124690095Y-102039009D01*
X124690095Y-102039009D02*
X124737714Y-102134247D01*
X124737714Y-102134247D02*
X124737714Y-102372342D01*
X124737714Y-102372342D02*
X124690095Y-102467580D01*
X124690095Y-102467580D02*
X124642476Y-102515200D01*
X124642476Y-102515200D02*
X124547238Y-102562819D01*
X124547238Y-102562819D02*
X124261524Y-102562819D01*
X124261524Y-102562819D02*
X124166286Y-102515200D01*
X124166286Y-102515200D02*
X124118667Y-102467580D01*
X92490819Y-167870094D02*
X91490819Y-167870094D01*
X91490819Y-167870094D02*
X91490819Y-167631999D01*
X91490819Y-167631999D02*
X91538438Y-167489142D01*
X91538438Y-167489142D02*
X91633676Y-167393904D01*
X91633676Y-167393904D02*
X91728914Y-167346285D01*
X91728914Y-167346285D02*
X91919390Y-167298666D01*
X91919390Y-167298666D02*
X92062247Y-167298666D01*
X92062247Y-167298666D02*
X92252723Y-167346285D01*
X92252723Y-167346285D02*
X92347961Y-167393904D01*
X92347961Y-167393904D02*
X92443200Y-167489142D01*
X92443200Y-167489142D02*
X92490819Y-167631999D01*
X92490819Y-167631999D02*
X92490819Y-167870094D01*
X91586057Y-166917713D02*
X91538438Y-166870094D01*
X91538438Y-166870094D02*
X91490819Y-166774856D01*
X91490819Y-166774856D02*
X91490819Y-166536761D01*
X91490819Y-166536761D02*
X91538438Y-166441523D01*
X91538438Y-166441523D02*
X91586057Y-166393904D01*
X91586057Y-166393904D02*
X91681295Y-166346285D01*
X91681295Y-166346285D02*
X91776533Y-166346285D01*
X91776533Y-166346285D02*
X91919390Y-166393904D01*
X91919390Y-166393904D02*
X92490819Y-166965332D01*
X92490819Y-166965332D02*
X92490819Y-166346285D01*
X124039333Y-144980819D02*
X123706000Y-144504628D01*
X123467905Y-144980819D02*
X123467905Y-143980819D01*
X123467905Y-143980819D02*
X123848857Y-143980819D01*
X123848857Y-143980819D02*
X123944095Y-144028438D01*
X123944095Y-144028438D02*
X123991714Y-144076057D01*
X123991714Y-144076057D02*
X124039333Y-144171295D01*
X124039333Y-144171295D02*
X124039333Y-144314152D01*
X124039333Y-144314152D02*
X123991714Y-144409390D01*
X123991714Y-144409390D02*
X123944095Y-144457009D01*
X123944095Y-144457009D02*
X123848857Y-144504628D01*
X123848857Y-144504628D02*
X123467905Y-144504628D01*
X124420286Y-144076057D02*
X124467905Y-144028438D01*
X124467905Y-144028438D02*
X124563143Y-143980819D01*
X124563143Y-143980819D02*
X124801238Y-143980819D01*
X124801238Y-143980819D02*
X124896476Y-144028438D01*
X124896476Y-144028438D02*
X124944095Y-144076057D01*
X124944095Y-144076057D02*
X124991714Y-144171295D01*
X124991714Y-144171295D02*
X124991714Y-144266533D01*
X124991714Y-144266533D02*
X124944095Y-144409390D01*
X124944095Y-144409390D02*
X124372667Y-144980819D01*
X124372667Y-144980819D02*
X124991714Y-144980819D01*
X123785333Y-98244819D02*
X123452000Y-97768628D01*
X123213905Y-98244819D02*
X123213905Y-97244819D01*
X123213905Y-97244819D02*
X123594857Y-97244819D01*
X123594857Y-97244819D02*
X123690095Y-97292438D01*
X123690095Y-97292438D02*
X123737714Y-97340057D01*
X123737714Y-97340057D02*
X123785333Y-97435295D01*
X123785333Y-97435295D02*
X123785333Y-97578152D01*
X123785333Y-97578152D02*
X123737714Y-97673390D01*
X123737714Y-97673390D02*
X123690095Y-97721009D01*
X123690095Y-97721009D02*
X123594857Y-97768628D01*
X123594857Y-97768628D02*
X123213905Y-97768628D01*
X124737714Y-98244819D02*
X124166286Y-98244819D01*
X124452000Y-98244819D02*
X124452000Y-97244819D01*
X124452000Y-97244819D02*
X124356762Y-97387676D01*
X124356762Y-97387676D02*
X124261524Y-97482914D01*
X124261524Y-97482914D02*
X124166286Y-97530533D01*
X92148819Y-81835989D02*
X91148819Y-81835989D01*
X91148819Y-81835989D02*
X91148819Y-81597894D01*
X91148819Y-81597894D02*
X91196438Y-81455037D01*
X91196438Y-81455037D02*
X91291676Y-81359799D01*
X91291676Y-81359799D02*
X91386914Y-81312180D01*
X91386914Y-81312180D02*
X91577390Y-81264561D01*
X91577390Y-81264561D02*
X91720247Y-81264561D01*
X91720247Y-81264561D02*
X91910723Y-81312180D01*
X91910723Y-81312180D02*
X92005961Y-81359799D01*
X92005961Y-81359799D02*
X92101200Y-81455037D01*
X92101200Y-81455037D02*
X92148819Y-81597894D01*
X92148819Y-81597894D02*
X92148819Y-81835989D01*
X92148819Y-80312180D02*
X92148819Y-80883608D01*
X92148819Y-80597894D02*
X91148819Y-80597894D01*
X91148819Y-80597894D02*
X91291676Y-80693132D01*
X91291676Y-80693132D02*
X91386914Y-80788370D01*
X91386914Y-80788370D02*
X91434533Y-80883608D01*
X124039333Y-140662819D02*
X123706000Y-140186628D01*
X123467905Y-140662819D02*
X123467905Y-139662819D01*
X123467905Y-139662819D02*
X123848857Y-139662819D01*
X123848857Y-139662819D02*
X123944095Y-139710438D01*
X123944095Y-139710438D02*
X123991714Y-139758057D01*
X123991714Y-139758057D02*
X124039333Y-139853295D01*
X124039333Y-139853295D02*
X124039333Y-139996152D01*
X124039333Y-139996152D02*
X123991714Y-140091390D01*
X123991714Y-140091390D02*
X123944095Y-140139009D01*
X123944095Y-140139009D02*
X123848857Y-140186628D01*
X123848857Y-140186628D02*
X123467905Y-140186628D01*
X124896476Y-139996152D02*
X124896476Y-140662819D01*
X124658381Y-139615200D02*
X124420286Y-140329485D01*
X124420286Y-140329485D02*
X125039333Y-140329485D01*
D11*
%TO.C,D4*%
X30098443Y-146071608D02*
X32783443Y-146071608D01*
X30098443Y-144151608D02*
X30098443Y-146071608D01*
X32783443Y-144151608D02*
X30098443Y-144151608D01*
%TO.C,D3*%
X30304381Y-100495908D02*
X32989381Y-100495908D01*
X30304381Y-98575908D02*
X30304381Y-100495908D01*
X32989381Y-98575908D02*
X30304381Y-98575908D01*
%TO.C,R3*%
X123005000Y-103505000D02*
X125265000Y-103505000D01*
X123005000Y-103505000D02*
G75*
G03*
X119565000Y-103505000I-1720000J0D01*
G01*
X119565000Y-103505000D02*
G75*
G03*
X123005000Y-103505000I1720000J0D01*
G01*
%TO.C,D2*%
X93760000Y-168692000D02*
X93916000Y-168692000D01*
X96076000Y-168692000D02*
X96232000Y-168692000D01*
X93917392Y-165459666D02*
G75*
G03*
X93760485Y-168691999I1078608J-1672334D01*
G01*
X93916164Y-166090871D02*
G75*
G03*
X93916001Y-168172960I1079836J-1041129D01*
G01*
X96075999Y-168172960D02*
G75*
G03*
X96075836Y-166090871I-1079999J1040960D01*
G01*
X96231515Y-168691999D02*
G75*
G03*
X96074608Y-165459666I-1235515J1559999D01*
G01*
%TO.C,R2*%
X123226638Y-145943629D02*
X125486638Y-145943629D01*
X123226638Y-145943629D02*
G75*
G03*
X119786638Y-145943629I-1720000J0D01*
G01*
X119786638Y-145943629D02*
G75*
G03*
X123226638Y-145943629I1720000J0D01*
G01*
%TO.C,R1*%
X123036161Y-99155088D02*
X125296161Y-99155088D01*
X123036161Y-99155088D02*
G75*
G03*
X119596161Y-99155088I-1720000J0D01*
G01*
X119596161Y-99155088D02*
G75*
G03*
X123036161Y-99155088I1720000J0D01*
G01*
%TO.C,D1*%
X93760485Y-79537896D02*
G75*
G03*
X93917392Y-82770229I1235515J-1559999D01*
G01*
X93916001Y-80056935D02*
G75*
G03*
X93916164Y-82139024I1079999J-1040960D01*
G01*
X96075836Y-82139024D02*
G75*
G03*
X96075999Y-80056935I-1079836J1041129D01*
G01*
X96074608Y-82770229D02*
G75*
G03*
X96231515Y-79537896I-1078608J1672334D01*
G01*
X93916000Y-79537895D02*
X93760000Y-79537895D01*
X96232000Y-79537895D02*
X96076000Y-79537895D01*
%TO.C,R4*%
X123226789Y-141673385D02*
X125486789Y-141673385D01*
X123226789Y-141673385D02*
G75*
G03*
X119786789Y-141673385I-1720000J0D01*
G01*
X119786789Y-141673385D02*
G75*
G03*
X123226789Y-141673385I1720000J0D01*
G01*
%TD*%
M02*
