%TF.GenerationSoftware,KiCad,Pcbnew,7.0.10*%
%TF.CreationDate,2024-11-15T17:16:00-05:00*%
%TF.ProjectId,plane,706c616e-652e-46b6-9963-61645f706362,rev?*%
%TF.SameCoordinates,Original*%
%TF.FileFunction,Drillmap*%
%TF.FilePolarity,Positive*%
%FSLAX45Y45*%
G04 Gerber Fmt 4.5, Leading zero omitted, Abs format (unit mm)*
G04 Created by KiCad (PCBNEW 7.0.10) date 2024-11-15 17:16:00*
%MOMM*%
%LPD*%
G01*
G04 APERTURE LIST*
%ADD10C,0.200000*%
G04 APERTURE END LIST*
D10*
X10819882Y-12324055D02*
X10819903Y-12190717D01*
X9002465Y-16273703D02*
X9207722Y-15548977D01*
X9207722Y-15548977D02*
X8955581Y-15466344D01*
X8718504Y-15319628D02*
X8955581Y-15466344D01*
X8943922Y-15187487D02*
X8718504Y-15319628D01*
X9424710Y-14056897D02*
X9086332Y-14117476D01*
X8890000Y-14243999D02*
X9086332Y-14117476D01*
X8890000Y-14243999D02*
X9088212Y-14382941D01*
X9425343Y-14471385D02*
X9088212Y-14382941D01*
X17097157Y-12880245D02*
X16509629Y-12953892D01*
X17757557Y-12677045D02*
X17097157Y-12880245D01*
X18113157Y-12346845D02*
X18062357Y-12448445D01*
X18062357Y-12448445D02*
X17757557Y-12677045D01*
X18110200Y-12166600D02*
X18113157Y-12346845D01*
X11938000Y-10769600D02*
X12052594Y-10657862D01*
X12137883Y-11433857D02*
X11938000Y-10769600D01*
X12839406Y-9691047D02*
X12052594Y-9600974D01*
X12839406Y-9691047D02*
X12839406Y-10565281D01*
X9002465Y-8244788D02*
X9169400Y-9017000D01*
X8949255Y-9084762D02*
X9169400Y-9017000D01*
X9086332Y-10150111D02*
X9392284Y-10059384D01*
X9086332Y-10150111D02*
X9086332Y-10150111D01*
X8855021Y-10294732D02*
X9086332Y-10401015D01*
X8855021Y-10294732D02*
X9086332Y-10150111D01*
X9424710Y-12959291D02*
X5511800Y-12949106D01*
X18059400Y-12065000D02*
X18110200Y-12166600D01*
X17754600Y-11836400D02*
X18059400Y-12065000D01*
X17094200Y-11633200D02*
X17754600Y-11836400D01*
X16509629Y-11564599D02*
X17094200Y-11633200D01*
X8631209Y-16421905D02*
X9002465Y-16273703D01*
X4691697Y-11504315D02*
X4583109Y-11368683D01*
X3251200Y-12623800D02*
X2840232Y-12453294D01*
X4691695Y-11504317D02*
G75*
G03*
X5052560Y-11621402I280255J249117D01*
G01*
X2728726Y-9639693D02*
X3251200Y-11861800D01*
X16469763Y-12954000D02*
X16490957Y-12953994D01*
X16509629Y-12953892D01*
X8718504Y-9198862D02*
X8949255Y-9300703D01*
X5511800Y-12949106D02*
X5054600Y-12903200D01*
X8188468Y-5869520D02*
X8482041Y-6042994D01*
X11201400Y-9779000D02*
X11502740Y-9665673D01*
X12839406Y-10565281D02*
X12052594Y-10657862D01*
X3357337Y-9639693D02*
X4583109Y-11368683D01*
X2728726Y-14878798D02*
X3251200Y-12623800D01*
X9424710Y-10461593D02*
X9086332Y-10401015D01*
X9424710Y-14056897D02*
X9424710Y-12959291D01*
X12839406Y-13953210D02*
X12052594Y-13860629D01*
X8943922Y-15187487D02*
X9322726Y-15126101D01*
X8335255Y-18730080D02*
X9182612Y-18475496D01*
X2728726Y-14878798D02*
X3357337Y-14878798D01*
X3357337Y-14878798D02*
X4583109Y-13149808D01*
X6106164Y-11559200D02*
X5561418Y-11574031D01*
X8932251Y-16570762D02*
X8631209Y-16421905D01*
X9424710Y-10461593D02*
X9424710Y-11559200D01*
X3251200Y-11861800D02*
X2835529Y-12066544D01*
X12839406Y-14827444D02*
X12839406Y-13953210D01*
X8482041Y-18475496D02*
X8932251Y-16570762D01*
X11226800Y-14732000D02*
X11502740Y-14852818D01*
X8949255Y-9084762D02*
X8718504Y-9198862D01*
X2835529Y-12066544D02*
X2675948Y-12133115D01*
X16469763Y-11564491D02*
X16490957Y-11564497D01*
X16509629Y-11564599D01*
X2618178Y-12340709D02*
X10819882Y-12324055D01*
X2728726Y-9639693D02*
X3357337Y-9639693D01*
X4693737Y-13020287D02*
X4583109Y-13149808D01*
X5054600Y-12903202D02*
G75*
G03*
X4693737Y-13020287I-80610J-366198D01*
G01*
X5561418Y-11574031D02*
X5052560Y-11621402D01*
X9392284Y-10059384D02*
X9322726Y-9392390D01*
X11502740Y-14852818D02*
X12052594Y-14917517D01*
X8932251Y-7947729D02*
X8631209Y-8096586D01*
X11502740Y-9665673D02*
X12052594Y-9600974D01*
X8188468Y-5869520D02*
X8335255Y-5788411D01*
X12052594Y-13860629D02*
X11963400Y-13716000D01*
X2674222Y-12384041D02*
X2840232Y-12453294D01*
X12137883Y-11433857D02*
X12446000Y-11564491D01*
X11963400Y-13716000D02*
X12137883Y-13084633D01*
X8188468Y-18648971D02*
X8335255Y-18730080D01*
X9425343Y-14471385D02*
X9322726Y-15126101D01*
X9182612Y-6042994D02*
X11201400Y-9779000D01*
X12052594Y-14917517D02*
X12839406Y-14827444D01*
X2675948Y-12133115D02*
X2616979Y-12178709D01*
X8482041Y-6042994D02*
X8932251Y-7947729D01*
X9182612Y-18475496D02*
X11226800Y-14732000D01*
X12446000Y-11564491D02*
X16469763Y-11564491D01*
X8949255Y-9300703D02*
X9322726Y-9392390D01*
X12446000Y-12954000D02*
X16469763Y-12954000D01*
X8335255Y-5788411D02*
X9182612Y-6042994D01*
X2618178Y-12340709D02*
X2674222Y-12384041D01*
X2616979Y-12178709D02*
X10819903Y-12190717D01*
X12137883Y-13084633D02*
X12446000Y-12954000D01*
X8631209Y-8096586D02*
X9002465Y-8244788D01*
X9424710Y-11559200D02*
X6106164Y-11559200D01*
X8188468Y-18648971D02*
X8482041Y-18475496D01*
X2867755Y-19051564D02*
X2867755Y-18851564D01*
X2867755Y-18851564D02*
X2915374Y-18851564D01*
X2915374Y-18851564D02*
X2943946Y-18861088D01*
X2943946Y-18861088D02*
X2962994Y-18880135D01*
X2962994Y-18880135D02*
X2972517Y-18899183D01*
X2972517Y-18899183D02*
X2982041Y-18937278D01*
X2982041Y-18937278D02*
X2982041Y-18965849D01*
X2982041Y-18965849D02*
X2972517Y-19003945D01*
X2972517Y-19003945D02*
X2962994Y-19022992D01*
X2962994Y-19022992D02*
X2943946Y-19042040D01*
X2943946Y-19042040D02*
X2915374Y-19051564D01*
X2915374Y-19051564D02*
X2867755Y-19051564D01*
X3067755Y-19051564D02*
X3067755Y-18918230D01*
X3067755Y-18956326D02*
X3077279Y-18937278D01*
X3077279Y-18937278D02*
X3086803Y-18927754D01*
X3086803Y-18927754D02*
X3105851Y-18918230D01*
X3105851Y-18918230D02*
X3124898Y-18918230D01*
X3191565Y-19051564D02*
X3191565Y-18918230D01*
X3191565Y-18851564D02*
X3182041Y-18861088D01*
X3182041Y-18861088D02*
X3191565Y-18870611D01*
X3191565Y-18870611D02*
X3201089Y-18861088D01*
X3201089Y-18861088D02*
X3191565Y-18851564D01*
X3191565Y-18851564D02*
X3191565Y-18870611D01*
X3315374Y-19051564D02*
X3296327Y-19042040D01*
X3296327Y-19042040D02*
X3286803Y-19022992D01*
X3286803Y-19022992D02*
X3286803Y-18851564D01*
X3420136Y-19051564D02*
X3401089Y-19042040D01*
X3401089Y-19042040D02*
X3391565Y-19022992D01*
X3391565Y-19022992D02*
X3391565Y-18851564D01*
X3648708Y-19051564D02*
X3648708Y-18851564D01*
X3648708Y-18851564D02*
X3715375Y-18994421D01*
X3715375Y-18994421D02*
X3782041Y-18851564D01*
X3782041Y-18851564D02*
X3782041Y-19051564D01*
X3962994Y-19051564D02*
X3962994Y-18946802D01*
X3962994Y-18946802D02*
X3953470Y-18927754D01*
X3953470Y-18927754D02*
X3934422Y-18918230D01*
X3934422Y-18918230D02*
X3896327Y-18918230D01*
X3896327Y-18918230D02*
X3877279Y-18927754D01*
X3962994Y-19042040D02*
X3943946Y-19051564D01*
X3943946Y-19051564D02*
X3896327Y-19051564D01*
X3896327Y-19051564D02*
X3877279Y-19042040D01*
X3877279Y-19042040D02*
X3867755Y-19022992D01*
X3867755Y-19022992D02*
X3867755Y-19003945D01*
X3867755Y-19003945D02*
X3877279Y-18984897D01*
X3877279Y-18984897D02*
X3896327Y-18975373D01*
X3896327Y-18975373D02*
X3943946Y-18975373D01*
X3943946Y-18975373D02*
X3962994Y-18965849D01*
X4058232Y-18918230D02*
X4058232Y-19118230D01*
X4058232Y-18927754D02*
X4077279Y-18918230D01*
X4077279Y-18918230D02*
X4115375Y-18918230D01*
X4115375Y-18918230D02*
X4134422Y-18927754D01*
X4134422Y-18927754D02*
X4143946Y-18937278D01*
X4143946Y-18937278D02*
X4153470Y-18956326D01*
X4153470Y-18956326D02*
X4153470Y-19013468D01*
X4153470Y-19013468D02*
X4143946Y-19032516D01*
X4143946Y-19032516D02*
X4134422Y-19042040D01*
X4134422Y-19042040D02*
X4115375Y-19051564D01*
X4115375Y-19051564D02*
X4077279Y-19051564D01*
X4077279Y-19051564D02*
X4058232Y-19042040D01*
X4239184Y-19032516D02*
X4248708Y-19042040D01*
X4248708Y-19042040D02*
X4239184Y-19051564D01*
X4239184Y-19051564D02*
X4229660Y-19042040D01*
X4229660Y-19042040D02*
X4239184Y-19032516D01*
X4239184Y-19032516D02*
X4239184Y-19051564D01*
X4239184Y-18927754D02*
X4248708Y-18937278D01*
X4248708Y-18937278D02*
X4239184Y-18946802D01*
X4239184Y-18946802D02*
X4229660Y-18937278D01*
X4229660Y-18937278D02*
X4239184Y-18927754D01*
X4239184Y-18927754D02*
X4239184Y-18946802D01*
M02*
