%TF.GenerationSoftware,KiCad,Pcbnew,7.0.10*%
%TF.CreationDate,2024-11-15T18:21:36-05:00*%
%TF.ProjectId,plane_side_view,706c616e-655f-4736-9964-655f76696577,rev?*%
%TF.SameCoordinates,Original*%
%TF.FileFunction,Profile,NP*%
%FSLAX46Y46*%
G04 Gerber Fmt 4.6, Leading zero omitted, Abs format (unit mm)*
G04 Created by KiCad (PCBNEW 7.0.10) date 2024-11-15 18:21:36*
%MOMM*%
%LPD*%
G01*
G04 APERTURE LIST*
%TA.AperFunction,Profile*%
%ADD10C,0.200000*%
%TD*%
%ADD11C,0.200000*%
G04 APERTURE END LIST*
D10*
X119033299Y-72799059D02*
X119023171Y-74156762D01*
X196885354Y-74216156D02*
X194487964Y-75803523D01*
X195684949Y-70689706D02*
X193932391Y-70107198D01*
X197119970Y-72596156D02*
X195684949Y-70689706D01*
X191826858Y-69220301D02*
X193932391Y-70107198D01*
X187960000Y-66040000D02*
X191826858Y-69220301D01*
X182880000Y-64770000D02*
X187960000Y-66040000D01*
X176077504Y-64555185D02*
X182880000Y-64770000D01*
X187190055Y-76819095D02*
X194487964Y-75803523D01*
X176401967Y-77457598D02*
X187190055Y-76819095D01*
X62230000Y-76200000D02*
X43812711Y-71936086D01*
X79607090Y-78041639D02*
X62230000Y-76200000D01*
X119023171Y-74156762D02*
X196885354Y-74216156D01*
X197119970Y-72596156D02*
X119033299Y-72799059D01*
D11*
X43039549Y-71626281D02*
X43229026Y-71703441D01*
X43421046Y-71780796D01*
X43615607Y-71858344D01*
X43812711Y-71936086D01*
D10*
X79607090Y-78041639D02*
X176401967Y-77457598D01*
X72169526Y-64555185D02*
X176077504Y-64555185D01*
X68284103Y-64224753D02*
X72169526Y-64555185D01*
X64945603Y-63472736D02*
X68284103Y-64224753D01*
X63084434Y-62347514D02*
X64945603Y-63472736D01*
X44704808Y-44450000D02*
X63084434Y-62347514D01*
X39451107Y-69475682D02*
X43039549Y-71626281D01*
X39451107Y-68165242D02*
X39451107Y-69475682D01*
X41402404Y-67393368D02*
X39451107Y-68165242D01*
X46897304Y-66689584D02*
X41402404Y-67393368D01*
X38100000Y-44450000D02*
X46897304Y-66689584D01*
X44704808Y-44450000D02*
X38100000Y-44450000D01*
M02*
