%TF.GenerationSoftware,KiCad,Pcbnew,7.0.10*%
%TF.CreationDate,2024-11-15T18:29:41-05:00*%
%TF.ProjectId,plane_side_view,706c616e-655f-4736-9964-655f76696577,rev?*%
%TF.SameCoordinates,Original*%
%TF.FileFunction,Drillmap*%
%TF.FilePolarity,Positive*%
%FSLAX45Y45*%
G04 Gerber Fmt 4.5, Leading zero omitted, Abs format (unit mm)*
G04 Created by KiCad (PCBNEW 7.0.10) date 2024-11-15 18:29:41*
%MOMM*%
%LPD*%
G01*
G04 APERTURE LIST*
%ADD10C,0.200000*%
%ADD11C,0.100000*%
G04 APERTURE END LIST*
D10*
X11903330Y-7279906D02*
X11902317Y-7415676D01*
X19688535Y-7421616D02*
X19448796Y-7580352D01*
X19568495Y-7068971D02*
X19393239Y-7010720D01*
X19711997Y-7259616D02*
X19568495Y-7068971D01*
X19182686Y-6922030D02*
X19393239Y-7010720D01*
X18796000Y-6604000D02*
X19182686Y-6922030D01*
X18288000Y-6477000D02*
X18796000Y-6604000D01*
X17607750Y-6455518D02*
X18288000Y-6477000D01*
X18719006Y-7681909D02*
X19448796Y-7580352D01*
X17640197Y-7745760D02*
X18719006Y-7681909D01*
X6223000Y-7620000D02*
X4381271Y-7193609D01*
X7960709Y-7804164D02*
X6223000Y-7620000D01*
X11902317Y-7415676D02*
X19688535Y-7421616D01*
X19711997Y-7259616D02*
X11903330Y-7279906D01*
X4303955Y-7162628D02*
X4322903Y-7170344D01*
X4342105Y-7178080D01*
X4361561Y-7185834D01*
X4381271Y-7193609D01*
X7960709Y-7804164D02*
X17640197Y-7745760D01*
X7216953Y-6455518D02*
X17607750Y-6455518D01*
X6828410Y-6422475D02*
X7216953Y-6455518D01*
X6494560Y-6347274D02*
X6828410Y-6422475D01*
X6308443Y-6234751D02*
X6494560Y-6347274D01*
X4470481Y-4445000D02*
X6308443Y-6234751D01*
X3945111Y-6947568D02*
X4303955Y-7162628D01*
X3945111Y-6816524D02*
X3945111Y-6947568D01*
X4140240Y-6739337D02*
X3945111Y-6816524D01*
X4689730Y-6668958D02*
X4140240Y-6739337D01*
X3810000Y-4445000D02*
X4689730Y-6668958D01*
X4470481Y-4445000D02*
X3810000Y-4445000D01*
D11*
X7473000Y-7346000D02*
X7513000Y-7386000D01*
X7513000Y-7346000D02*
X7473000Y-7386000D01*
X8743000Y-7346000D02*
X8783000Y-7386000D01*
X8783000Y-7346000D02*
X8743000Y-7386000D01*
X10140000Y-7346000D02*
X10180000Y-7386000D01*
X10180000Y-7346000D02*
X10140000Y-7386000D01*
X11029000Y-7346000D02*
X11069000Y-7386000D01*
X11069000Y-7346000D02*
X11029000Y-7386000D01*
X11664000Y-7346000D02*
X11704000Y-7386000D01*
X11704000Y-7346000D02*
X11664000Y-7386000D01*
D10*
X4060777Y-8125648D02*
X4060777Y-7925648D01*
X4060777Y-7925648D02*
X4108396Y-7925648D01*
X4108396Y-7925648D02*
X4136967Y-7935171D01*
X4136967Y-7935171D02*
X4156015Y-7954219D01*
X4156015Y-7954219D02*
X4165539Y-7973267D01*
X4165539Y-7973267D02*
X4175062Y-8011362D01*
X4175062Y-8011362D02*
X4175062Y-8039933D01*
X4175062Y-8039933D02*
X4165539Y-8078029D01*
X4165539Y-8078029D02*
X4156015Y-8097076D01*
X4156015Y-8097076D02*
X4136967Y-8116124D01*
X4136967Y-8116124D02*
X4108396Y-8125648D01*
X4108396Y-8125648D02*
X4060777Y-8125648D01*
X4260777Y-8125648D02*
X4260777Y-7992314D01*
X4260777Y-8030410D02*
X4270301Y-8011362D01*
X4270301Y-8011362D02*
X4279824Y-8001838D01*
X4279824Y-8001838D02*
X4298872Y-7992314D01*
X4298872Y-7992314D02*
X4317920Y-7992314D01*
X4384586Y-8125648D02*
X4384586Y-7992314D01*
X4384586Y-7925648D02*
X4375063Y-7935171D01*
X4375063Y-7935171D02*
X4384586Y-7944695D01*
X4384586Y-7944695D02*
X4394110Y-7935171D01*
X4394110Y-7935171D02*
X4384586Y-7925648D01*
X4384586Y-7925648D02*
X4384586Y-7944695D01*
X4508396Y-8125648D02*
X4489348Y-8116124D01*
X4489348Y-8116124D02*
X4479824Y-8097076D01*
X4479824Y-8097076D02*
X4479824Y-7925648D01*
X4613158Y-8125648D02*
X4594110Y-8116124D01*
X4594110Y-8116124D02*
X4584586Y-8097076D01*
X4584586Y-8097076D02*
X4584586Y-7925648D01*
X4841729Y-8125648D02*
X4841729Y-7925648D01*
X4841729Y-7925648D02*
X4908396Y-8068505D01*
X4908396Y-8068505D02*
X4975063Y-7925648D01*
X4975063Y-7925648D02*
X4975063Y-8125648D01*
X5156015Y-8125648D02*
X5156015Y-8020886D01*
X5156015Y-8020886D02*
X5146491Y-8001838D01*
X5146491Y-8001838D02*
X5127444Y-7992314D01*
X5127444Y-7992314D02*
X5089348Y-7992314D01*
X5089348Y-7992314D02*
X5070301Y-8001838D01*
X5156015Y-8116124D02*
X5136967Y-8125648D01*
X5136967Y-8125648D02*
X5089348Y-8125648D01*
X5089348Y-8125648D02*
X5070301Y-8116124D01*
X5070301Y-8116124D02*
X5060777Y-8097076D01*
X5060777Y-8097076D02*
X5060777Y-8078029D01*
X5060777Y-8078029D02*
X5070301Y-8058981D01*
X5070301Y-8058981D02*
X5089348Y-8049457D01*
X5089348Y-8049457D02*
X5136967Y-8049457D01*
X5136967Y-8049457D02*
X5156015Y-8039933D01*
X5251253Y-7992314D02*
X5251253Y-8192314D01*
X5251253Y-8001838D02*
X5270301Y-7992314D01*
X5270301Y-7992314D02*
X5308396Y-7992314D01*
X5308396Y-7992314D02*
X5327444Y-8001838D01*
X5327444Y-8001838D02*
X5336967Y-8011362D01*
X5336967Y-8011362D02*
X5346491Y-8030410D01*
X5346491Y-8030410D02*
X5346491Y-8087552D01*
X5346491Y-8087552D02*
X5336967Y-8106600D01*
X5336967Y-8106600D02*
X5327444Y-8116124D01*
X5327444Y-8116124D02*
X5308396Y-8125648D01*
X5308396Y-8125648D02*
X5270301Y-8125648D01*
X5270301Y-8125648D02*
X5251253Y-8116124D01*
X5432205Y-8106600D02*
X5441729Y-8116124D01*
X5441729Y-8116124D02*
X5432205Y-8125648D01*
X5432205Y-8125648D02*
X5422682Y-8116124D01*
X5422682Y-8116124D02*
X5432205Y-8106600D01*
X5432205Y-8106600D02*
X5432205Y-8125648D01*
X5432205Y-8001838D02*
X5441729Y-8011362D01*
X5441729Y-8011362D02*
X5432205Y-8020886D01*
X5432205Y-8020886D02*
X5422682Y-8011362D01*
X5422682Y-8011362D02*
X5432205Y-8001838D01*
X5432205Y-8001838D02*
X5432205Y-8020886D01*
D11*
X3760000Y-8434164D02*
X3800000Y-8474164D01*
X3800000Y-8434164D02*
X3760000Y-8474164D01*
D10*
X4098872Y-8345648D02*
X4117920Y-8345648D01*
X4117920Y-8345648D02*
X4136967Y-8355171D01*
X4136967Y-8355171D02*
X4146491Y-8364695D01*
X4146491Y-8364695D02*
X4156015Y-8383743D01*
X4156015Y-8383743D02*
X4165539Y-8421838D01*
X4165539Y-8421838D02*
X4165539Y-8469457D01*
X4165539Y-8469457D02*
X4156015Y-8507552D01*
X4156015Y-8507552D02*
X4146491Y-8526600D01*
X4146491Y-8526600D02*
X4136967Y-8536124D01*
X4136967Y-8536124D02*
X4117920Y-8545648D01*
X4117920Y-8545648D02*
X4098872Y-8545648D01*
X4098872Y-8545648D02*
X4079824Y-8536124D01*
X4079824Y-8536124D02*
X4070301Y-8526600D01*
X4070301Y-8526600D02*
X4060777Y-8507552D01*
X4060777Y-8507552D02*
X4051253Y-8469457D01*
X4051253Y-8469457D02*
X4051253Y-8421838D01*
X4051253Y-8421838D02*
X4060777Y-8383743D01*
X4060777Y-8383743D02*
X4070301Y-8364695D01*
X4070301Y-8364695D02*
X4079824Y-8355171D01*
X4079824Y-8355171D02*
X4098872Y-8345648D01*
X4251253Y-8526600D02*
X4260777Y-8536124D01*
X4260777Y-8536124D02*
X4251253Y-8545648D01*
X4251253Y-8545648D02*
X4241729Y-8536124D01*
X4241729Y-8536124D02*
X4251253Y-8526600D01*
X4251253Y-8526600D02*
X4251253Y-8545648D01*
X4432205Y-8412314D02*
X4432205Y-8545648D01*
X4384586Y-8336124D02*
X4336967Y-8478981D01*
X4336967Y-8478981D02*
X4460777Y-8478981D01*
X4575063Y-8345648D02*
X4594110Y-8345648D01*
X4594110Y-8345648D02*
X4613158Y-8355171D01*
X4613158Y-8355171D02*
X4622682Y-8364695D01*
X4622682Y-8364695D02*
X4632205Y-8383743D01*
X4632205Y-8383743D02*
X4641729Y-8421838D01*
X4641729Y-8421838D02*
X4641729Y-8469457D01*
X4641729Y-8469457D02*
X4632205Y-8507552D01*
X4632205Y-8507552D02*
X4622682Y-8526600D01*
X4622682Y-8526600D02*
X4613158Y-8536124D01*
X4613158Y-8536124D02*
X4594110Y-8545648D01*
X4594110Y-8545648D02*
X4575063Y-8545648D01*
X4575063Y-8545648D02*
X4556015Y-8536124D01*
X4556015Y-8536124D02*
X4546491Y-8526600D01*
X4546491Y-8526600D02*
X4536967Y-8507552D01*
X4536967Y-8507552D02*
X4527444Y-8469457D01*
X4527444Y-8469457D02*
X4527444Y-8421838D01*
X4527444Y-8421838D02*
X4536967Y-8383743D01*
X4536967Y-8383743D02*
X4546491Y-8364695D01*
X4546491Y-8364695D02*
X4556015Y-8355171D01*
X4556015Y-8355171D02*
X4575063Y-8345648D01*
X4765539Y-8345648D02*
X4784586Y-8345648D01*
X4784586Y-8345648D02*
X4803634Y-8355171D01*
X4803634Y-8355171D02*
X4813158Y-8364695D01*
X4813158Y-8364695D02*
X4822682Y-8383743D01*
X4822682Y-8383743D02*
X4832205Y-8421838D01*
X4832205Y-8421838D02*
X4832205Y-8469457D01*
X4832205Y-8469457D02*
X4822682Y-8507552D01*
X4822682Y-8507552D02*
X4813158Y-8526600D01*
X4813158Y-8526600D02*
X4803634Y-8536124D01*
X4803634Y-8536124D02*
X4784586Y-8545648D01*
X4784586Y-8545648D02*
X4765539Y-8545648D01*
X4765539Y-8545648D02*
X4746491Y-8536124D01*
X4746491Y-8536124D02*
X4736967Y-8526600D01*
X4736967Y-8526600D02*
X4727444Y-8507552D01*
X4727444Y-8507552D02*
X4717920Y-8469457D01*
X4717920Y-8469457D02*
X4717920Y-8421838D01*
X4717920Y-8421838D02*
X4727444Y-8383743D01*
X4727444Y-8383743D02*
X4736967Y-8364695D01*
X4736967Y-8364695D02*
X4746491Y-8355171D01*
X4746491Y-8355171D02*
X4765539Y-8345648D01*
X4917920Y-8545648D02*
X4917920Y-8412314D01*
X4917920Y-8431362D02*
X4927444Y-8421838D01*
X4927444Y-8421838D02*
X4946491Y-8412314D01*
X4946491Y-8412314D02*
X4975063Y-8412314D01*
X4975063Y-8412314D02*
X4994110Y-8421838D01*
X4994110Y-8421838D02*
X5003634Y-8440886D01*
X5003634Y-8440886D02*
X5003634Y-8545648D01*
X5003634Y-8440886D02*
X5013158Y-8421838D01*
X5013158Y-8421838D02*
X5032205Y-8412314D01*
X5032205Y-8412314D02*
X5060777Y-8412314D01*
X5060777Y-8412314D02*
X5079825Y-8421838D01*
X5079825Y-8421838D02*
X5089348Y-8440886D01*
X5089348Y-8440886D02*
X5089348Y-8545648D01*
X5184586Y-8545648D02*
X5184586Y-8412314D01*
X5184586Y-8431362D02*
X5194110Y-8421838D01*
X5194110Y-8421838D02*
X5213158Y-8412314D01*
X5213158Y-8412314D02*
X5241729Y-8412314D01*
X5241729Y-8412314D02*
X5260777Y-8421838D01*
X5260777Y-8421838D02*
X5270301Y-8440886D01*
X5270301Y-8440886D02*
X5270301Y-8545648D01*
X5270301Y-8440886D02*
X5279825Y-8421838D01*
X5279825Y-8421838D02*
X5298872Y-8412314D01*
X5298872Y-8412314D02*
X5327444Y-8412314D01*
X5327444Y-8412314D02*
X5346491Y-8421838D01*
X5346491Y-8421838D02*
X5356015Y-8440886D01*
X5356015Y-8440886D02*
X5356015Y-8545648D01*
X5746491Y-8336124D02*
X5575063Y-8593267D01*
X6003634Y-8345648D02*
X6022682Y-8345648D01*
X6022682Y-8345648D02*
X6041729Y-8355171D01*
X6041729Y-8355171D02*
X6051253Y-8364695D01*
X6051253Y-8364695D02*
X6060777Y-8383743D01*
X6060777Y-8383743D02*
X6070301Y-8421838D01*
X6070301Y-8421838D02*
X6070301Y-8469457D01*
X6070301Y-8469457D02*
X6060777Y-8507552D01*
X6060777Y-8507552D02*
X6051253Y-8526600D01*
X6051253Y-8526600D02*
X6041729Y-8536124D01*
X6041729Y-8536124D02*
X6022682Y-8545648D01*
X6022682Y-8545648D02*
X6003634Y-8545648D01*
X6003634Y-8545648D02*
X5984586Y-8536124D01*
X5984586Y-8536124D02*
X5975063Y-8526600D01*
X5975063Y-8526600D02*
X5965539Y-8507552D01*
X5965539Y-8507552D02*
X5956015Y-8469457D01*
X5956015Y-8469457D02*
X5956015Y-8421838D01*
X5956015Y-8421838D02*
X5965539Y-8383743D01*
X5965539Y-8383743D02*
X5975063Y-8364695D01*
X5975063Y-8364695D02*
X5984586Y-8355171D01*
X5984586Y-8355171D02*
X6003634Y-8345648D01*
X6156015Y-8526600D02*
X6165539Y-8536124D01*
X6165539Y-8536124D02*
X6156015Y-8545648D01*
X6156015Y-8545648D02*
X6146491Y-8536124D01*
X6146491Y-8536124D02*
X6156015Y-8526600D01*
X6156015Y-8526600D02*
X6156015Y-8545648D01*
X6289348Y-8345648D02*
X6308396Y-8345648D01*
X6308396Y-8345648D02*
X6327444Y-8355171D01*
X6327444Y-8355171D02*
X6336967Y-8364695D01*
X6336967Y-8364695D02*
X6346491Y-8383743D01*
X6346491Y-8383743D02*
X6356015Y-8421838D01*
X6356015Y-8421838D02*
X6356015Y-8469457D01*
X6356015Y-8469457D02*
X6346491Y-8507552D01*
X6346491Y-8507552D02*
X6336967Y-8526600D01*
X6336967Y-8526600D02*
X6327444Y-8536124D01*
X6327444Y-8536124D02*
X6308396Y-8545648D01*
X6308396Y-8545648D02*
X6289348Y-8545648D01*
X6289348Y-8545648D02*
X6270301Y-8536124D01*
X6270301Y-8536124D02*
X6260777Y-8526600D01*
X6260777Y-8526600D02*
X6251253Y-8507552D01*
X6251253Y-8507552D02*
X6241729Y-8469457D01*
X6241729Y-8469457D02*
X6241729Y-8421838D01*
X6241729Y-8421838D02*
X6251253Y-8383743D01*
X6251253Y-8383743D02*
X6260777Y-8364695D01*
X6260777Y-8364695D02*
X6270301Y-8355171D01*
X6270301Y-8355171D02*
X6289348Y-8345648D01*
X6546491Y-8545648D02*
X6432206Y-8545648D01*
X6489348Y-8545648D02*
X6489348Y-8345648D01*
X6489348Y-8345648D02*
X6470301Y-8374219D01*
X6470301Y-8374219D02*
X6451253Y-8393267D01*
X6451253Y-8393267D02*
X6432206Y-8402791D01*
X6727444Y-8345648D02*
X6632206Y-8345648D01*
X6632206Y-8345648D02*
X6622682Y-8440886D01*
X6622682Y-8440886D02*
X6632206Y-8431362D01*
X6632206Y-8431362D02*
X6651253Y-8421838D01*
X6651253Y-8421838D02*
X6698872Y-8421838D01*
X6698872Y-8421838D02*
X6717920Y-8431362D01*
X6717920Y-8431362D02*
X6727444Y-8440886D01*
X6727444Y-8440886D02*
X6736967Y-8459933D01*
X6736967Y-8459933D02*
X6736967Y-8507552D01*
X6736967Y-8507552D02*
X6727444Y-8526600D01*
X6727444Y-8526600D02*
X6717920Y-8536124D01*
X6717920Y-8536124D02*
X6698872Y-8545648D01*
X6698872Y-8545648D02*
X6651253Y-8545648D01*
X6651253Y-8545648D02*
X6632206Y-8536124D01*
X6632206Y-8536124D02*
X6622682Y-8526600D01*
X6803634Y-8345648D02*
X6936967Y-8345648D01*
X6936967Y-8345648D02*
X6851253Y-8545648D01*
X7003634Y-8345648D02*
X7003634Y-8383743D01*
X7079825Y-8345648D02*
X7079825Y-8383743D01*
X7375063Y-8621838D02*
X7365539Y-8612314D01*
X7365539Y-8612314D02*
X7346491Y-8583743D01*
X7346491Y-8583743D02*
X7336968Y-8564695D01*
X7336968Y-8564695D02*
X7327444Y-8536124D01*
X7327444Y-8536124D02*
X7317920Y-8488505D01*
X7317920Y-8488505D02*
X7317920Y-8450410D01*
X7317920Y-8450410D02*
X7327444Y-8402791D01*
X7327444Y-8402791D02*
X7336968Y-8374219D01*
X7336968Y-8374219D02*
X7346491Y-8355171D01*
X7346491Y-8355171D02*
X7365539Y-8326600D01*
X7365539Y-8326600D02*
X7375063Y-8317076D01*
X7546491Y-8345648D02*
X7451253Y-8345648D01*
X7451253Y-8345648D02*
X7441729Y-8440886D01*
X7441729Y-8440886D02*
X7451253Y-8431362D01*
X7451253Y-8431362D02*
X7470301Y-8421838D01*
X7470301Y-8421838D02*
X7517920Y-8421838D01*
X7517920Y-8421838D02*
X7536968Y-8431362D01*
X7536968Y-8431362D02*
X7546491Y-8440886D01*
X7546491Y-8440886D02*
X7556015Y-8459933D01*
X7556015Y-8459933D02*
X7556015Y-8507552D01*
X7556015Y-8507552D02*
X7546491Y-8526600D01*
X7546491Y-8526600D02*
X7536968Y-8536124D01*
X7536968Y-8536124D02*
X7517920Y-8545648D01*
X7517920Y-8545648D02*
X7470301Y-8545648D01*
X7470301Y-8545648D02*
X7451253Y-8536124D01*
X7451253Y-8536124D02*
X7441729Y-8526600D01*
X7794110Y-8545648D02*
X7794110Y-8345648D01*
X7879825Y-8545648D02*
X7879825Y-8440886D01*
X7879825Y-8440886D02*
X7870301Y-8421838D01*
X7870301Y-8421838D02*
X7851253Y-8412314D01*
X7851253Y-8412314D02*
X7822682Y-8412314D01*
X7822682Y-8412314D02*
X7803634Y-8421838D01*
X7803634Y-8421838D02*
X7794110Y-8431362D01*
X8003634Y-8545648D02*
X7984587Y-8536124D01*
X7984587Y-8536124D02*
X7975063Y-8526600D01*
X7975063Y-8526600D02*
X7965539Y-8507552D01*
X7965539Y-8507552D02*
X7965539Y-8450410D01*
X7965539Y-8450410D02*
X7975063Y-8431362D01*
X7975063Y-8431362D02*
X7984587Y-8421838D01*
X7984587Y-8421838D02*
X8003634Y-8412314D01*
X8003634Y-8412314D02*
X8032206Y-8412314D01*
X8032206Y-8412314D02*
X8051253Y-8421838D01*
X8051253Y-8421838D02*
X8060777Y-8431362D01*
X8060777Y-8431362D02*
X8070301Y-8450410D01*
X8070301Y-8450410D02*
X8070301Y-8507552D01*
X8070301Y-8507552D02*
X8060777Y-8526600D01*
X8060777Y-8526600D02*
X8051253Y-8536124D01*
X8051253Y-8536124D02*
X8032206Y-8545648D01*
X8032206Y-8545648D02*
X8003634Y-8545648D01*
X8184587Y-8545648D02*
X8165539Y-8536124D01*
X8165539Y-8536124D02*
X8156015Y-8517076D01*
X8156015Y-8517076D02*
X8156015Y-8345648D01*
X8336968Y-8536124D02*
X8317920Y-8545648D01*
X8317920Y-8545648D02*
X8279825Y-8545648D01*
X8279825Y-8545648D02*
X8260777Y-8536124D01*
X8260777Y-8536124D02*
X8251253Y-8517076D01*
X8251253Y-8517076D02*
X8251253Y-8440886D01*
X8251253Y-8440886D02*
X8260777Y-8421838D01*
X8260777Y-8421838D02*
X8279825Y-8412314D01*
X8279825Y-8412314D02*
X8317920Y-8412314D01*
X8317920Y-8412314D02*
X8336968Y-8421838D01*
X8336968Y-8421838D02*
X8346491Y-8440886D01*
X8346491Y-8440886D02*
X8346491Y-8459933D01*
X8346491Y-8459933D02*
X8251253Y-8478981D01*
X8422682Y-8536124D02*
X8441730Y-8545648D01*
X8441730Y-8545648D02*
X8479825Y-8545648D01*
X8479825Y-8545648D02*
X8498873Y-8536124D01*
X8498873Y-8536124D02*
X8508396Y-8517076D01*
X8508396Y-8517076D02*
X8508396Y-8507552D01*
X8508396Y-8507552D02*
X8498873Y-8488505D01*
X8498873Y-8488505D02*
X8479825Y-8478981D01*
X8479825Y-8478981D02*
X8451253Y-8478981D01*
X8451253Y-8478981D02*
X8432206Y-8469457D01*
X8432206Y-8469457D02*
X8422682Y-8450410D01*
X8422682Y-8450410D02*
X8422682Y-8440886D01*
X8422682Y-8440886D02*
X8432206Y-8421838D01*
X8432206Y-8421838D02*
X8451253Y-8412314D01*
X8451253Y-8412314D02*
X8479825Y-8412314D01*
X8479825Y-8412314D02*
X8498873Y-8421838D01*
X8575063Y-8621838D02*
X8584587Y-8612314D01*
X8584587Y-8612314D02*
X8603634Y-8583743D01*
X8603634Y-8583743D02*
X8613158Y-8564695D01*
X8613158Y-8564695D02*
X8622682Y-8536124D01*
X8622682Y-8536124D02*
X8632206Y-8488505D01*
X8632206Y-8488505D02*
X8632206Y-8450410D01*
X8632206Y-8450410D02*
X8622682Y-8402791D01*
X8622682Y-8402791D02*
X8613158Y-8374219D01*
X8613158Y-8374219D02*
X8603634Y-8355171D01*
X8603634Y-8355171D02*
X8584587Y-8326600D01*
X8584587Y-8326600D02*
X8575063Y-8317076D01*
M02*
