%TF.GenerationSoftware,KiCad,Pcbnew,7.0.10*%
%TF.CreationDate,2024-11-15T18:30:03-05:00*%
%TF.ProjectId,plane_side_view,706c616e-655f-4736-9964-655f76696577,rev?*%
%TF.SameCoordinates,Original*%
%TF.FileFunction,Legend,Top*%
%TF.FilePolarity,Positive*%
%FSLAX46Y46*%
G04 Gerber Fmt 4.6, Leading zero omitted, Abs format (unit mm)*
G04 Created by KiCad (PCBNEW 7.0.10) date 2024-11-15 18:30:03*
%MOMM*%
%LPD*%
G01*
G04 APERTURE LIST*
%ADD10C,0.150000*%
G04 APERTURE END LIST*
D10*
X88958811Y-66593405D02*
G75*
G03*
X88343498Y-67220031I145880J-758662D01*
G01*
X84233445Y-67197441D02*
G75*
G03*
X83643286Y-66596439I-730054J-126626D01*
G01*
X88958810Y-66593399D02*
X89993286Y-66596439D01*
X82608811Y-66593405D02*
G75*
G03*
X81993498Y-67220031I145880J-758662D01*
G01*
X88343497Y-67220031D02*
X88343291Y-69181167D01*
X88925990Y-69835002D02*
X89992412Y-69820827D01*
X90583445Y-67197441D02*
G75*
G03*
X89993286Y-66596439I-730054J-126626D01*
G01*
X81993225Y-69181172D02*
G75*
G03*
X82575990Y-69835002I718866J54105D01*
G01*
X76225990Y-69835002D02*
X77292412Y-69820827D01*
X69908810Y-66593399D02*
X70943286Y-66596439D01*
X69908811Y-66593405D02*
G75*
G03*
X69293498Y-67220031I145880J-758662D01*
G01*
X71533445Y-67197441D02*
G75*
G03*
X70943286Y-66596439I-730054J-126626D01*
G01*
X69293225Y-69181172D02*
G75*
G03*
X69875990Y-69835002I718866J54105D01*
G01*
X76258810Y-66593399D02*
X77293286Y-66596439D01*
X69875990Y-69835002D02*
X70942412Y-69820827D01*
X69875990Y-69835002D02*
X70942412Y-69820827D01*
X77292409Y-69820811D02*
G75*
G03*
X77882560Y-69219823I-139918J727644D01*
G01*
X84233434Y-67197443D02*
X84232560Y-69219823D01*
X69293497Y-67220031D02*
X69293291Y-69181167D01*
X69293225Y-69181172D02*
G75*
G03*
X69875990Y-69835002I718866J54105D01*
G01*
X81993225Y-69181172D02*
G75*
G03*
X82575990Y-69835002I718866J54105D01*
G01*
X82575990Y-69835002D02*
X83642412Y-69820827D01*
X81993497Y-67220031D02*
X81993291Y-69181167D01*
X70942409Y-69820811D02*
G75*
G03*
X71532560Y-69219823I-139918J727644D01*
G01*
X83642409Y-69820811D02*
G75*
G03*
X84232560Y-69219823I-139918J727644D01*
G01*
X90583434Y-67197443D02*
X90582560Y-69219823D01*
X71533445Y-67197441D02*
G75*
G03*
X70943286Y-66596439I-730054J-126626D01*
G01*
X89992409Y-69820811D02*
G75*
G03*
X90582560Y-69219823I-139918J727644D01*
G01*
X77883445Y-67197441D02*
G75*
G03*
X77293286Y-66596439I-730054J-126626D01*
G01*
X82608811Y-66593405D02*
G75*
G03*
X81993498Y-67220031I145880J-758662D01*
G01*
X70942409Y-69820811D02*
G75*
G03*
X71532560Y-69219823I-139918J727644D01*
G01*
X82575990Y-69835002D02*
X83642412Y-69820827D01*
X71533434Y-67197443D02*
X71532560Y-69219823D01*
X83642409Y-69820811D02*
G75*
G03*
X84232560Y-69219823I-139918J727644D01*
G01*
X81993497Y-67220031D02*
X81993291Y-69181167D01*
X84233434Y-67197443D02*
X84232560Y-69219823D01*
X82608810Y-66593399D02*
X83643286Y-66596439D01*
X88343225Y-69181172D02*
G75*
G03*
X88925990Y-69835002I718866J54105D01*
G01*
X96933445Y-67197441D02*
G75*
G03*
X96343286Y-66596439I-730054J-126626D01*
G01*
X94693497Y-67220031D02*
X94693291Y-69181167D01*
X75643225Y-69181172D02*
G75*
G03*
X76225990Y-69835002I718866J54105D01*
G01*
X96933434Y-67197443D02*
X96932560Y-69219823D01*
X71533434Y-67197443D02*
X71532560Y-69219823D01*
X94693225Y-69181172D02*
G75*
G03*
X95275990Y-69835002I718866J54105D01*
G01*
X75643497Y-67220031D02*
X75643291Y-69181167D01*
X95275990Y-69835002D02*
X96342412Y-69820827D01*
X76258811Y-66593405D02*
G75*
G03*
X75643498Y-67220031I145880J-758662D01*
G01*
X82608810Y-66593399D02*
X83643286Y-66596439D01*
X69908811Y-66593405D02*
G75*
G03*
X69293498Y-67220031I145880J-758662D01*
G01*
X69908810Y-66593399D02*
X70943286Y-66596439D01*
X77883434Y-67197443D02*
X77882560Y-69219823D01*
X95308811Y-66593405D02*
G75*
G03*
X94693498Y-67220031I145880J-758662D01*
G01*
X96342409Y-69820811D02*
G75*
G03*
X96932560Y-69219823I-139918J727644D01*
G01*
X84233445Y-67197441D02*
G75*
G03*
X83643286Y-66596439I-730054J-126626D01*
G01*
X69293497Y-67220031D02*
X69293291Y-69181167D01*
X95308810Y-66593399D02*
X96343286Y-66596439D01*
X120708811Y-66593405D02*
G75*
G03*
X120093498Y-67220031I145880J-758662D01*
G01*
X115983445Y-67197441D02*
G75*
G03*
X115393286Y-66596439I-730054J-126626D01*
G01*
X120708810Y-66593399D02*
X121743286Y-66596439D01*
X114358811Y-66593405D02*
G75*
G03*
X113743498Y-67220031I145880J-758662D01*
G01*
X120093497Y-67220031D02*
X120093291Y-69181167D01*
X120675990Y-69835002D02*
X121742412Y-69820827D01*
X122333445Y-67197441D02*
G75*
G03*
X121743286Y-66596439I-730054J-126626D01*
G01*
X113743225Y-69181172D02*
G75*
G03*
X114325990Y-69835002I718866J54105D01*
G01*
X88925990Y-69835002D02*
X89992412Y-69820827D01*
X96933434Y-67197443D02*
X96932560Y-69219823D01*
X107975990Y-69835002D02*
X109042412Y-69820827D01*
X101658810Y-66593399D02*
X102693286Y-66596439D01*
X101658811Y-66593405D02*
G75*
G03*
X101043498Y-67220031I145880J-758662D01*
G01*
X103283445Y-67197441D02*
G75*
G03*
X102693286Y-66596439I-730054J-126626D01*
G01*
X101043225Y-69181172D02*
G75*
G03*
X101625990Y-69835002I718866J54105D01*
G01*
X108008810Y-66593399D02*
X109043286Y-66596439D01*
X101625990Y-69835002D02*
X102692412Y-69820827D01*
X101625990Y-69835002D02*
X102692412Y-69820827D01*
X109042409Y-69820811D02*
G75*
G03*
X109632560Y-69219823I-139918J727644D01*
G01*
X89992409Y-69820811D02*
G75*
G03*
X90582560Y-69219823I-139918J727644D01*
G01*
X88343225Y-69181172D02*
G75*
G03*
X88925990Y-69835002I718866J54105D01*
G01*
X115983434Y-67197443D02*
X115982560Y-69219823D01*
X95308810Y-66593399D02*
X96343286Y-66596439D01*
X101043497Y-67220031D02*
X101043291Y-69181167D01*
X101043225Y-69181172D02*
G75*
G03*
X101625990Y-69835002I718866J54105D01*
G01*
X96933445Y-67197441D02*
G75*
G03*
X96343286Y-66596439I-730054J-126626D01*
G01*
X113743225Y-69181172D02*
G75*
G03*
X114325990Y-69835002I718866J54105D01*
G01*
X114325990Y-69835002D02*
X115392412Y-69820827D01*
X113743497Y-67220031D02*
X113743291Y-69181167D01*
X88958810Y-66593399D02*
X89993286Y-66596439D01*
X95308811Y-66593405D02*
G75*
G03*
X94693498Y-67220031I145880J-758662D01*
G01*
X88958811Y-66593405D02*
G75*
G03*
X88343498Y-67220031I145880J-758662D01*
G01*
X90583445Y-67197441D02*
G75*
G03*
X89993286Y-66596439I-730054J-126626D01*
G01*
X90583434Y-67197443D02*
X90582560Y-69219823D01*
X102692409Y-69820811D02*
G75*
G03*
X103282560Y-69219823I-139918J727644D01*
G01*
X96342409Y-69820811D02*
G75*
G03*
X96932560Y-69219823I-139918J727644D01*
G01*
X115392409Y-69820811D02*
G75*
G03*
X115982560Y-69219823I-139918J727644D01*
G01*
X122333434Y-67197443D02*
X122332560Y-69219823D01*
X103283445Y-67197441D02*
G75*
G03*
X102693286Y-66596439I-730054J-126626D01*
G01*
X121742409Y-69820811D02*
G75*
G03*
X122332560Y-69219823I-139918J727644D01*
G01*
X109633445Y-67197441D02*
G75*
G03*
X109043286Y-66596439I-730054J-126626D01*
G01*
X114358811Y-66593405D02*
G75*
G03*
X113743498Y-67220031I145880J-758662D01*
G01*
X102692409Y-69820811D02*
G75*
G03*
X103282560Y-69219823I-139918J727644D01*
G01*
X114325990Y-69835002D02*
X115392412Y-69820827D01*
X103283434Y-67197443D02*
X103282560Y-69219823D01*
X115392409Y-69820811D02*
G75*
G03*
X115982560Y-69219823I-139918J727644D01*
G01*
X113743497Y-67220031D02*
X113743291Y-69181167D01*
X115983434Y-67197443D02*
X115982560Y-69219823D01*
X114358810Y-66593399D02*
X115393286Y-66596439D01*
X120093225Y-69181172D02*
G75*
G03*
X120675990Y-69835002I718866J54105D01*
G01*
X128683445Y-67197441D02*
G75*
G03*
X128093286Y-66596439I-730054J-126626D01*
G01*
X126443497Y-67220031D02*
X126443291Y-69181167D01*
X107393225Y-69181172D02*
G75*
G03*
X107975990Y-69835002I718866J54105D01*
G01*
X128683434Y-67197443D02*
X128682560Y-69219823D01*
X103283434Y-67197443D02*
X103282560Y-69219823D01*
X126443225Y-69181172D02*
G75*
G03*
X127025990Y-69835002I718866J54105D01*
G01*
X107393497Y-67220031D02*
X107393291Y-69181167D01*
X127025990Y-69835002D02*
X128092412Y-69820827D01*
X94693225Y-69181172D02*
G75*
G03*
X95275990Y-69835002I718866J54105D01*
G01*
X108008811Y-66593405D02*
G75*
G03*
X107393498Y-67220031I145880J-758662D01*
G01*
X114358810Y-66593399D02*
X115393286Y-66596439D01*
X88343497Y-67220031D02*
X88343291Y-69181167D01*
X101658811Y-66593405D02*
G75*
G03*
X101043498Y-67220031I145880J-758662D01*
G01*
X101658810Y-66593399D02*
X102693286Y-66596439D01*
X95275990Y-69835002D02*
X96342412Y-69820827D01*
X109633434Y-67197443D02*
X109632560Y-69219823D01*
X127058811Y-66593405D02*
G75*
G03*
X126443498Y-67220031I145880J-758662D01*
G01*
X128092409Y-69820811D02*
G75*
G03*
X128682560Y-69219823I-139918J727644D01*
G01*
X115983445Y-67197441D02*
G75*
G03*
X115393286Y-66596439I-730054J-126626D01*
G01*
X101043497Y-67220031D02*
X101043291Y-69181167D01*
X94693497Y-67220031D02*
X94693291Y-69181167D01*
X127058810Y-66593399D02*
X128093286Y-66596439D01*
X81993497Y-67220031D02*
X81993291Y-69181167D01*
X82575990Y-69835002D02*
X83642412Y-69820827D01*
X76258810Y-66593400D02*
G75*
G03*
X75643498Y-67220031I145896J-758675D01*
G01*
X90583434Y-67197443D02*
X90582560Y-69219823D01*
X84233445Y-67197441D02*
G75*
G03*
X83643286Y-66596439I-730054J-126626D01*
G01*
X77883429Y-67197444D02*
G75*
G03*
X77293286Y-66596439I-730078J-126643D01*
G01*
X75643292Y-69181167D02*
G75*
G03*
X76225990Y-69835002I718834J54058D01*
G01*
X82608810Y-66593399D02*
X83643286Y-66596439D01*
X76225990Y-69835002D02*
X77292412Y-69820827D01*
X77292412Y-69820826D02*
G75*
G03*
X77882560Y-69219823I-139931J727649D01*
G01*
X83642409Y-69820811D02*
G75*
G03*
X84232560Y-69219823I-139918J727644D01*
G01*
X75643497Y-67220031D02*
X75643291Y-69181167D01*
X77883434Y-67197443D02*
X77882560Y-69219823D01*
X88958810Y-66593399D02*
X89993286Y-66596439D01*
X76258810Y-66593399D02*
X77293286Y-66596439D01*
X81993225Y-69181172D02*
G75*
G03*
X82575990Y-69835002I718866J54105D01*
G01*
X90583445Y-67197441D02*
G75*
G03*
X89993286Y-66596439I-730054J-126626D01*
G01*
X88925990Y-69835002D02*
X89992412Y-69820827D01*
X88343225Y-69181172D02*
G75*
G03*
X88925990Y-69835002I718866J54105D01*
G01*
X88958811Y-66593405D02*
G75*
G03*
X88343498Y-67220031I145880J-758662D01*
G01*
X89992409Y-69820811D02*
G75*
G03*
X90582560Y-69219823I-139918J727644D01*
G01*
X82608811Y-66593405D02*
G75*
G03*
X81993498Y-67220031I145880J-758662D01*
G01*
X84233434Y-67197443D02*
X84232560Y-69219823D01*
X88343497Y-67220031D02*
X88343291Y-69181167D01*
X171508811Y-66593405D02*
G75*
G03*
X170893498Y-67220031I145880J-758662D01*
G01*
X166783445Y-67197441D02*
G75*
G03*
X166193286Y-66596439I-730054J-126626D01*
G01*
X171508810Y-66593399D02*
X172543286Y-66596439D01*
X165158811Y-66593405D02*
G75*
G03*
X164543498Y-67220031I145880J-758662D01*
G01*
X170893497Y-67220031D02*
X170893291Y-69181167D01*
X171475990Y-69835002D02*
X172542412Y-69820827D01*
X173133445Y-67197441D02*
G75*
G03*
X172543286Y-66596439I-730054J-126626D01*
G01*
X164543225Y-69181172D02*
G75*
G03*
X165125990Y-69835002I718866J54105D01*
G01*
X139725990Y-69835002D02*
X140792412Y-69820827D01*
X147733434Y-67197443D02*
X147732560Y-69219823D01*
X158775990Y-69835002D02*
X159842412Y-69820827D01*
X152458810Y-66593399D02*
X153493286Y-66596439D01*
X152458811Y-66593405D02*
G75*
G03*
X151843498Y-67220031I145880J-758662D01*
G01*
X154083445Y-67197441D02*
G75*
G03*
X153493286Y-66596439I-730054J-126626D01*
G01*
X151843225Y-69181172D02*
G75*
G03*
X152425990Y-69835002I718866J54105D01*
G01*
X158808810Y-66593399D02*
X159843286Y-66596439D01*
X152425990Y-69835002D02*
X153492412Y-69820827D01*
X152425990Y-69835002D02*
X153492412Y-69820827D01*
X159842409Y-69820811D02*
G75*
G03*
X160432560Y-69219823I-139918J727644D01*
G01*
X140792409Y-69820811D02*
G75*
G03*
X141382560Y-69219823I-139918J727644D01*
G01*
X139143225Y-69181172D02*
G75*
G03*
X139725990Y-69835002I718866J54105D01*
G01*
X166783434Y-67197443D02*
X166782560Y-69219823D01*
X146108810Y-66593399D02*
X147143286Y-66596439D01*
X151843497Y-67220031D02*
X151843291Y-69181167D01*
X151843225Y-69181172D02*
G75*
G03*
X152425990Y-69835002I718866J54105D01*
G01*
X147733445Y-67197441D02*
G75*
G03*
X147143286Y-66596439I-730054J-126626D01*
G01*
X164543225Y-69181172D02*
G75*
G03*
X165125990Y-69835002I718866J54105D01*
G01*
X165125990Y-69835002D02*
X166192412Y-69820827D01*
X164543497Y-67220031D02*
X164543291Y-69181167D01*
X139758810Y-66593399D02*
X140793286Y-66596439D01*
X146108811Y-66593405D02*
G75*
G03*
X145493498Y-67220031I145880J-758662D01*
G01*
X139758811Y-66593405D02*
G75*
G03*
X139143498Y-67220031I145880J-758662D01*
G01*
X141383445Y-67197441D02*
G75*
G03*
X140793286Y-66596439I-730054J-126626D01*
G01*
X141383434Y-67197443D02*
X141382560Y-69219823D01*
X153492409Y-69820811D02*
G75*
G03*
X154082560Y-69219823I-139918J727644D01*
G01*
X147142409Y-69820811D02*
G75*
G03*
X147732560Y-69219823I-139918J727644D01*
G01*
X166192409Y-69820811D02*
G75*
G03*
X166782560Y-69219823I-139918J727644D01*
G01*
X173133434Y-67197443D02*
X173132560Y-69219823D01*
X154083445Y-67197441D02*
G75*
G03*
X153493286Y-66596439I-730054J-126626D01*
G01*
X172542409Y-69820811D02*
G75*
G03*
X173132560Y-69219823I-139918J727644D01*
G01*
X160433445Y-67197441D02*
G75*
G03*
X159843286Y-66596439I-730054J-126626D01*
G01*
X165158811Y-66593405D02*
G75*
G03*
X164543498Y-67220031I145880J-758662D01*
G01*
X153492409Y-69820811D02*
G75*
G03*
X154082560Y-69219823I-139918J727644D01*
G01*
X165125990Y-69835002D02*
X166192412Y-69820827D01*
X154083434Y-67197443D02*
X154082560Y-69219823D01*
X166192409Y-69820811D02*
G75*
G03*
X166782560Y-69219823I-139918J727644D01*
G01*
X164543497Y-67220031D02*
X164543291Y-69181167D01*
X166783434Y-67197443D02*
X166782560Y-69219823D01*
X165158810Y-66593399D02*
X166193286Y-66596439D01*
X170893225Y-69181172D02*
G75*
G03*
X171475990Y-69835002I718866J54105D01*
G01*
X179483445Y-67197441D02*
G75*
G03*
X178893286Y-66596439I-730054J-126626D01*
G01*
X177243497Y-67220031D02*
X177243291Y-69181167D01*
X158193225Y-69181172D02*
G75*
G03*
X158775990Y-69835002I718866J54105D01*
G01*
X179483434Y-67197443D02*
X179482560Y-69219823D01*
X154083434Y-67197443D02*
X154082560Y-69219823D01*
X177243225Y-69181172D02*
G75*
G03*
X177825990Y-69835002I718866J54105D01*
G01*
X158193497Y-67220031D02*
X158193291Y-69181167D01*
X177825990Y-69835002D02*
X178892412Y-69820827D01*
X145493225Y-69181172D02*
G75*
G03*
X146075990Y-69835002I718866J54105D01*
G01*
X158808811Y-66593405D02*
G75*
G03*
X158193498Y-67220031I145880J-758662D01*
G01*
X165158810Y-66593399D02*
X166193286Y-66596439D01*
X139143497Y-67220031D02*
X139143291Y-69181167D01*
X152458811Y-66593405D02*
G75*
G03*
X151843498Y-67220031I145880J-758662D01*
G01*
X152458810Y-66593399D02*
X153493286Y-66596439D01*
X146075990Y-69835002D02*
X147142412Y-69820827D01*
X160433434Y-67197443D02*
X160432560Y-69219823D01*
X177858811Y-66593405D02*
G75*
G03*
X177243498Y-67220031I145880J-758662D01*
G01*
X178892409Y-69820811D02*
G75*
G03*
X179482560Y-69219823I-139918J727644D01*
G01*
X166783445Y-67197441D02*
G75*
G03*
X166193286Y-66596439I-730054J-126626D01*
G01*
X151843497Y-67220031D02*
X151843291Y-69181167D01*
X145493497Y-67220031D02*
X145493291Y-69181167D01*
X177858810Y-66593399D02*
X178893286Y-66596439D01*
X132793497Y-67220031D02*
X132793291Y-69181167D01*
X133375990Y-69835002D02*
X134442412Y-69820827D01*
X127058810Y-66593400D02*
G75*
G03*
X126443498Y-67220031I145896J-758675D01*
G01*
X141383434Y-67197443D02*
X141382560Y-69219823D01*
X135033445Y-67197441D02*
G75*
G03*
X134443286Y-66596439I-730054J-126626D01*
G01*
X128683429Y-67197444D02*
G75*
G03*
X128093286Y-66596439I-730078J-126643D01*
G01*
X126443292Y-69181167D02*
G75*
G03*
X127025990Y-69835002I718834J54058D01*
G01*
X133408810Y-66593399D02*
X134443286Y-66596439D01*
X127025990Y-69835002D02*
X128092412Y-69820827D01*
X128092412Y-69820826D02*
G75*
G03*
X128682560Y-69219823I-139931J727649D01*
G01*
X134442409Y-69820811D02*
G75*
G03*
X135032560Y-69219823I-139918J727644D01*
G01*
X126443497Y-67220031D02*
X126443291Y-69181167D01*
X128683434Y-67197443D02*
X128682560Y-69219823D01*
X139758810Y-66593399D02*
X140793286Y-66596439D01*
X127058810Y-66593399D02*
X128093286Y-66596439D01*
X132793225Y-69181172D02*
G75*
G03*
X133375990Y-69835002I718866J54105D01*
G01*
X141383445Y-67197441D02*
G75*
G03*
X140793286Y-66596439I-730054J-126626D01*
G01*
X139725990Y-69835002D02*
X140792412Y-69820827D01*
X139143225Y-69181172D02*
G75*
G03*
X139725990Y-69835002I718866J54105D01*
G01*
X139758811Y-66593405D02*
G75*
G03*
X139143498Y-67220031I145880J-758662D01*
G01*
X140792409Y-69820811D02*
G75*
G03*
X141382560Y-69219823I-139918J727644D01*
G01*
X133408811Y-66593405D02*
G75*
G03*
X132793498Y-67220031I145880J-758662D01*
G01*
X135033434Y-67197443D02*
X135032560Y-69219823D01*
X139143497Y-67220031D02*
X139143291Y-69181167D01*
M02*
