%TF.GenerationSoftware,KiCad,Pcbnew,7.0.10*%
%TF.CreationDate,2024-11-15T18:30:03-05:00*%
%TF.ProjectId,plane_side_view,706c616e-655f-4736-9964-655f76696577,rev?*%
%TF.SameCoordinates,Original*%
%TF.FileFunction,Copper,L1,Top*%
%TF.FilePolarity,Positive*%
%FSLAX46Y46*%
G04 Gerber Fmt 4.6, Leading zero omitted, Abs format (unit mm)*
G04 Created by KiCad (PCBNEW 7.0.10) date 2024-11-15 18:30:03*
%MOMM*%
%LPD*%
G01*
G04 APERTURE LIST*
%TA.AperFunction,ViaPad*%
%ADD10C,0.800000*%
%TD*%
G04 APERTURE END LIST*
D10*
%TO.N,GND*%
X74930000Y-73660000D03*
X87630000Y-73660000D03*
X101600000Y-73660000D03*
X110490000Y-73660000D03*
X116840000Y-73660000D03*
%TD*%
%TA.AperFunction,Conductor*%
%TO.N,GND*%
G36*
X44721244Y-44470185D02*
G01*
X44740713Y-44485661D01*
X63077146Y-62341115D01*
X63079533Y-62343830D01*
X63081563Y-62345639D01*
X63084004Y-62347944D01*
X63086762Y-62349653D01*
X63090093Y-62351841D01*
X63093064Y-62353316D01*
X64941498Y-63470838D01*
X64944972Y-63473113D01*
X64945910Y-63473483D01*
X64950110Y-63474262D01*
X68279626Y-64224256D01*
X68280310Y-64224410D01*
X68284089Y-64225376D01*
X68288049Y-64225590D01*
X72162298Y-64555072D01*
X72167584Y-64555828D01*
X72171217Y-64555983D01*
X72176564Y-64555685D01*
X176075533Y-64555685D01*
X176079447Y-64555747D01*
X176183478Y-64559032D01*
X182866659Y-64770078D01*
X182892808Y-64773717D01*
X187932660Y-66033679D01*
X187981350Y-66058206D01*
X190542898Y-68164954D01*
X191821869Y-69216845D01*
X191826453Y-69221004D01*
X191827166Y-69221338D01*
X191832958Y-69223412D01*
X192516916Y-69511510D01*
X193925248Y-70104731D01*
X193929903Y-70107028D01*
X193934403Y-70108721D01*
X193939414Y-70110059D01*
X195647941Y-70677932D01*
X195705350Y-70717756D01*
X195707901Y-70721030D01*
X196969984Y-72397729D01*
X196994573Y-72463128D01*
X196979902Y-72531440D01*
X196930627Y-72580976D01*
X196871235Y-72596301D01*
X119037141Y-72798548D01*
X119035515Y-72798541D01*
X119033303Y-72798517D01*
X119032936Y-72798661D01*
X119032918Y-72798673D01*
X119032917Y-72798675D01*
X119032913Y-72798678D01*
X119032904Y-72798691D01*
X119032758Y-72799060D01*
X119032771Y-72801167D01*
X119032770Y-72802852D01*
X119022848Y-74132932D01*
X119022561Y-74134373D01*
X119022630Y-74157157D01*
X119022683Y-74157300D01*
X119046618Y-74157457D01*
X119047523Y-74157280D01*
X196472379Y-74216340D01*
X196539403Y-74236076D01*
X196585118Y-74288915D01*
X196595008Y-74358081D01*
X196565935Y-74421614D01*
X196540741Y-74443731D01*
X194511259Y-75787497D01*
X194459893Y-75806923D01*
X187194852Y-76817921D01*
X187185087Y-76818887D01*
X176405262Y-77456901D01*
X176398684Y-77457116D01*
X79614040Y-78041097D01*
X79600224Y-78040408D01*
X62237615Y-76200303D01*
X62222715Y-76197799D01*
X43821832Y-71937685D01*
X43804303Y-71932232D01*
X43615884Y-71857916D01*
X43485273Y-71805857D01*
X43421747Y-71780537D01*
X43421324Y-71780368D01*
X43229407Y-71703054D01*
X43228976Y-71702879D01*
X43048587Y-71629421D01*
X43031609Y-71620939D01*
X39511863Y-69511510D01*
X39464479Y-69460163D01*
X39451607Y-69405149D01*
X39451607Y-68249879D01*
X39471292Y-68182840D01*
X39524096Y-68137085D01*
X39529995Y-68134573D01*
X41388081Y-67399571D01*
X41417938Y-67391882D01*
X46888424Y-66691224D01*
X46895633Y-66690826D01*
X46897501Y-66690086D01*
X46897503Y-66690087D01*
X46897504Y-66690085D01*
X46897893Y-66689932D01*
X46897840Y-66689517D01*
X46897841Y-66689515D01*
X46897839Y-66689513D01*
X46897586Y-66687510D01*
X46894435Y-66680974D01*
X38167828Y-44620110D01*
X38161474Y-44550532D01*
X38193745Y-44488561D01*
X38254397Y-44453876D01*
X38283135Y-44450500D01*
X44654205Y-44450500D01*
X44721244Y-44470185D01*
G37*
%TD.AperFunction*%
%TD*%
M02*
